<svg xmlns="http://www.w3.org/2000/svg" viewBox="0 0 240.28 205.99"><defs><style>.cls-1{fill:#edcc97;}.cls-2{fill:#636c5c;}.cls-3{fill:#514b45;}.cls-4{fill:#fefefe;}.cls-5{fill:#fdfdfd;}.cls-6{fill:#5f5a54;}.cls-7{fill:#65605b;}.cls-8{fill:#645e59;}.cls-9{fill:#6a6660;}.cls-10{fill:#67625d;}.cls-11{fill:#55504a;}.cls-12{fill:#56504a;}.cls-13{fill:#59544e;}.cls-14{fill:#c27b3d;}.cls-15{fill:#f0deaf;}.cls-16{fill:#c27c3e;}.cls-17{fill:#524d46;}.cls-18{fill:#524e47;}.cls-19{fill:#504a44;}.cls-20{fill:#4f4943;}</style></defs><title>bunker</title><g id="Layer_2" data-name="Layer 2"><g id="Layer_1-2" data-name="Layer 1"><path class="cls-1" d="M225.9,120.54c0-1.47-.07-3-.1-4.43a6.22,6.22,0,0,0-2.87-.22c-7.11-.11-14.23.17-21.34-.15a4,4,0,0,1-.29-2.2c0-17.45,0-34.91,0-52.37,0-.53,0-1.05,0-1.58,0-1.5-.73-2.15-2.21-2.15-9.59,0-19.18,0-28.76,0-2.28,0-2.21,1.47-2.21,3q0,23.94,0,47.89c0,1.57,0,3.14,0,4.72a4.16,4.16,0,0,1-.56,2.58c-.54.4-1.15.21-1.73.21H133.64a1.38,1.38,0,0,1-.84-.22,57.18,57.18,0,0,0,.69-10.46c-.17-15.82.4-31.62.59-47.43.11-9.14.12-18.28.3-27.42.05-2.46,0-2.49-2.35-1.54C109,38.16,85.84,47.33,62.8,56.71c-1.33.52-2.66,1-4,1.38s-2-.09-2.11-1.46c-.11-2.7-.12-5.4,0-8.09.09-1.82,1.48-2.48,2.89-3.06,5.54-2.28,11.06-4.62,16.59-6.91q27.31-11.25,54.56-22.66a20.92,20.92,0,0,1,8.49-1.71c11.45.12,22.91,0,34.37.08a.66.66,0,0,1,.32.69c-.83,1.38-2.22,1-3.43,1-9.66,0-19.31,0-29,0-.67,0-1.35,0-2,0-2.68,0-3,.33-2.76,3,.11,1.56.39,3.12.44,4.69a1.93,1.93,0,0,0,2.14,2c.9,0,1.8,0,2.7,0h82.64a11.23,11.23,0,0,1,4,.32c1.51,1.33,1.07,3.13,1,4.74-.11,1.83-.26,3.66-.25,5.5a12,12,0,0,0-.09,2.47q0,35.85,0,71.69c0,1.36.07,2.72-1,3.77a2.43,2.43,0,0,0-1.31,2.51c0,1.22.26,2.49-.44,3.64C226.32,120.76,226.12,120.78,225.9,120.54Z"/><path class="cls-2" d="M173.37,14.43c-.76.7-1.71.4-2.57.4q-16.5.06-33,.05A14.08,14.08,0,0,0,132.14,16Q95.78,31.16,59.39,46.18c-1.51.63-2.24,1.38-2.15,3.12.14,2.75,0,5.51,0,8.4,1.93.06,3.49-1.19,5.3-1.45.87.85.63,2,.63,3,0,7.71.09,15.42,0,23.13a4.42,4.42,0,0,0,3.15,4.74q29.46,12.14,58.86,24.44c1.27.53,2.71.87,3.6,2.15-1,1-2.16.49-3.23.62-3.72-.34-7.46-.49-11.19-.61-7-.22-14.09.08-21.13-.1s-14.31-.82-21.47-1.21c-2.58-.14-5.16-.64-7.77-.32a39.4,39.4,0,0,0-.06,6.24.39.39,0,0,1-.61,0c-.83-2.32-.44-4.68-.23-7a9.64,9.64,0,0,0,0-3.28c-.71,1.31,0,2.75-1,3.74-6.29-.84-12.6-1.53-18.87-2.56a85.32,85.32,0,0,0-8.71-1.39,118.31,118.31,0,0,1-14.67-4,4.92,4.92,0,0,1-1.79-.77l0,0c-.45-.27-1-.07-1.44-.31-.34-.4-1-.14-1.3-.62l0,0c-.41-.33-1.07.06-1.39-.49l0,0a14.08,14.08,0,0,1-4.52-2.29l0,0a2.7,2.7,0,0,1-1.38-.94l0,0a11.35,11.35,0,0,1-1.48-.74c-.39-.4-.94-.6-1.26-1.08l0,.06a.72.72,0,0,1-.5-.5l.06.05a32.75,32.75,0,0,1-3.05-3.4C0,89.76.16,86.36,1.06,83a50.35,50.35,0,0,1,4.61-10.6c3.08-4.52,6.85-8.47,10.44-12.55a5,5,0,0,0,.4-.4l.37-.39.18-.18.36-.36.18-.18L18,58l.2-.15a3.68,3.68,0,0,1,.47-.15l0,0a.64.64,0,0,1,.51-.48l-.05.05c1.4-1.17,2.42-2.76,4.07-3.65l0,0c1.77-1.58,3.35-3.36,5.1-5a1.85,1.85,0,0,1,.79-.46l0,0c1.27-1,2.13-2.47,3.65-3.17l0,0c.9-.77,1.58-1.81,2.73-2.29l0,0A12.49,12.49,0,0,1,38,40.58l0,0a6.38,6.38,0,0,1,1.83-1.39l0,0c.58-.55,1.19-1.06,1.81-1.56,1.66-1.14,3.23-2.42,5-3.4l0,0a5.37,5.37,0,0,1,1.84-1.39l0,0c.45-.52,1-.89,1.53-1.38a1.56,1.56,0,0,1,.77-.43l0,0a34.19,34.19,0,0,1,5-3.63l0,0c1-1,2.37-1.45,3.41-2.37.53-.27,1-.6,1.56-.84l0,0A21.55,21.55,0,0,1,63,22.49a17.35,17.35,0,0,1,1.54-.81l0,0a3.26,3.26,0,0,1,1.4-.93l0,0a7.5,7.5,0,0,1,2.3-1.38l0,0c1.39-1.31,3.41-1.58,4.83-2.85,1.09-.57,2.19-1.14,3.3-1.69l0,0c2-1.52,4.33-2.27,6.56-3.26a7.12,7.12,0,0,1,2-.83l0,0a18.19,18.19,0,0,1,3.64-1.38l0,0c.33-.49,1-.25,1.38-.67,1.23-.3,2.4-.81,3.61-1.16l0,0c.31-.49,1-.23,1.33-.64A3.73,3.73,0,0,0,96,6.62a4.42,4.42,0,0,0,1.54-.5,49.09,49.09,0,0,0,6-1.83,137.07,137.07,0,0,1,19-3.45c9-.87,18-.83,26.86,1.21,2.43.74,4.94,1.25,7.17,2.56l-.05,0c.35.18.77.14,1.1.37L161,6.62a5.25,5.25,0,0,0,1.05.55c.84.54,1.9.69,2.58,1.49l0,0c1.34.81,2.9,1.21,4.09,2.29l0,0a3.29,3.29,0,0,1,1.39.93l0,0a3,3,0,0,1,1.38,1l-.05,0a5.27,5.27,0,0,1,1.86,1.37l-.06,0C173.39,14.07,173.48,14.2,173.37,14.43Z"/><path class="cls-3" d="M62.42,181.4a1.28,1.28,0,0,0,1,0,.85.85,0,0,1,.54.57,45.81,45.81,0,0,0,0,7.5,75,75,0,0,1,15-3.6q9.21-1.31,18.47-2c6.85-.54,13.72-.79,20.58-1.2,3.89-.24,7.78-.13,11.67-.3,13.16-.58,26.34-.13,39.51.22,11.12.29,22.24,1.11,33.31,2.24,4.75.48,9.45,1.38,14.15,2.2.74.14,1.39.41,1.26,1.23s-.92,1.13-1.73.91a89.31,89.31,0,0,0-12.38-1.95c-6-.72-12-1.16-18.07-1.6-9.1-.65-18.21-1-27.33-1.22-9.5-.2-19-.34-28.53.12-6.12.3-12.26.3-18.39.63-7.09.39-14.17.8-21.23,1.51s-14.41,1.49-21.42,3.47a17.27,17.27,0,0,0-3.1,1.28c-1.16.58-1.13,1.29.09,1.83a33.89,33.89,0,0,0,7.93,2.33c11.71,2.11,23.54,2.94,35.4,3.66,16.31,1,32.63.95,48.94.8,9.72-.08,19.43-.55,29.13-1.23a255.11,255.11,0,0,0,28.26-3.23,41.35,41.35,0,0,0,6.28-1.71c.86-.3,2.11-.49,2.07-1.71,0-1.05-1.15-1.25-2-1.54-.56-.19-1.14-.36-1.68-.6s-.89-.62-.64-1.24a1,1,0,0,1,1.28-.59,14.9,14.9,0,0,1,3,1.05c2.38,1.15,2.35,1.13,2.4-1.61,0-1-.32-2.09.27-3.06l0,.06c.83-.49,1.54-.43,1.52.69-.13,6.79.4,13.59-.26,20.38l.06-.06c-1.26.73-1.56.07-1.56-1.06,0-2.66,0-5.32,0-8,0-.66.44-1.52-.51-1.95-1.25.21-2.22,1.14-3.46,1.38-8.21,2.4-16.67,3.24-25.14,4.07a572.06,572.06,0,0,1-62.78,2.17c-10.09-.13-20.18-.51-30.25-1.22-7.16-.51-14.31-1-21.42-1.92-5.54-.71-11.11-1.42-16.37-3.47a5.32,5.32,0,0,0-3.49-.45l.07.07a.64.64,0,0,1-.52-.48l0,.07c-.71-3.28-.21-6.6-.27-9.9C62,183.77,61.43,182.46,62.42,181.4Z"/><path class="cls-4" d="M226.39,184.52c-.53,2,.06,4-.4,6.27a15.73,15.73,0,0,0-4.26-2.09,12,12,0,0,0-1.31-.33.67.67,0,0,0-.84.54.63.63,0,0,0,.44.7c.77.3,1.57.53,2.32.86s2.12.6,2.18,1.68-1.25,1.36-2.1,1.7a51.68,51.68,0,0,1-11.56,2.77c-10.08,1.56-20.24,2.28-30.42,2.87-19,1.1-38.06,1.13-57.09.65a359.11,359.11,0,0,1-44.79-3.48A57.69,57.69,0,0,1,67,194c-1-.37-2.5-.58-2.48-1.86s1.47-1.36,2.41-1.72a59.07,59.07,0,0,1,12.25-2.77,385.38,385.38,0,0,1,39.42-3.17c15.44-.61,30.88-.65,46.32-.21,16.26.46,32.49,1.39,48.59,3.93.81.13,1.61.32,2.42.51s1.47.44,1.65-.5c.14-.77-.65-.87-1.24-1-3.62-.63-7.22-1.35-10.87-1.77-11.1-1.28-22.23-2-33.39-2.44-16.93-.71-33.87-.73-50.8-.2-14.38.45-28.75,1.23-43,3.45-4.66.73-9.34,1.43-13.67,3.49-.33.15-.56.08-.62-.32,3.23-1.9,6.88-2.43,10.46-3.12,4.52-.87,9.09-1.44,13.69-1.88,5.48-.53,11-1.06,16.46-1.4,2.75-.17,5.54,0,8.25-.41,4.56-.65,9.13-.05,13.66-.43,10.4-.86,20.8-.41,31.19-.3,5.37.05,10.77.1,16.13.43,2.6.17,5.23.09,7.81.41,4.8.61,9.65.53,14.45,1.19,2.12.29,4.3.39,6.45.59,2.66.25,5.31.65,8,1.07,2.13.33,4.24.8,6.36,1.15.88.14,1.4.51,1.37,1.43s-.66,1.43-1.74,1.23c-2-.38-4.09-.77-6.16-1-3.09-.42-6.2-.76-9.28-1.22-2.21-.33-4.48-.09-6.64-.76a1.89,1.89,0,0,0-.67-.06,56.45,56.45,0,0,1-9.82-.6c-3.86-.43-7.73-.14-11.6-.64s-7.8.16-11.67-.19c-8.75-.78-17.51-.42-26.25-.29-5.74.09-11.51.1-17.24.45-3.06.18-6.12.13-9.17.39-4.23.36-8.48.48-12.69,1-6.56.73-13.17,1.18-19.67,2.51-3.22.66-6.46,1.1-9.43,2.61a4.56,4.56,0,0,0-.77.45c-.11.08-.15.24-.25.43a7.32,7.32,0,0,0,2.36,1.16,69.67,69.67,0,0,0,12.87,2.72c2.94.38,5.91.64,8.83,1.19a33.62,33.62,0,0,0,4.89.42c2.9.12,5.83.34,8.69.68,3.94.48,7.92-.15,11.81.74a5.23,5.23,0,0,0,1.12.05c14.44.58,28.89.6,43.33.37,4.92-.08,9.87-.09,14.77-.47,2.84-.21,5.7,0,8.48-.42s5.8-.2,8.68-.71c2.25-.39,4.6-.28,6.9-.52,3.48-.37,6.93-.89,10.39-1.27a74.83,74.83,0,0,0,10.53-2,24.74,24.74,0,0,0,4-1.4c.95-.42.94-1.16,0-1.64a21.71,21.71,0,0,0-2.51-1c-.77-.3-1.63-.6-1.38-1.67.19-.79,1.22-1.14,2.26-.89,1.54.37,2.84,1.31,4.51,1.88a13.3,13.3,0,0,0,.18-3.11C225.94,185.87,225.6,185.05,226.39,184.52Z"/><path class="cls-4" d="M69.32,135.43c2.64-1.32,5.54-1.7,8.38-2.18,4.17-.71,8.37-1.37,12.58-1.73,2.15-.19,4.31-.41,6.45-.65,2.58-.28,5.22-.05,7.76-.74a1.38,1.38,0,0,1,.45,0c3.15.26,6.25-.36,9.38-.49,16.77-.74,33.54-.43,50.31-.34,4.39,0,8.81.15,13.21.42,4.08.25,8.17.54,12.24.93,3.62.34,7.26.53,10.87,1.16,1.58.27,3.24.36,4.87.55.3,0,.6,0,.9,0,1.51.23,2.11.68,2,1.59-.13,1.61-1.4,1-2.25,1.05a45.2,45.2,0,0,1-5.78-.55c-2.73-.23-5.47-.55-8.2-.82a61.34,61.34,0,0,1-7.54-.77,2.19,2.19,0,0,0-.67-.07c-3.67.28-7.31-.34-11-.52-16.47-.81-32.94-.19-49.41-.4-4.34.89-8.8,0-13.15.87a8.22,8.22,0,0,1-1.57,0c-3.66,0-7.28.51-10.91.79-2.23.18-4.45.45-6.68.59-2.89.19-5.78.51-8.65,1a92.65,92.65,0,0,0-10.93,2.17,22.25,22.25,0,0,0-4.44,1.55c-1.56.8-1.56.89-.09,2,.18.14.34.29.51.43l-.33.25a1.71,1.71,0,0,1-2.2-1.38c-.29-1,.38-1.7,1.18-2.2a17.5,17.5,0,0,1,5-1.87c7.57-1.94,15.31-2.78,23.07-3.56,24.19-2.41,48.46-2,72.71-1.66A310.35,310.35,0,0,1,206,133.72a100.18,100.18,0,0,0-12.18-1.57,581.63,581.63,0,0,0-64.4-1.77c-17.8.41-35.61,1.24-53.21,4.38-2.17.39-4.25,1.56-6.58,1Z"/><path class="cls-4" d="M64,112.06c.37-.79,1.06-.39,1.57-.35,9.26.78,18.54,1.18,27.82,1.64,5.08.25,10.19.18,15.28.11,5.85-.08,11.68.39,17.51.53a7.45,7.45,0,0,0,2.86-.08,3.31,3.31,0,0,1,3.7,1.36c1.15.78,2.46.33,3.65.34,10.35.08,20.7,0,31.06,0a4.1,4.1,0,0,1,3-.66q14.1,0,28.19,0c1,0,2.11-.13,3,.69,7.39,0,14.78,0,22.17,0,.68,0,1.51-.39,2.05.42-.9,0-1.8,0-2.7,0-17.59-.14-35.18,1-52.76.37-12.12-.47-24.24-.17-36.35-.37a3.61,3.61,0,0,1-1.33-.13c-3.86-1.8-8-1.34-12.09-1.66-10.53-.84-21.09-.14-31.62-.58-2.86-.12-5.83.11-8.67-.72a5.87,5.87,0,0,0-2,0c-3.82.3-7.59-.65-11.41-.48C65.9,112.54,65,111.89,64,112.06Z"/><path class="cls-4" d="M68,141.28c2.84.61,5.59,1.61,8.47,2,3.53.53,7,1.11,10.58,1.58,3.76.49,7.52,1,11.3,1.26,2.38.13,4.73.58,7.13.56,4.48,0,9,.29,13.42.58s8.67.25,13,.29c9.59.08,19.19-.09,28.78.06,5.69.09,11.35-.45,17-.59,4.45-.1,8.92-.47,13.37-.85,5.33-.45,10.66-1,15.95-1.82a72.15,72.15,0,0,0,10.29-2,7.22,7.22,0,0,1,1.78-.21c0,.14,0,.28,0,.42-.75,1-1.91,1.13-3,1.37-8.65,1.93-17.47,2.6-26.27,3.45-11,1.07-22.12,1.28-33.18,1.62a229.71,229.71,0,0,1-26.5-.23c-2.25-.19-4.5,0-6.75-.09-16.09-.57-32.16-1.41-48-4.39a47.08,47.08,0,0,1-5.24-1.28c-.91-.29-1.93-.51-2.21-1.66Z"/><path class="cls-5" d="M65.39,195.22c10,3.24,20.38,4.12,30.75,5,17.48,1.44,35,1.89,52.55,1.78,16.41-.09,32.8-.67,49.15-2.22,8.35-.8,16.67-1.81,24.78-4.09l.26.07a.61.61,0,0,1-.16.48l-.9,0a3.44,3.44,0,0,0-.44.41c-1.7.07-3.25,1-5,1a2.79,2.79,0,0,0-.44.4l-1.81.05a2.79,2.79,0,0,0-.44.4l-2.26,0a3.31,3.31,0,0,0-.44.4l-2.71.05a3.31,3.31,0,0,0-.44.4l-3.16.06a3.23,3.23,0,0,0-.44.39l-2.7,0c-.38.38-1,0-1.34.43a72.51,72.51,0,0,0-10,.84,1.71,1.71,0,0,1-.45,0c-3.29-.27-6.55.36-9.81.55-4.78.28-9.58,0-14.31.46-5.76.56-11.5.16-17.24.35-1.87.06-3.74,0-5.61,0-9.57.3-19.12-.3-28.68-.54-5-.12-10-.45-14.92-.88s-9.62-.82-14.42-1.32a18.2,18.2,0,0,0-3.76-.42,2.73,2.73,0,0,0-.44-.39l-2.71-.06a2.79,2.79,0,0,0-.44-.4l-2.26,0a3.44,3.44,0,0,0-.44-.41L73,198a2.79,2.79,0,0,0-.44-.4c-1.71,0-3.25-.88-5-1a4.47,4.47,0,0,0-.45-.42l-1.8-.48-.2-.3Z"/><path class="cls-4" d="M210.62,146.3a8.46,8.46,0,0,1-3.65.79c-4.43.53-8.83,1.23-13.3,1.5-4.08.24-8.18.53-12.24.92-3.67.35-7.34,0-11,.4-6.73.74-13.46.18-20.18.42-1.86.06-3.68.63-5.56.43-7.39-.79-14.81-.12-22.19-.54-3.36-.19-6.72-.13-10.06-.39-4.76-.39-9.52-.58-14.28-.92-4.07-.28-8.14-.77-12.18-1.32a109.82,109.82,0,0,1-16.86-3.25,17.93,17.93,0,0,1-5.2-2.58c-.29-.72-.09-1.07.72-1,5.81,3.52,12.4,4.32,18.92,5.17,12,1.57,24.11,2.35,36.24,2.86,15.35.64,30.7.53,46,.23a331.38,331.38,0,0,0,41.6-3.27,4.4,4.4,0,0,1,2.86.21Z"/><path class="cls-4" d="M227.54,114.34a2.77,2.77,0,0,0,1.46-2.59c0-.67,0-1.35,0-2V36a.65.65,0,0,1,.46-.25l.27.07.19.2a5.1,5.1,0,0,0-.47,3q0,35.72,0,71.43a7,7,0,0,1-1,4.26c-.84,1.22-.23,2.78-.35,4.18-.07.72.16,1.59-1,1.62C227.06,118.48,226.64,116.36,227.54,114.34Z"/><path class="cls-4" d="M174.15,14.41H237c3.26,0,3.26,0,3.26,3.17,0,2.17,0,4.34,0,6.51,0,1.27-.14,2.55-1.32,3.39l-.25-.36c-.31-2.7.33-5.36.41-8,.09-3.11-.29-3.5-3.42-3.5q-28.81,0-57.64,0c-1.31,0-2.72.32-3.85-.71Z"/><path class="cls-6" d="M64.39,140.91c-.48.11-.54.44-.43.85a52.57,52.57,0,0,0,0,7.1,1.2,1.2,0,0,1-.49.53l-.2,0-.18.08c-.33.22-.63.29-.83-.15l.06.09c-.47-.3-.34-.78-.34-1.21,0-4.68,0-9.37,0-14,0-1.59.58-2.05,2-1.2a24.83,24.83,0,0,0,0,4.8,2.11,2.11,0,0,1,.84,1.15A2,2,0,0,1,64.39,140.91Z"/><path class="cls-5" d="M149.8,2.34C141.39.55,132.89.46,124.36.94c-4.27.24-8.42,1.27-12.61,2-2.87.49-5.72,1.12-8.57,1.68l-.25-.08a.64.64,0,0,1,.16-.47c2.67-.44,5.27-1.2,8-1.57.79-.11,1.59-.19,2.39-.27a3.44,3.44,0,0,0,.44-.41c1.54.2,3-.62,4.51-.49a4.27,4.27,0,0,0,.44-.41c2.49-.26,5-.53,7.48-.77Q127.65,0,129,0c5,0,10.07-.15,15.05.86a9.7,9.7,0,0,0,1.79,0,2.27,2.27,0,0,0,.43.39c1.25-.12,2.39.48,3.61.51.07.1.13.2.2.29Z"/><path class="cls-7" d="M63.92,120.77c0,3.22,0,6.44,0,9.66a1.55,1.55,0,0,1-.5.52l-1.08,0c-.86-1.12-.32-2.4-.39-3.6-.1-1.78,0-3.58,0-5.36C61.91,120.36,62.51,119.91,63.92,120.77Z"/><path class="cls-5" d="M34.35,107.47c3.57.28,7,1.17,10.59,1.65l15.05,2a6.71,6.71,0,0,1,2.18.43c1.13,2.31.78,4.67.26,7a.5.5,0,0,1-.72.2c0-1.7,0-3.41,0-5.11,0-.58.11-1.21-.45-1.64a2.79,2.79,0,0,0-.44-.4l-3.16,0a2.79,2.79,0,0,0-.44-.4l-3.16,0a3.44,3.44,0,0,0-.44-.41c-2.12.15-4.17-.7-6.3-.49a3.31,3.31,0,0,0-.44-.4l-2.26,0a2.79,2.79,0,0,0-.44-.4l-2.26,0a2.79,2.79,0,0,0-.44-.4c-1.6-.22-3.22-.36-4.79-.7a12.49,12.49,0,0,0-2.41-.25l-.2-.3Z"/><path class="cls-8" d="M63.92,160.83V170c-1.18.74-2,.65-2-1,0-2.4,0-4.79,0-7.19C62,160.17,62.74,160.09,63.92,160.83Z"/><path class="cls-5" d="M6.05,72.12A64.23,64.23,0,0,0,1.5,82.54C.39,86.15.31,89.72,2.44,93.06l-.07.26a.65.65,0,0,1-.48-.16A10.72,10.72,0,0,1,.53,83.63,54.87,54.87,0,0,1,5.49,72,.62.62,0,0,1,6,71.86C6,72,6,72,6.05,72.12Z"/><path class="cls-9" d="M62.35,172l1.11,0a1.79,1.79,0,0,1,.48.51v7a1.07,1.07,0,0,1-.54.51h-1A16.13,16.13,0,0,1,62.35,172Z"/><path class="cls-10" d="M63.46,158.85l-.21,0-.19.07c-.33.22-.63.26-.85-.15l.07.09c-.74-2.29-.32-4.65-.27-7,0-1.39,1.1-1,1.91-.49l0,7A1.79,1.79,0,0,1,63.46,158.85Z"/><path class="cls-11" d="M227.41,122h0c.9.48.43,1.32.45,2,.06,2.23,0,4.46,0,6.69,0,.66.09,1.42-.94,1.39-.88,0-.84-.68-.84-1.28,0-2.45,0-4.9,0-7.35C226.05,122.4,226.66,122.19,227.41,122Z"/><path class="cls-12" d="M227.36,149.91h.11c.92,2.81.24,5.69.36,8.54,0,.58-.52.64-1,.61s-.73-.46-.71-.94c.1-2.6-.29-5.21.23-7.79h0C226.61,150,227,150.09,227.36,149.91Z"/><path class="cls-4" d="M227.61,171.38c-1.37.64-1.69.56-1.71-.62-.06-3.14,0-6.29,0-9.43a1,1,0,0,1,1.09-1.1c.58,0,1.11.17,1.11.83a82.32,82.32,0,0,1-.16,10.06c0,.11-.22.19-.34.28-1.2-2.8-.14-5.73-.63-8.41,0,2,0,4.18,0,6.35C227,170.08,226.89,170.85,227.61,171.38Z"/><path class="cls-4" d="M227.6,205.65c0-6.64,0-13.28.09-19.92,0-1.07-.48-1.26-1.35-1.15,1.43-.62,1.67-.55,1.76.61.07.82,0,1.64,0,2.47,0,5.23,0,10.47,0,15.71C228.1,204.14,228.45,205,227.6,205.65Z"/><path class="cls-4" d="M227.41,122c-.69.29-1.29.55-1.26,1.54.07,2.46,0,4.92,0,7.38,0,.43,0,.93.62,1s.9-.39.87-1c-.12-3,.31-6-.25-8.9.64.19.7.7.7,1.24,0,2.54,0,5.08,0,7.61,0,.85-.14,1.49-1.2,1.45s-1-.65-1-1.38c0-2.54,0-5.08,0-7.62C225.85,122.16,226.43,121.88,227.41,122Z"/><path class="cls-5" d="M16.82,59.51c-3.69,4.12-7.36,8.25-10.77,12.61L5.91,72a.25.25,0,0,1-.08-.29c0-.08.07-.13.1-.13A61.64,61.64,0,0,1,13,63c1.12-1.18,1.79-2.77,3.32-3.56C16.51,59.2,16.68,59.24,16.82,59.51Z"/><path class="cls-4" d="M226.36,173.32c1.42-.6,1.71-.53,1.74.64.05,2.7,0,5.39,0,8.08a1,1,0,0,1-1.09,1.1c-.58,0-1.1-.16-1.1-.83a64.91,64.91,0,0,1,.14-8.71c0-.11.21-.2.32-.3,1.18,2.37.23,4.92.65,7.38,0-1.8,0-3.57,0-5.34C227,174.6,227.07,173.83,226.36,173.32Z"/><path class="cls-5" d="M18.12,103c3.47,1,6.94,2.09,10.43,3.08,1.92.54,3.87,1,5.8,1.43l-.12.13a.26.26,0,0,1-.39,0c-3.36-.15-6.47-1.37-9.68-2.18-1.5-.38-2.95-1-4.42-1.44C19.11,103.78,18.44,103.65,18.12,103Z"/><path class="cls-4" d="M226.35,150.32a63.56,63.56,0,0,0-.17,7.56c0,.44,0,.93.62,1s.9-.38.87-1c-.1-2.66.27-5.34-.2-8,.62.21.65.73.65,1.27,0,2.22,0,4.45,0,6.68,0,.82-.12,1.48-1.18,1.45s-1.07-.61-1.07-1.35c0-2.23,0-4.45,0-6.68A1.09,1.09,0,0,1,226.35,150.32Z"/><path class="cls-5" d="M63.93,132.91c-1.66-.3-1.75-.3-1.74.89,0,5.19-.16,10.38.1,15.57-.6-.26-.58-.79-.58-1.32,0-4.74,0-9.49,0-14.24C61.74,132.13,62.27,131.94,63.93,132.91Z"/><path class="cls-13" d="M227.54,114.34a36,36,0,0,1,.15,5.09,1.45,1.45,0,0,1-.57,1.14l-.19,0-.16.1c-.23.22-.38.18-.45-.13,0-1.65,0-3.3-.12-4.94C226.16,114.56,226.59,114.18,227.54,114.34Z"/><path class="cls-4" d="M226.3,133.66c1.53-.51,1.78-.46,1.79.69,0,4.47,0,9,0,13.42,0,.25-.27.5-.42.75a3.5,3.5,0,0,0-.27-.28c-.8-3.74-.16-7.52-.38-11.27-.06-1,.31-2.1-.53-3Z"/><path class="cls-5" d="M225.33,194.31c.3-.38.67-.47.79.05a8.12,8.12,0,0,1,.06,1.78c0,2.77,0,5.53,0,8.29,0,1,.34,1.6,1.48,1.16-1.47.66-1.74.57-1.77-.78-.06-2.21,0-4.42,0-6.63,0-1.11-.05-2.21-.08-3.32a.92.92,0,0,0-.4-.3Z"/><path class="cls-4" d="M221.86,143.6c-.92,1-2.29,1-3.46,1.29a31.57,31.57,0,0,1-7.78,1.41l-.11-.14c.05-.21.1-.49.32-.55,3.55-.9,7-2.22,10.76-2.27Z"/><path class="cls-5" d="M63.92,160.83c-1.69-.22-1.73-.22-1.75,1.2q0,3.36,0,6.72c0,1.41.06,1.41,1.75,1.2-1.63,1-2.16.8-2.2-.89q-.06-3.67,0-7.35C61.76,160,62.29,159.83,63.92,160.83Z"/><path class="cls-5" d="M62.42,181.4a17.08,17.08,0,0,0-.21,4.68c0,2.92,0,5.84,0,8.75-.57-.28-.55-.81-.55-1.33V182.85C61.71,182.26,61.66,181.63,62.42,181.4Z"/><path class="cls-5" d="M63.92,120.77c-1.7-.2-1.77-.2-1.74,1.21,0,3-.25,6,.18,8.94-.63-.21-.65-.74-.65-1.27,0-2.67,0-5.33,0-8C61.76,120,62.29,119.79,63.92,120.77Z"/><path class="cls-4" d="M227.66,148.52c-1.56.52-1.73.45-1.78-.92s-.08-3,0-4.45c.08-1.24-.59-1.09-1.36-.92,0-.11-.07-.22-.11-.33,1-1.94,1.06-2,2.26-1.55.51,1.83.15,3.7.28,5.54.07.86-.21,1.82.6,2.51Z"/><path class="cls-5" d="M63.92,151.37c-1.7-.2-1.75-.2-1.75,1.2,0,2.09.07,4.17.1,6.26a1.05,1.05,0,0,1-.55-1.1c0-1.83,0-3.67,0-5.51C61.77,150.57,62.3,150.39,63.92,151.37Z"/><path class="cls-5" d="M28.5,48.68c-1.82,1.65-3.31,3.66-5.42,5A24.74,24.74,0,0,1,28,48.6l.29-.19Z"/><path class="cls-5" d="M82.9,11.77,76.15,15c1-1.65,2.89-1.85,4.37-2.71a8.84,8.84,0,0,1,1.89-.58l.28-.17Z"/><path class="cls-4" d="M222.69,140.82c.67-.75,1-1.32-.26-1.95-1.1-.54-2.44-.61-3.33-1.6l.28-.24a5.15,5.15,0,0,1,4.29,1.39c1.25,1,1,1.9-.69,2.62A3.15,3.15,0,0,1,222.69,140.82Z"/><path class="cls-5" d="M156.58,4.61,149.8,2.34l.11-.12a.26.26,0,0,1,.39,0C152.58,2.54,154.81,3,156.58,4.61Z"/><path class="cls-5" d="M62.35,172a34.15,34.15,0,0,0,0,8,.84.84,0,0,1-.61-.82q0-3.18,0-6.38A.85.85,0,0,1,62.35,172Z"/><path class="cls-5" d="M46.51,34.29a33.27,33.27,0,0,1-5,3.61l-.24-.08a.72.72,0,0,1,.16-.46C43.12,36.29,44.48,34.74,46.51,34.29Z"/><path class="cls-5" d="M55.51,27.54a25.08,25.08,0,0,1-5,3.63A9.55,9.55,0,0,1,55.51,27.54Z"/><path class="cls-4" d="M225,137.69c1-.09.84-.83.9-1.49.08-.85-.33-1.8.42-2.54l.06,0c1,1.72.63,3.53.36,5.34-1.52,1.36-1.5-.19-1.87-1C224.9,137.93,224.94,137.81,225,137.69Z"/><path class="cls-5" d="M73,16.74a20.57,20.57,0,0,1-5,2.73c.15-.87.93-1,1.55-1.36,1-.51,1.93-1,2.9-1.46l.3-.19Z"/><path class="cls-5" d="M103.18,4.61a28.71,28.71,0,0,1-5.86,1.78l-.24-.08a.67.67,0,0,1,.16-.45c1.91-.05,3.51-1.29,5.41-1.38a.27.27,0,0,1,.4,0Z"/><path class="cls-4" d="M238.93,27.48c-1.22,1.34-2.2,3-4,3.62,0-.1-.08-.2-.13-.3a6.91,6.91,0,0,1,3.56-3.58.93.93,0,0,1,.59.23Z"/><path class="cls-5" d="M23.12,53.63a26.1,26.1,0,0,1-4.07,3.65C20.11,55.74,21.12,54.13,23.12,53.63Z"/><path class="cls-5" d="M32.58,45.1a16.49,16.49,0,0,1-3.65,3.17C29.88,46.9,30.71,45.4,32.58,45.1Z"/><path class="cls-5" d="M9.59,99.35a25.92,25.92,0,0,1,4.52,2.29A5.65,5.65,0,0,1,9.59,99.35Z"/><path class="cls-4" d="M168.71,10.92a11.48,11.48,0,0,1-4.09-2.29C166.21,9,167.74,9.46,168.71,10.92Z"/><path class="cls-5" d="M2.44,93.06a11.71,11.71,0,0,1,2.71,3.2,7.38,7.38,0,0,1-2.81-2.65.24.24,0,0,1-.12-.27c0-.09.06-.14.09-.14Z"/><path class="cls-5" d="M59.07,25.28a11.76,11.76,0,0,1-3.6,2.3c.67-1.27,2-1.73,3.09-2.38l.29-.19Z"/><path class="cls-4" d="M232.63,33.31A11,11,0,0,1,229.94,36l0,0a.86.86,0,0,1-.23-.57c.51-1.22,1.19-2.24,2.7-2.31Z"/><path class="cls-5" d="M161.06,6.82a18.63,18.63,0,0,1-3.6-1.8l.21-.26.28.17a14.56,14.56,0,0,1,3.16,1.38l.19.28Z"/><path class="cls-4" d="M219.13,142.2a8.83,8.83,0,0,1,3.56-1.38l.09.11a2.5,2.5,0,0,1-3.57,1.39Z"/><path class="cls-5" d="M38,40.58a6.89,6.89,0,0,1-2.73,2.29C35.82,41.73,36.52,40.71,38,40.58Z"/><path class="cls-5" d="M35.27,42.84a8.16,8.16,0,0,1-2.73,2.29C33.12,44,33.81,43,35.27,42.84Z"/><path class="cls-5" d="M76.19,14.93A9.49,9.49,0,0,1,73,16.74l-.11-.12a.3.3,0,0,1,0-.41C74,15.79,74.94,14.92,76.19,14.93Z"/><path class="cls-5" d="M93.27,7.73a9.83,9.83,0,0,1-3.63,1.34l-.23-.24.19-.27C90.85,8.43,91.93,7.52,93.27,7.73Z"/><path class="cls-5" d="M88.32,9.53a10.32,10.32,0,0,1-3.64,1.38A4.4,4.4,0,0,1,88.32,9.53Z"/><path class="cls-4" d="M220.47,135.45c1.17.2,2.42.19,3.19,1.33l-.24.21a3,3,0,0,1-3-1.23C220.42,135.66,220.45,135.55,220.47,135.45Z"/><path class="cls-5" d="M63.13,22.58A7.83,7.83,0,0,1,60.4,24.4c.33-1.11,1.34-1.43,2.21-1.9l.3-.19Z"/><path class="cls-4" d="M219.1,137.27c-.91-.41-.68-1-.26-1.62s1-.91,1.63-.2l-.05.09a16.21,16.21,0,0,1-1.22,1.64Z"/><path class="cls-5" d="M62.66,195.17c.92-.37,1.84-1.14,2.73.05l-.12.14a.29.29,0,0,1-.41,0,2.74,2.74,0,0,0-1.41.21C63.05,195.74,62.79,195.57,62.66,195.17Z"/><path class="cls-4" d="M65.27,137.23A3.1,3.1,0,0,1,68,135.9c0,.1,0,.2.08.29a2.55,2.55,0,0,1-2.59,1.25Z"/><path class="cls-5" d="M222.62,195.66l2.71-1.35.13.16a.26.26,0,0,1,0,.39,7.93,7.93,0,0,1-2.25.93.26.26,0,0,1-.4,0Z"/><path class="cls-5" d="M164.66,8.66A9.45,9.45,0,0,1,162,7.26l.21-.25.27.17C163.36,7.41,164.31,7.59,164.66,8.66Z"/><path class="cls-4" d="M224.53,142.23a3,3,0,0,1-2.67,1.36l-.11-.12a2,2,0,0,1,2.72-1.33Z"/><path class="cls-5" d="M68.1,19.44a5,5,0,0,1-2.3,1.38A2.19,2.19,0,0,1,68.1,19.44Z"/><path class="cls-5" d="M41.55,37.9a3.39,3.39,0,0,1-1.84,1.35A2.31,2.31,0,0,1,41,37.81a.27.27,0,0,1,.41,0Z"/><path class="cls-5" d="M48.31,32.93a3.18,3.18,0,0,1-1.84,1.39A1.71,1.71,0,0,1,48.31,32.93Z"/><path class="cls-4" d="M61.71,118.81l.53,0a1.23,1.23,0,0,1,1.32-.31.77.77,0,0,0,.38-.17C63.36,119.46,63.11,119.52,61.71,118.81Z"/><path class="cls-5" d="M50.07,31.57A3.46,3.46,0,0,1,48.27,33a2.3,2.3,0,0,1,1.3-1.46l.28-.19Z"/><path class="cls-5" d="M39.75,39.22a3.61,3.61,0,0,1-1.83,1.39A1.74,1.74,0,0,1,39.75,39.22Z"/><path class="cls-4" d="M173.21,14.06a3.65,3.65,0,0,1-1.86-1.37C172.38,12.59,172.89,13.2,173.21,14.06Z"/><path class="cls-5" d="M84.73,10.88a2.85,2.85,0,0,1-1.83.89l-.09-.1a.3.3,0,0,1,0-.41A2.59,2.59,0,0,1,84.73,10.88Z"/><path class="cls-4" d="M64.4,138.59c-.52-.11-.55-.46-.44-.88l1.31-.48.1.1C65.45,138.06,65.05,138.42,64.4,138.59Z"/><path class="cls-4" d="M223.66,136.78a1.47,1.47,0,0,1,1.32.91l-.07.1c-.87.33-1.27,0-1.36-.89Z"/><path class="cls-5" d="M65.85,20.78a1.93,1.93,0,0,1-1.4.93A1.13,1.13,0,0,1,65.85,20.78Z"/><path class="cls-4" d="M171.4,12.73a2,2,0,0,1-1.38-1A1.11,1.11,0,0,1,171.4,12.73Z"/><path class="cls-5" d="M64.5,21.68a1.94,1.94,0,0,1-1.37.9L63,22.47a.3.3,0,0,1,0-.41A2.23,2.23,0,0,1,64.5,21.68Z"/><path class="cls-4" d="M170.06,11.81a2,2,0,0,1-1.39-.93A1.13,1.13,0,0,1,170.06,11.81Z"/><path class="cls-5" d="M60.44,24.37a1.91,1.91,0,0,1-1.37.91l-.1-.11a.31.31,0,0,1,0-.41A2.33,2.33,0,0,1,60.44,24.37Z"/><path class="cls-5" d="M5.55,96.65a2.6,2.6,0,0,1,1.36.93,2.17,2.17,0,0,1-.07.24.54.54,0,0,1-.45-.15A1.24,1.24,0,0,1,5.55,96.65Z"/><path class="cls-5" d="M6.91,97.58a1.79,1.79,0,0,1,1.38.89c-.55.16-1-.16-1.45-.36a.29.29,0,0,1-.11-.26c0-.1,0-.15.07-.15Z"/><path class="cls-5" d="M8.25,98.44a2,2,0,0,1,1.38.94A1.08,1.08,0,0,1,8.25,98.44Z"/><path class="cls-5" d="M97.32,6.39A1.77,1.77,0,0,1,96,6.83l-.22-.08a.72.72,0,0,1,.16-.44l.91,0a.27.27,0,0,1,.4,0Z"/><path class="cls-5" d="M96,6.83a1.72,1.72,0,0,1-1.33.46l-.24-.07a.68.68,0,0,1,.16-.46l.91,0a.26.26,0,0,1,.4,0Z"/><path class="cls-5" d="M16.82,102.52a1.58,1.58,0,0,1,1.34.48l-1.43.06-.19-.31Z"/><path class="cls-5" d="M15.42,102.07a1.79,1.79,0,0,1,1.4.45l-.12.13a.27.27,0,0,1-.41,0C15.9,102.6,15.54,102.52,15.42,102.07Z"/><path class="cls-5" d="M14.07,101.61a1.64,1.64,0,0,1,1.39.49C14.92,102.14,14.35,102.29,14.07,101.61Z"/><path class="cls-5" d="M94.62,7.29a1.74,1.74,0,0,1-1.39.47c.11-.45.48-.54.87-.57a.25.25,0,0,1,.4,0Z"/><path class="cls-4" d="M68,135.9c.31-.52.84-.41,1.31-.47l.12.14c-.24.78-.75.75-1.35.44Z"/><path class="cls-5" d="M89.64,9.07a1.67,1.67,0,0,1-1.36.49c.12-.45.48-.54.87-.58a.27.27,0,0,1,.4,0Z"/><path class="cls-4" d="M200.24,200.26c.32-.52.84-.44,1.34-.43C201.25,200.35,200.72,200.24,200.24,200.26Z"/><path class="cls-4" d="M227.36,149.91l-1,.42A.91.91,0,0,1,227.36,149.91Z"/><path class="cls-5" d="M62.23,149.28l.83.15C62.69,149.88,62.41,149.88,62.23,149.28Z"/><path class="cls-4" d="M62.21,158.74l.85.15C62.69,159.34,62.4,159.32,62.21,158.74Z"/><path class="cls-5" d="M157.46,5a1,1,0,0,1-.93-.44l1-.07a.29.29,0,0,1,.11.26c0,.1,0,.15-.07.15Z"/><path class="cls-5" d="M162,7.26a1,1,0,0,1-.91-.44l.09-.1a.26.26,0,0,1,.4,0l.46,0a.28.28,0,0,1,.1.26q0,.15-.06.15Z"/><path class="cls-4" d="M173.37,14.43l-.22-.4a.86.86,0,0,1,1,.38l0,0c-.14.18-.29.19-.44,0l-.15-.06Z"/><path class="cls-4" d="M226.32,120.5l.45.13c-.34.45-.63.45-.87-.08A.74.74,0,0,0,226.32,120.5Z"/><path class="cls-4" d="M63.4,180l.54-.51A.67.67,0,0,1,63.4,180Z"/><path class="cls-4" d="M63.44,131l.5-.52A.73.73,0,0,1,63.44,131Z"/><path class="cls-4" d="M63.92,182l-.54-.57A.69.69,0,0,1,63.92,182Z"/><path class="cls-4" d="M60.82,111.66l.44.4Z"/><path class="cls-4" d="M57.22,111.21l.44.4Z"/><path class="cls-4" d="M53.62,110.75l.44.41Z"/><path class="cls-4" d="M46.88,109.86l.44.4Z"/><path class="cls-4" d="M44.18,109.41l.44.4Z"/><path class="cls-4" d="M41.48,109l.44.4Z"/><path class="cls-4" d="M33.84,107.61a1,1,0,0,1,.39,0,2.87,2.87,0,0,1,.05.41Z"/><path class="cls-4" d="M16.29,102.64a1.88,1.88,0,0,1,.41,0,2.83,2.83,0,0,1,0,.41Z"/><path class="cls-4" d="M6.8,97.7a2.85,2.85,0,0,1,0,.41l-.45-.44A2.73,2.73,0,0,1,6.8,97.7Z"/><path class="cls-4" d="M225.42,194.86c0-.13,0-.26,0-.39a.38.38,0,0,1,.33.39Z"/><path class="cls-5" d="M62.21,194.76a.69.69,0,0,1,.52.48A.55.55,0,0,1,62.21,194.76Z"/><path class="cls-4" d="M64.86,195.34a1.41,1.41,0,0,1,.41,0c0,.13,0,.27,0,.4Z"/><path class="cls-5" d="M5.09,96.21a.57.57,0,0,1,.5.5A.57.57,0,0,1,5.09,96.21Z"/><path class="cls-4" d="M222.77,195.8a1.77,1.77,0,0,1,.4,0l-.45.42A2.87,2.87,0,0,1,222.77,195.8Z"/><path class="cls-4" d="M67.11,196.24l.45.42Z"/><path class="cls-4" d="M221.38,196.66l.44-.41Z"/><path class="cls-4" d="M2.31,93.2a2.73,2.73,0,0,1,0,.41l-.45-.45Z"/><path class="cls-4" d="M72.51,197.61l.44.4Z"/><path class="cls-4" d="M216,198l.44-.4Z"/><path class="cls-4" d="M74.76,198.05l.44.41Z"/><path class="cls-4" d="M213.73,198.46l.44-.4Z"/><path class="cls-4" d="M77.46,198.51l.44.4Z"/><path class="cls-4" d="M211,198.91l.44-.4Z"/><path class="cls-4" d="M80.61,199l.44.39Z"/><path class="cls-4" d="M207.88,199.36l.44-.4Z"/><path class="cls-4" d="M204.28,199.81l.44-.39Z"/><path class="cls-4" d="M5.93,71.56a3,3,0,0,1,0,.42,3,3,0,0,1-.42,0Z"/><path class="cls-4" d="M16.82,59.51l-.53-.1.44-.45.19.11a1.11,1.11,0,0,0-.12.43Z"/><path class="cls-4" d="M16.73,59l.45-.45.19.11a.8.8,0,0,0-.12.43l0,0a.49.49,0,0,1-.53-.07Z"/><path class="cls-4" d="M17.18,58.51l.45-.45.19.11a.79.79,0,0,0-.12.42h0a.49.49,0,0,1-.53-.07Z"/><path class="cls-5" d="M18.63,57.69a.53.53,0,0,1-.45.45c-.29-.13-.32-.31-.1-.53Z"/><path class="cls-4" d="M18.08,57.61c0,.18.06.36.1.53h0a.47.47,0,0,1-.53-.07h0Z"/><path class="cls-5" d="M19.1,57.23a.56.56,0,0,1-.51.48A.55.55,0,0,1,19.1,57.23Z"/><path class="cls-4" d="M63.94,172.43l-.48-.51A.72.72,0,0,1,63.94,172.43Z"/><path class="cls-5" d="M29,48.24a.54.54,0,0,1-.47.44l-.11-.11a.29.29,0,0,1,0-.41Z"/><path class="cls-4" d="M28.43,48.16c0,.14,0,.28,0,.41a2.83,2.83,0,0,1-.41,0Z"/><path class="cls-4" d="M41.43,37.77a2.71,2.71,0,0,1-.41,0l.45-.45A1.84,1.84,0,0,1,41.43,37.77Z"/><path class="cls-4" d="M233.08,32.87l-.45.44-.11-.11a.55.55,0,0,1,.3-.42Z"/><path class="cls-4" d="M233.54,32.42l-.46.45-.1-.1a.53.53,0,0,1,.29-.44Z"/><path class="cls-4" d="M234,32l-.45.45-.09-.08a.47.47,0,0,1,.27-.45Z"/><path class="cls-4" d="M234.45,31.53,234,32l-.08-.06a.5.5,0,0,1,.26-.47Z"/><path class="cls-4" d="M234.89,31.1l-.44.43-.07-.06c0-.35.1-.51.47-.43Z"/><path class="cls-5" d="M50.57,31.15a.57.57,0,0,1-.5.42l-.1-.1a.31.31,0,0,1,0-.41Z"/><path class="cls-4" d="M50,31.06a1.84,1.84,0,0,1,0,.41,2.69,2.69,0,0,1-.4,0C49.72,31.36,49.87,31.21,50,31.06Z"/><path class="cls-4" d="M59,24.76a2.71,2.71,0,0,1,0,.41,2.73,2.73,0,0,1-.41,0Z"/><path class="cls-4" d="M63.06,22.06a2.71,2.71,0,0,1,0,.41,2.83,2.83,0,0,1-.41,0Z"/><path class="cls-4" d="M73,16.21a2.73,2.73,0,0,1,0,.41l-.41,0Z"/><path class="cls-4" d="M82.85,11.26a2.85,2.85,0,0,1,0,.41l-.2,0h-.2Z"/><path class="cls-4" d="M89.55,9l-.2,0h-.2l.45-.42A2.87,2.87,0,0,1,89.55,9Z"/><path class="cls-4" d="M162.05,7.17a2.85,2.85,0,0,1,0-.41l.44.42h-.2Z"/><path class="cls-4" d="M94.5,7.17l-.2,0h-.2l.44-.43A1.84,1.84,0,0,1,94.5,7.17Z"/><path class="cls-4" d="M161.55,6.74h-.2l-.2,0a2.85,2.85,0,0,1,0-.41Z"/><path class="cls-4" d="M95.85,6.72l-.2,0h-.2l.44-.42A2.85,2.85,0,0,1,95.85,6.72Z"/><path class="cls-4" d="M97.2,6.27l-.2,0h-.2l.44-.42A2.71,2.71,0,0,1,97.2,6.27Z"/><path class="cls-4" d="M157.55,4.92a2.85,2.85,0,0,1,0-.41l.44.42h-.2Z"/><path class="cls-4" d="M103.05,4.47l-.2,0h-.2l.44-.42A2.71,2.71,0,0,1,103.05,4.47Z"/><path class="cls-4" d="M150.3,2.22l-.2,0-.19,0a2.87,2.87,0,0,1,0-.41Z"/><path class="cls-4" d="M113.88,1.81l-.44.41Z"/><path class="cls-4" d="M146.25,1.3l-.43-.39Z"/><path class="cls-4" d="M118.83.91l-.44.41Z"/><path class="cls-4" d="M63.46,158.85l.48-.51A.71.71,0,0,1,63.46,158.85Z"/><path class="cls-4" d="M63.44,149.39l.49-.53A.67.67,0,0,1,63.44,149.39Z"/><path class="cls-14" d="M132.74,115.27c-2.05-1.12-4.34-1-6.56-1.28l2.52-.2c-1.2-.57-2-1-2.8-1.32l-19.25-8L80.58,93.61,66.49,87.78c-.48-.2-.95-.43-1.45-.59-1.93-.64-2.53-2-2.51-4,.08-9,0-18,0-27a98.47,98.47,0,0,1,9.49-4q23.07-9.37,46.18-18.63,7.91-3.19,15.82-6.36c.34-.14.68-.3.89-.18,0,8.83.27,17.59-.08,26.32-.39,10,0,20.07-.43,30.09-.41,8.91-.2,17.82-.36,26.72,0,1.4-.62,2.74-.09,4.21C134.31,115.3,133.23,115.07,132.74,115.27Z"/><path class="cls-14" d="M201.58,115.64l-34.13,0c0-.9-.07-1.8-.07-2.69V59.44a7,7,0,0,0,0-1.12c-.2-1.13.41-1.46,1.37-1.49.6,0,1.2,0,1.8,0h30.09c.94,0,1.35.51,1.34,1.42,0,.45,0,.9,0,1.34V113A4.73,4.73,0,0,1,201.58,115.64Z"/><path class="cls-15" d="M173.69,14.47a3.17,3.17,0,0,1,.44,0c.76.71,1.71.4,2.57.4q29.7,0,59.42,0c.52,0,1,0,1.57,0,1.59.05,2,.37,2.08,2a48.18,48.18,0,0,1-.86,10.65h-.44a51.53,51.53,0,0,0-6.69-.23c-.95,0-2,.13-2.74-.65H139.87c-3.48,0-3.54,0-3.47-3.5,0-1.59-.55-3.07-.5-4.66.1-3.35-.26-3.08,3-3.08,10.86,0,21.71,0,32.57,0C172.24,15.28,173.34,15.81,173.69,14.47Z"/><path class="cls-16" d="M229,26.57l8,0c.63,0,1.4-.17,1.46.85A30.69,30.69,0,0,0,234.85,31a.57.57,0,0,0-.47.43.59.59,0,0,0-.47.44.57.57,0,0,0-.46.43.61.61,0,0,0-.47.43.55.55,0,0,0-.46.43,10.52,10.52,0,0,0-2.64,2.34.9.9,0,0,1-.45.41A1.4,1.4,0,0,1,229,36a3.1,3.1,0,0,1-.37-1.49C229,31.88,228.85,29.22,229,26.57Z"/><path class="cls-13" d="M63.56,118.47c-.35.49-.87.26-1.32.31,0-2.4-.05-4.8-.07-7.21v-3.81c0-.59.2-1,.89-1s.88.45.88,1a10.41,10.41,0,0,1,0,2.68C63.2,113.11,63.57,115.79,63.56,118.47Z"/><path class="cls-17" d="M63.93,91.68c0,1.12,0,2.24,0,3.37,0,.67-.36,1.2-1.1,1.14s-.65-.7-.65-1.22q0-3.48,0-7c0-.47.06-1,.62-1a.93.93,0,0,1,1.09.89c.07,1.27,0,2.54,0,3.82Z"/><path class="cls-18" d="M62.18,101.48c0-.82,0-1.64,0-2.46a.79.79,0,0,1,.83-.85.76.76,0,0,1,.89.78c0,1.64,0,3.28,0,4.92a.91.91,0,0,1-1.08.88c-.56-.08-.61-.57-.62-1,0-.75,0-1.5,0-2.24Z"/><path class="cls-5" d="M16.74,59l.53.07a.55.55,0,0,1-.47.47Z"/><path class="cls-5" d="M17.19,58.51l.53.07a.54.54,0,0,1-.47.46Z"/><path class="cls-5" d="M17.64,58.06l.53.07a.55.55,0,0,1-.47.46Z"/><path class="cls-19" d="M68.09,136a1.76,1.76,0,0,0,1.35-.44c4.38-1,8.76-1.94,13.22-2.55,7-1,14-1.64,21-2.14,18.1-1.28,36.23-1.57,54.36-1.21a421.69,421.69,0,0,1,47.51,3.12c.74.1,1.47.27,2.2.44a.69.69,0,0,1,.54.84.61.61,0,0,1-.66.49,18.58,18.58,0,0,1-2.24-.14c-11.45-1.47-22.95-2.24-34.48-2.74s-23.07-.52-34.61-.42a446.09,446.09,0,0,0-50.23,2.92,100.87,100.87,0,0,0-15,2.77,17.39,17.39,0,0,0-4.18,1.61c-1.59.93-1.59,1.55,0,2.51a4.79,4.79,0,0,0,1.05.34c2.89,1.52,6.1,2,9.25,2.58a223.71,223.71,0,0,0,24.08,2.87c9.19.71,18.4,1.06,27.61,1.34,9,.28,18,.31,27,.14a455.9,455.9,0,0,0,48.43-3,109.73,109.73,0,0,0,12.61-2.2,6.13,6.13,0,0,0,2.32-.78,6.82,6.82,0,0,0,3.57-1.39c1.67-1.05,1.71-1.47.19-2.37a14.69,14.69,0,0,0-3.77-1.38c-.4-1.14.06-1.65,1.22-1.64a13.19,13.19,0,0,0,3.13,1.36,2.71,2.71,0,0,0,1.36.89c.38.58.66,1.25,1.35,1.58a.54.54,0,0,1,0,.74l-1.78,2-2.72,1.33-11.24,2.69c-3.94.48-7.87,1-11.81,1.43-9.39,1-18.81,1.56-28.24,1.93-15.21.6-30.42.59-45.63.2-10-.26-19.91-.8-29.84-1.73a150.34,150.34,0,0,1-23.3-3.53,22.84,22.84,0,0,1-5.08-1.77c-.84-.45-1.8-.78-2.22-1.78v-2.32c.09-.6.76-.75,1-1.26Z"/><path class="cls-1" d="M229.43,36a.52.52,0,0,1,.45-.41l0,.46Z"/><path class="cls-20" d="M227.61,171.38c-.81.14-1.46.17-1.44-1,.05-2.83,0-5.66,0-8.49,0-.5-.06-1.12.7-1.15,1,0,.77.73.77,1.28,0,3.12,0,6.25-.08,9.38Z"/><path class="cls-20" d="M226.36,173.32c.68,0,1.34-.13,1.32.94,0,2.46,0,4.93,0,7.39,0,.57-.07,1.08-.81,1.07s-.68-.47-.67-.92c.08-2.83-.23-5.67.19-8.5Z"/><path class="cls-20" d="M226.25,140.11c0-.25,0-.49,0-.74a26.23,26.23,0,0,1,.1-5.67c.67,0,1.34-.12,1.32.94-.09,4.59.13,9.17-.12,13.76-.83.18-1.43.16-1.39-1C226.24,145,226.23,142.55,226.25,140.11Z"/></g></g></svg>