<svg xmlns="http://www.w3.org/2000/svg" viewBox="0 0 200.34 169.38"><defs><style>.cls-1{fill:#f0deae;}.cls-2{fill:#c27b3d;}.cls-3{fill:#e9bf7b;}.cls-4{fill:#fdfdfd;}.cls-5{fill:#c98a53;}.cls-6{fill:#e9c07c;}.cls-7{fill:#c27c3e;}.cls-8{fill:#c37c3e;}.cls-9{fill:#c37d3f;}.cls-10{fill:#c47e41;}.cls-11{fill:#c88648;}.cls-12{fill:#e9bf7c;}.cls-13{fill:#c68345;}.cls-14{fill:#ddb273;}.cls-15{fill:#c8874f;}.cls-16{fill:#c57f41;}.cls-17{fill:#c58041;}.cls-18{fill:#deb773;}</style></defs><title>church_2</title><g id="Layer_2" data-name="Layer 2"><g id="Layer_1-2" data-name="Layer 1"><path class="cls-1" d="M199.81,155.42v7.16a6,6,0,0,1,0,3.6h0c-.26.24-.17.67-.47.89h0a4.23,4.23,0,0,1-2.41.23l-37.94,0a4.9,4.9,0,0,0-2.43.2h-6.23a3.62,3.62,0,0,0-2-.21q-28.86,0-57.73,0a3.34,3.34,0,0,0-2,.23h0c-.43.34,0,1-.5,1.33H88l-.2,0a24.82,24.82,0,0,1-7.2,0l-1.3,0a2.24,2.24,0,0,1-.45-.68c.11-5.66-.52-11.32-.27-17a4.86,4.86,0,0,1,.59-2.8c.88-.95,2.06-.73,3.16-.77,2.37-.09,4.76.19,7.25-.25-.26-1.25-1.19-1.53-1.92-1.93-2.17-1.19-4.23-2.57-6.41-3.72a4,4,0,0,1-2.17-3.18,41.28,41.28,0,0,1-.39-7.61c0-1.53-.4-2.43-2.14-2.4-2,0-2.5.44-2.57,2.48,0,1.13,0,2.25,0,3.37-.1,2.35-.71,2.75-2.72,1.6-3-1.72-6-3.42-9-5.17-5.24-3.08-5.23-3.1-10.25.24-7.56,5-15.11,10-22.56,15.19-.64.45-1.56.69-1.58,1.72a3.08,3.08,0,0,1,1,1.35c.43,5.38.16,10.77.15,16.16a2.33,2.33,0,0,1-.58,1.66,134.19,134.19,0,0,1-14,0c-1-1.33-.68-2.86-.57-4.32a140.28,140.28,0,0,0,0-19.45c-.37-6.11-.14-12.24-.09-18.36a3.27,3.27,0,0,1,.69-2.09,2.87,2.87,0,0,1,2.48-.71c9.19.33,18.37,1,27.57,1.09,3.2,0,6.41.42,9.63.34.66,0,1.51.17,1.83-.53s-.34-1.37-.79-2A3.23,3.23,0,0,0,53,120.08a32.57,32.57,0,0,0-5.58-.45c-7.63-.09-15.23-.69-22.85-1.1-2.58-.57-5.2-.17-7.8-.28s-3.07-.51-3.06-3c0-5.13-.34-10.27.22-15.4.46-1.16,1.45-1.14,2.45-1,9.9,1,19.85,1.46,29.77,2.34,2.16.2,4.33.2,6.49.45a4.66,4.66,0,0,1,4,2.47c1.39,2.72,3.7,3.64,6.6,3.86,11.79.94,23.57,1.92,35.36,2.83,9.11.69,18.22,1.28,27.32,2.06,1.3.11,3.13,1,3.66-1.34.43-8.34.07-16.67.2-25a8,8,0,0,1,.42-3.73c.79-.91,1.8-.57,2.73-.45q16.35,2.11,32.74,3.89c4.39.47,8.76,1,13.14,1.54a4.37,4.37,0,0,1,2.34.65c.51.35.43.94.61,1.43l0,1.77c.49,4,.08,8.09.23,12.14,0,.87-.24,1.78.33,2.58-.52,3.72-.26,7.46-.34,11.19,0,1.78.7,2.45,2.48,2.68,4.25.54,8.54.15,12.77.85.8.13,1.67,0,2.25.8.12,10.4,0,20.81.06,31.21A4.79,4.79,0,0,0,199.81,155.42Z"/><path class="cls-2" d="M130,111.8c.61,1.65.57,1.82-.89,1.76-3.36-.12-6.74-.2-10.07-.6-2.61-.32-5.22-.35-7.83-.62-5-.54-10.14-.69-15.21-1.08-6.48-.51-13-1.12-19.43-1.66-4.17-.35-8.35-.65-12.52-1-1.42-.12-2.82-.34-4.23-.47a2.76,2.76,0,0,1-2-1.33c-.84-1.14-1.67-2.3-2.43-3.5a1.89,1.89,0,0,0-1.6-1c-3.58-.25-7.15-.58-10.73-.82-7.76-.53-15.52-1-23.26-1.76a27.74,27.74,0,0,1-4.45-.45,1,1,0,0,0-1,.31c-3.1,2.65-6.18,5.33-10.36,6.2-1.36-1.51.31-1.82,1-2.52H5a1,1,0,0,1,.52-.43l0,0c.15-.38.63-.27.85-.55h0a1.75,1.75,0,0,1,.52-.42l0,0A5.21,5.21,0,0,1,8.17,101l0,0a8.13,8.13,0,0,0,1.35-1.27c1.39-1,2.91-1.89,4.21-3.06,1.81-1.34,3.74-2.49,5.54-3.83a3.72,3.72,0,0,1,5.13.1c2.35,2.15,5.09,2.32,8.09,2.51,5.29.34,10.62.05,15.89.72,1.12.15,2.25,0,3.37.09,1.53.07,2.13-.61,2.14-2.14,0-1.27-.3-2.81,1.51-3.31.9.13,1.83-.2,2.7.22l.8.05c1,.51,2.21-.12,3.24.39l.81.06c1,.51,2.21-.13,3.25.4L67,92c1,.51,2.22-.14,3.26.41l.77,0c1.05.5,2.24-.16,3.28.41l.74,0c.91.45,1.95-.1,2.86.39l.78.05c1,.51,2.24-.15,3.27.42l.74,0c.91.45,2-.1,2.86.39l.78,0c1,.51,2.23-.14,3.27.42l.74,0c.91.45,2-.1,2.85.38l.8.06c.89.41,1.85,0,2.76.26,1.7.71,3.46,0,5.24.25A92.12,92.12,0,0,0,112.2,96.8a6.88,6.88,0,0,1,4.11,1.6c4.42,3.58,8.24,7.81,12.53,11.54A3.56,3.56,0,0,1,130,111.8Z"/><path class="cls-1" d="M8.58,66.33V65c.11-.1.15-.2.1-.29s-.08-.14-.13-.14l0,0a.7.7,0,0,1,0-.7c13.38-10.54,33.18-10.5,45.58.09.4.77-.21,1.68.33,2.43a1.48,1.48,0,0,0,0,.42c.5,3,.08,5.92.24,8.87,0,1-.23,1.93.21,2.86v1.31c.47,2.2.17,4.43.17,6.64-1.63.9-2.33-.16-2.84-1.42A6.24,6.24,0,0,1,52,82.62c0-3.15,0-6.29,0-9.44a10,10,0,0,0-.21-2.68c-.25-1-.58-2.08-1.71-2.1-1.38,0-1.13,1.33-1.33,2.21a12.43,12.43,0,0,0-.11,4.9,27.06,27.06,0,0,1,.14,5.83c0,.83-.17,1.89-1.16,1.93a15,15,0,0,1-5.78-.44c-1.2-.43-1.1-1.71-.94-2.74.53-3.58.22-7.17.3-10.76A7,7,0,0,0,41,67.1a3.63,3.63,0,0,0-3.33-2.88,3.15,3.15,0,0,0-3,3.07A68.28,68.28,0,0,0,34,74.44c0,1.79,0,3.59,0,5.39-.06,2.9-.48,3.3-3.46,3.37-.82,0-1.65,0-2.47,0-2.95-.06-3.69-.69-3.87-3.71-.21-3.74,0-7.49-.08-11.23,0-2.81-.88-4.17-2.61-4.23s-3.18,1.66-3.24,4.33c-.07,3.89,0,7.79,0,11.68,0,1.69-.58,2.91-2.5,3.1-2.31.22-3.25-.47-3.26-2.82,0-3.44-.72-6.85-.52-10.3a2.68,2.68,0,0,0-.5-2c-.71.57-.44,1.33-.43,2,.09,4.26,0,8.53.05,12.8,0,1.16.17,2.52-1.69,2.43C9,82.06,9.6,78.89,9,75.76l0-.86c-.48-2.05-.08-4.12-.22-6.18C8.74,67.92,9,67.09,8.58,66.33Z"/><path class="cls-1" d="M124.23,72.62c0-.59,0-1.18,0-1.77-.49-3.77-.08-7.56-.22-11.34a1.61,1.61,0,0,1,1.08-1.31c8.45-4.21,17-4.6,25.68-.7a1.76,1.76,0,0,1,1.11,1c0,5.79,0,11.57,0,17.36a3.93,3.93,0,0,0,.21,2.17h0a.45.45,0,0,1-.12.66,23.43,23.43,0,0,1-13-.09,12.31,12.31,0,0,0-9.1.64c-1.65.73-3.28,2.19-5.38,1.31C124.27,77.92,124.76,75.26,124.23,72.62Z"/><path class="cls-3" d="M14.88,123.05a3.82,3.82,0,0,0-.45,2.15c0,5.84-.31,11.69.1,17.49.4,5.53.16,11,.31,16.56.07,2.61-.65,5.18-.44,7.8a.58.58,0,0,1-.88,0l-.19,0-.2,0c-.55-.46-1.32,0-1.86-.44l-.17-.05-.17,0c-.44-.32-1,0-1.46-.4l-.18-.06-.19,0c-.42-.35-1-.05-1.42-.4l-.2-.05H7.27c-.39-.37-1-.06-1.39-.39l-.21,0H5.44c-.52-.49-1.29,0-1.82-.44l-.18-.05H3.26c-.42-.33-1,0-1.43-.39l-.2-.06H1.44c-.28-.23-.72-.14-.95-.47l0,0c-.51-.75-.25-1.6-.25-2.39,0-11.57,0-23.13,0-34.7-.06-.81.53-1,1.13-1.1,4.06-.78,8-1.89,12-2.91A1.41,1.41,0,0,1,14.88,123.05Z"/><path class="cls-1" d="M19.35,31.29l0-.87a.65.65,0,0,1,.65-.17,4.48,4.48,0,0,0,3-.62c6.84-3,13-1.35,18.92,2.57a1.09,1.09,0,0,1,.57.9q0,7.45,0,14.9a4,4,0,0,0,.21,2.18h0a.42.42,0,0,1-.2.64c-2.86.16-5.61-.65-8.41-1a34.2,34.2,0,0,0-12.23.42c-.79.19-1.6.52-2.36-.09-.12-.19-.3-.37-.3-.59C19.17,43.46,19,37.37,19.35,31.29Z"/><path class="cls-3" d="M130,111.8l-8.68-8.07c-1.75-1.62-3.5-3.25-5.28-4.83a6.19,6.19,0,0,0-3.87-1.53,109.65,109.65,0,0,1-11.3-1.24c-1.39-.23-2.85.33-4.16-.47a.27.27,0,0,1,.45-.16h.93c.55-1,0-2.12.34-3.14,2.13-1.5,4.71-1.86,7.1-2.62,7.35-2.35,14.7-4.66,22-7.06.95-.31,1.95-1,2.95-.09q0,13.2,0,26.4A4.57,4.57,0,0,1,130,111.8Z"/><path class="cls-2" d="M130.54,82.59a3.54,3.54,0,0,0-1.95.37c-6.18,2-12.36,4-18.55,6-3.83,1.23-7.7,2.38-11.55,3.56-.16.13-.28.09-.36-.09h0a.92.92,0,0,1,.07-1.32l0,.06c.2-.36.64-.28.91-.5l0,0c.26-.34.69-.29,1-.45a.25.25,0,0,0,.31-.1c.26-.22.66-.14.9-.39h0c.25-.27.65-.22,1-.42l0,0c.31-.5,1-.08,1.33-.51h0c.27-.26.66-.21,1-.42l0,0c.31-.49,1-.06,1.32-.5h0c.27-.25.66-.2,1-.4l0,0c.32-.5,1-.08,1.33-.51h0c.29-.26.69-.22,1-.41a.33.33,0,0,0,.35-.1c.27-.2.66-.13.9-.38h0c.28-.28.69-.24,1-.41a.28.28,0,0,0,.33-.1c.27-.21.66-.14.91-.38h0c.29-.29.71-.26,1-.41a.25.25,0,0,0,.3-.09c.26-.23.66-.17.93-.39h0c.3-.31.72-.3,1.09-.43a.17.17,0,0,0,.25-.07c.27-.26.67-.19.95-.4l0,0c.32-.49,1-.08,1.34-.5h0c.28-.27.69-.24,1-.41a.28.28,0,0,0,.33-.1c.27-.21.66-.14.91-.38h0c.29-.29.7-.26,1.05-.41a.25.25,0,0,0,.3-.09c.27-.23.66-.16.92-.39h0c.29-.31.71-.29,1.07-.43a.19.19,0,0,0,.27-.09.24.24,0,0,1,.4-.07c2.37-.91,4.75-1.75,7.08-2.74a7.42,7.42,0,0,1,5.19-.4,29.4,29.4,0,0,0,9.46,1.4c1.92-.11,3.82-.67,5.77-.42a.25.25,0,0,1,.43.06l0,0c.27.23.67.16.93.4a.21.21,0,0,0,.28.09c.36.13.77.12,1.07.41h0c.38.39,1,0,1.36.41a.27.27,0,0,0,.33.07c.44.3,1.06,0,1.47.42h0c.51.49,1.32-.08,1.81.49l0,0c.4.35,1,0,1.39.42a.19.19,0,0,0,.28,0c.46.28,1.09,0,1.51.43h0c.39.37,1,0,1.38.41a.23.23,0,0,0,.31.06c.45.3,1.07,0,1.48.42h0c.51.49,1.32-.09,1.81.49l0,0c.4.35,1,0,1.39.41a.18.18,0,0,0,.27.06c.47.27,1.1,0,1.52.43h0c.39.36,1,0,1.38.41a.22.22,0,0,0,.3.06c.46.29,1.07,0,1.49.42h0c.51.48,1.32-.09,1.8.49l0,0c.41.35,1,0,1.4.42a.17.17,0,0,0,.26,0c.48.27,1.1,0,1.53.43h0c.39.35,1,0,1.37.38a.43.43,0,0,0,.41.06c.27.24.68.17.95.41h0c.43.35,1.3.3,1.06,1.22-.2.4-.72.33-1,.66a.42.42,0,0,1-.53,0c-1.52-.8-3.23-.59-4.83-.8-5.92-.78-11.88-1.26-17.81-2-7.92-1-15.87-1.72-23.77-3C133.51,82.88,132,82.76,130.54,82.59Z"/><path class="cls-1" d="M74.33,167.62l-1.88,0a108,108,0,0,1-13.46,0l-3.17,0c-.32.43-.29,1.1-.92,1.32h-.43a2.58,2.58,0,0,1-2.25,0H44.61a1,1,0,0,1-.16-.8c.71-5.29.14-10.6.33-15.9,0-1.25-.22-2.56.64-3.67,2.86-.92,5.78-.46,8.67-.31,1.08,0,1.37,1,1.43,2,0,2.14,0,4.28,0,6.42a14.73,14.73,0,0,0,.05,2.1,3.4,3.4,0,0,1,0,.64,7.26,7.26,0,0,0,0,2.67,2.91,2.91,0,0,1,0,.59,5.58,5.58,0,0,0,0,2.23,2.53,2.53,0,0,1,0,.55c-.11.75.36.95,1,1,5.07.09,10.13,0,15.19.05.91.11,1.93-.13,2.59.78C74.34,167.35,74.33,167.48,74.33,167.62Z"/><path class="cls-2" d="M199.3,121.59c-4.39-.2-8.79-.28-13.16-.72-1-.1-1.94-.05-2.91-.15-1.52-.16-1.8-.45-1.82-2,0-3.5,0-7-.07-10.51a1.77,1.77,0,0,1,1-1.8.89.89,0,0,1,1.29-.07.29.29,0,0,0,.35,0c.57.42,1.35-.07,1.89.44h0c.36.41,1.06,0,1.34.55l-.06,0c.25,0,.37.24.55.36h0c.2.3.65.2.86.5h0a5.55,5.55,0,0,1,1.36,1l0,0a1.23,1.23,0,0,1,.51.45l0,0a2.22,2.22,0,0,1,.47.45h0a2.56,2.56,0,0,1,.46.47l0,0a1.91,1.91,0,0,1,.46.48l0,0a1.23,1.23,0,0,1,.46.5l0,0a6.7,6.7,0,0,1,1,1.35v0a1,1,0,0,1,.42.54l-.05,0c.39.15.28.63.55.86h0a1.51,1.51,0,0,1,.42.52l0,0a5.36,5.36,0,0,1,.95,1.36v0a1.06,1.06,0,0,1,.44.52l-.05,0a11.14,11.14,0,0,1,1.44,1.77h0c.16.14.31.3.45.45h0c.16.14.3.3.46.43h0a2.14,2.14,0,0,0,.44.41l0,0c.19.31.67.19.82.55l0,0a.78.78,0,0,1,.48.49l-.05-.06C200.32,121,199.87,121.32,199.3,121.59Z"/><path class="cls-1" d="M39.18,168l-2.67,0c-1.5-.7-3.23.38-4.69-.61-.23-5.7-.09-11.4-.05-17.11a2.67,2.67,0,0,1,.52-1.67,16.11,16.11,0,0,1,8.55-.13,2,2,0,0,1,.4,1.68c-.06,5.31-.05,10.61,0,15.92a2.45,2.45,0,0,1-.47,1.9A1.5,1.5,0,0,1,39.18,168Z"/><path class="cls-4" d="M88.67,167.53c.6-.68,1.4-.42,2.11-.42q28.73,0,57.44,0c.72,0,1.51-.22,2.13.41Z"/><path class="cls-4" d="M156.58,167.51c.77-.7,1.72-.39,2.58-.39q18.87,0,37.73,0c.82,0,1.65,0,2.47,0-.56.74-1.37.47-2.08.47Q176.93,167.54,156.58,167.51Z"/><path class="cls-4" d="M.46,126.19l.06,37.73c-.7-.47-.49-1.2-.49-1.84q0-17.49,0-35c0-.66-.15-1.37.41-1.91l.22.21A.62.62,0,0,1,.46,126.19Z"/><path class="cls-4" d="M199.3,121.59a1.73,1.73,0,0,0,.42-1.25c.38.18.62.51.45.89a9.94,9.94,0,0,0-.34,4q0,15.11,0,30.21c-.69-.78-.38-1.72-.39-2.59Q199.33,137.2,199.3,121.59Z"/><path class="cls-5" d="M31.69,3.9h.11a.76.76,0,0,1,.58.59v.09a1,1,0,0,1-.42.62h0a2.06,2.06,0,0,1-.48.45l0,0a1.35,1.35,0,0,1-.49.46l0,0a1.35,1.35,0,0,1-.46.49l0,0a9.31,9.31,0,0,0,0,4.2.24.24,0,0,0,0,.32c.53.54,0,1.31.43,1.88h0c.21.2.19.38-.05.54a1.09,1.09,0,0,1-1.39-.65c-.08-1.23,0-2.46,0-3.69,0-.85-.31-1.26-1.2-.84l0,0c-.74.23-1-.05-.77-.76l-.06,0A1.15,1.15,0,0,1,28,7l0,0a1.54,1.54,0,0,1,.48-.47l0,0a1.23,1.23,0,0,1,.49-.47l0,0a2.24,2.24,0,0,1,.41-.51l0-.78c.41-1.16.07-2.36.2-3.52,0-.41-.31-1.14.64-1l0-.08c.59,1,.13,2,.3,3,.07.4-.34,1.16.64,1h0A1.72,1.72,0,0,1,31.69,3.9Z"/><path class="cls-4" d="M152.11,78.05c-.68-.67-.39-1.54-.4-2.32-.06-5.85-.08-11.71-.12-17.56a1.32,1.32,0,0,1-.14-1.5l.23-.23c.41.22.81.51.76,1-.72,6.56-.12,13.14-.32,19.71C152.11,77.46,152.12,77.76,152.11,78.05Z"/><path class="cls-4" d="M9.53,100.13a2.44,2.44,0,0,1-1.39.91,3.68,3.68,0,0,0,.62-3.76,6.48,6.48,0,0,1-.18-2.44c0-2.67.15-5.36-.74-8a.69.69,0,0,1,.28-.78l.38.12a2.1,2.1,0,0,1,1,1.27c.32,3.42.24,6.86.63,10.28A3.18,3.18,0,0,1,9.53,100.13Z"/><path class="cls-4" d="M5,103.25c-.34.35-.69.68-1,1s-.5.85,0,1.24c1.72,2.8,1.07,6,1.55,9a6.1,6.1,0,0,1-.35,3.69l-.3.29c-.13-.26-.39-.53-.37-.77C4.76,115.36,4,113,4,110.63A23.61,23.61,0,0,0,3.41,106C3.08,104.19,3.15,104,5,103.25Z"/><path class="cls-4" d="M19.35,31.29q0,8.09,0,16.18a4.36,4.36,0,0,0,.42,2.61.52.52,0,0,1-.69.25l-.2-.19c0-5.51,0-11,0-16.53C18.94,32.83,18.64,32,19.35,31.29Z"/><path class="cls-4" d="M42.76,50.18c-.57-.44-.43-1.07-.43-1.65q0-7.91,0-15.82l.19-.18.25.1Z"/><path class="cls-4" d="M13.52,167.08l.88,0,14-.05a1.43,1.43,0,0,1,1.66-.11.46.46,0,0,1,.14.62q-7.41,0-14.81,0C14.75,167.52,14,167.71,13.52,167.08Z"/><path class="cls-4" d="M183.62,106.38l-1.29.07c-.7-.56-.49-1.35-.49-2.06q0-6.42,0-12.85c.69.58.44,1.38.44,2.09,0,3.44.09,6.87,0,10.3A2.38,2.38,0,0,0,183.62,106.38Z"/><path class="cls-4" d="M59,167.57H72.45a1.47,1.47,0,0,1-1.23.4h-11A1.44,1.44,0,0,1,59,167.57Z"/><path class="cls-4" d="M124.24,59.12c0,3.91,0,7.82,0,11.73-.69-.58-.43-1.38-.44-2.09,0-2.23,0-4.47,0-6.7a8,8,0,0,0-.35-3.29.82.82,0,0,1,.34-1L124,58A1.13,1.13,0,0,1,124.24,59.12Z"/><path class="cls-4" d="M54.91,78.53c-.56-.54-.4-1.25-.4-1.9,0-3.28,0-6.55,0-9.83.7.58.45,1.38.45,2.09C54.93,72.11,54.91,75.32,54.91,78.53Z"/><path class="cls-4" d="M9,75.76c.55.54.4,1.24.4,1.89,0,2.53,0,5.06,0,7.58.16.63-.25.65-.68.63l-.25-.19A3.9,3.9,0,0,0,9,83.32C9,80.8,9,78.28,9,75.76Z"/><path class="cls-4" d="M28.3,8.27c.48-.5,1.06-1.22,1.22.15s.14,2.95.2,4.43c.22,1-.5,1.58-1.1,2.2l-.28.08c-.71-.7-.07-1.29.28-1.75,1.09-1.42.58-3,.54-4.5C29.15,8.49,28.66,8.38,28.3,8.27Z"/><path class="cls-4" d="M135.46,38c.77-2.23.39-4.53.43-6.8,0-.54-.37-.76-.86-.82,0-.13,0-.27,0-.4,1.37-1.23,1.85-.32,1.9.91a25.17,25.17,0,0,1-.17,6.43,1.31,1.31,0,0,1-.89.75Z"/><path class="cls-4" d="M137.74,28.6c0,1.9,0,3.8,0,5.7a3.9,3.9,0,0,0,.94,2.82l-.35.19c-1.21,0-1.43-.85-1.45-1.82,0-1.34,0-2.68,0-4,.16-1-.4-2.08.54-2.91Z"/><path class="cls-4" d="M8.58,66.33c.57.53.4,1.24.41,1.89,0,2.22,0,4.45,0,6.68-.63-.51-.44-1.22-.44-1.87C8.56,70.8,8.58,68.56,8.58,66.33Z"/><path class="cls-4" d="M124.62,80.64l-.19.08h-.21c0-2.69,0-5.39,0-8.09.5.46.41,1.07.41,1.65C124.64,76.39,124.63,78.52,124.62,80.64Z"/><path class="cls-4" d="M80.57,168.88h7.2a1.08,1.08,0,0,1-1,.43C84.73,169.11,82.6,169.82,80.57,168.88Z"/><path class="cls-4" d="M136.35,22.28c.89-.76,1.17,0,1.31.62a9.74,9.74,0,0,1,.07,2,.87.87,0,0,0,.88,1c0,.11,0,.22.08.33-1,1.17-1.62.87-1.89-.49a17.9,17.9,0,0,0-.4-3.09C136.39,22.5,136.37,22.39,136.35,22.28Z"/><path class="cls-4" d="M54.94,86.55l0-6.71c.63.49.44,1.2.45,1.84,0,1.63,0,3.25,0,4.88l-.24.13Z"/><path class="cls-4" d="M39.19,23.16a11.36,11.36,0,0,1,1.35,5l-.34.07a5.42,5.42,0,0,1-1.26-4.78Z"/><path class="cls-4" d="M10.79,56A5.21,5.21,0,0,1,14,52.83c0,.1.09.19.13.29a5.16,5.16,0,0,1-3,3Z"/><path class="cls-4" d="M39.18,168l1.36,0c1.38-.25,2.76-.46,4,.52l.09.38C42.76,168.8,40.84,169.26,39.18,168Z"/><path class="cls-4" d="M31,13.3a1.27,1.27,0,0,1-.06-.39c2,.66,2.27,1.62,1,3.11l-.23-.19A16.68,16.68,0,0,1,31,13.3Z"/><path class="cls-4" d="M30.15.35c-.73.43-.42,1.15-.49,1.76-.11.92.12,1.88-.35,2.76,0-1.46-.06-2.91,0-4.36C29.35-.07,29.76-.2,30.15.35Z"/><path class="cls-4" d="M135.9,27.67c0-1.25,0-2.5,0-3.75,0-.58-.11-1.2.43-1.64l.06,0c.53,1.8.82,3.58-.11,5.35Z"/><path class="cls-4" d="M32,167.47c1.51.29,3.11-.33,4.56.49-1.65-.17-3.36.44-5-.36l.16-.21Z"/><path class="cls-4" d="M54.46,66.38c-.67-.64-.32-1.46-.41-2.2a3.36,3.36,0,0,1,.65-1.73l.26-.18a1.38,1.38,0,0,1,0,2A3.16,3.16,0,0,0,54.46,66.38Z"/><path class="cls-4" d="M138.64,37.12c.47.26,1,.62.69,1.2-.47.89.09,1.57.25,2.34l-.35.14c-1.63-.92-1.35-2.21-.71-3.58Z"/><path class="cls-4" d="M31,4.27c-.47.55-.75.34-.79-.26-.08-1.24-.1-2.49-.15-3.74.78.5.44,1.29.52,2S30.38,3.7,31,4.27Z"/><path class="cls-4" d="M30.58,10.71a6.56,6.56,0,0,1,0-4.2C30.59,7.91,30.59,9.31,30.58,10.71Z"/><path class="cls-4" d="M125.56,53.76c.18-1.36-.38-2.79.43-4.08l.27.26c.43,1.33.69,2.64-.33,3.85Z"/><path class="cls-4" d="M126,49.68A3.09,3.09,0,0,1,127.36,47a2.43,2.43,0,0,0,.2.25,2.23,2.23,0,0,1-1.45,2.54Z"/><path class="cls-4" d="M56.73,88.39c-.82.52-1.71,1-1.34,2.23l-.35.06a1.56,1.56,0,0,1,0-2.5,1.52,1.52,0,0,1,1.39,0Z"/><path class="cls-4" d="M199.81,166.18v-3.6A3.33,3.33,0,0,1,199.81,166.18Z"/><path class="cls-4" d="M81.92,93.79a6.76,6.76,0,0,1-3.27-.42C79.75,93.47,80.92,92.93,81.92,93.79Z"/><path class="cls-4" d="M98.13,92.42a1.12,1.12,0,0,1,.36.09c-.2,1,.42,2.07-.37,3C98.12,94.47,98.12,93.45,98.13,92.42Z"/><path class="cls-4" d="M89.57,94.69a6.88,6.88,0,0,1-3.27-.42C87.4,94.36,88.57,93.83,89.57,94.69Z"/><path class="cls-4" d="M74.27,92.89A6.91,6.91,0,0,1,71,92.48C72.09,92.56,73.27,92,74.27,92.89Z"/><path class="cls-4" d="M70.22,92.43A6.71,6.71,0,0,1,67,92C68.05,92.11,69.22,91.59,70.22,92.43Z"/><path class="cls-4" d="M62.11,91.51a6.76,6.76,0,0,1-3.24-.39C60,91.21,61.11,90.71,62.11,91.51Z"/><path class="cls-4" d="M4.93,121.63c0-1,0-2.06,0-3.09l.07-.05c1.45.6.91,1.75.77,2.79a.88.88,0,0,1-.51.49Z"/><path class="cls-4" d="M66.17,92a6.68,6.68,0,0,1-3.25-.4C64,91.66,65.17,91.15,66.17,92Z"/><path class="cls-4" d="M97.19,95.5l-.45.16c-.92-.19-1.92,0-2.78-.49C95,95.24,96.17,94.8,97.19,95.5Z"/><path class="cls-4" d="M77.87,93.32A5.2,5.2,0,0,1,75,92.93C76,93,77,92.52,77.87,93.32Z"/><path class="cls-4" d="M58.07,91.07l-2.68,0q-.21-.1-.15-.24c0-.09.08-.14.12-.14l0,0C56.28,90.79,57.28,90.27,58.07,91.07Z"/><path class="cls-4" d="M20.69,28.56a3.07,3.07,0,0,1,.89-2.27l.24.22A1.62,1.62,0,0,1,21,28.67Z"/><path class="cls-4" d="M182.68,88.36c.25-.77-.53-.9-.84-1.33,1.51.26,1.61.48.86,1.8-.14-.1-.19-.2-.15-.31S182.64,88.36,182.68,88.36Z"/><path class="cls-4" d="M85.52,94.22a5.2,5.2,0,0,1-2.86-.39C83.62,93.9,84.65,93.42,85.52,94.22Z"/><path class="cls-4" d="M197.11,118.08a3.4,3.4,0,0,1-1.44-1.77A1.88,1.88,0,0,1,197.11,118.08Z"/><path class="cls-4" d="M93.16,95.11a5.17,5.17,0,0,1-2.85-.38C91.27,94.8,92.3,94.32,93.16,95.11Z"/><path class="cls-4" d="M148.55,49.68c.75.81.28,1.82.44,2.72l-.34.07c-.88-.74-.71-1.63-.36-2.55Z"/><path class="cls-4" d="M125.07,56c.18-.74-.25-1.61.49-2.22l.1.07a1.5,1.5,0,0,1-.24,2.24Z"/><path class="cls-4" d="M8.1,63.2c.12-.77-.24-1.62.43-2.29l.25.23c.33.78.44,1.52-.35,2.12Z"/><path class="cls-4" d="M21.58,26.29c.15-.74-.23-1.6.46-2.24l.26.26c.26.83.56,1.67-.64,2.06Z"/><path class="cls-4" d="M27.57,7.48a.84.84,0,0,0,.77.76c-.22.53-.56.56-.94.18S27.05,7.71,27.57,7.48Z"/><path class="cls-4" d="M148.09,47.44c.7.64.32,1.49.46,2.24l-.12.1c-1.1-.44-.87-1.26-.6-2.09Z"/><path class="cls-4" d="M52.22,168.87h2.25A1.51,1.51,0,0,1,52.22,168.87Z"/><path class="cls-4" d="M28.32,16.84c0-.57,0-1.14,0-1.71l.11-.09c1.28.56,1.37,1.21.14,1.95Z"/><path class="cls-4" d="M31,12.91c-.72-.49-.43-1.22-.43-1.88C31.29,11.53,31,12.25,31,12.91Z"/><path class="cls-4" d="M193.05,112.7a2.19,2.19,0,0,1-1-1.35A1.22,1.22,0,0,1,193.05,112.7Z"/><path class="cls-4" d="M195.29,115.86a2.06,2.06,0,0,1-.95-1.36A1.19,1.19,0,0,1,195.29,115.86Z"/><path class="cls-4" d="M146.28,44.3a1.49,1.49,0,0,1,.92,1.35l-.31.12a1,1,0,0,1-.81-1.2Z"/><path class="cls-4" d="M3.62,164.83a2.32,2.32,0,0,1,1.82.44C4.81,165.22,4.1,165.49,3.62,164.83Z"/><path class="cls-4" d="M189.89,109.15a2.18,2.18,0,0,1-1.36-1A1.21,1.21,0,0,1,189.89,109.15Z"/><path class="cls-4" d="M77.86,168.45c-.63-.08-1.33.16-1.82-.45l.22-.23c.65-.26,1.25-.32,1.68.37Z"/><path class="cls-4" d="M56.29,87c.91.21,1.17.63.44,1.38l-.12-.11a1.32,1.32,0,0,1-.47-1Z"/><path class="cls-4" d="M35.13,18.67a1.47,1.47,0,0,1,1.36.91l-.26.19A1,1,0,0,1,35,19C35.06,18.87,35.1,18.77,35.13,18.67Z"/><path class="cls-4" d="M15.28,51.92a1.57,1.57,0,0,1,1.39-.87l.09.32a1,1,0,0,1-1.24.77Z"/><path class="cls-4" d="M132.26,43.36a1.66,1.66,0,0,1,1.39-.86c0,.1.07.21.11.31a1,1,0,0,1-1.25.78Z"/><path class="cls-4" d="M23,21.38A1.49,1.49,0,0,1,23.86,20l.19.26a1,1,0,0,1-.79,1.21Z"/><path class="cls-4" d="M76,168c-.58-.1-1.24.18-1.71-.38l-.09-.18c.77-.4,1.49-.61,1.85.5Z"/><path class="cls-4" d="M8.53,60.91c.1-.6-.14-1.3.46-1.79l.25.25c.19.69.45,1.42-.63,1.61Z"/><path class="cls-4" d="M37.83,20.92a1.45,1.45,0,0,1,.9,1.36l-.3.1a1,1,0,0,1-.79-1.21C37.7,21.09,37.76,21,37.83,20.92Z"/><path class="cls-4" d="M11.27,166.62a2.43,2.43,0,0,1,1.86.44C12.48,167,11.76,167.3,11.27,166.62Z"/><path class="cls-4" d="M1.8,123.9A1.53,1.53,0,0,1,3.14,123l.13.3a1,1,0,0,1-1.2.83Z"/><path class="cls-4" d="M22,24.05c.09-.61-.16-1.31.46-1.79l.24.24c.21.7.39,1.38-.59,1.64Z"/><path class="cls-4" d="M159.76,80.8a2.54,2.54,0,0,1-1.81-.49C158.58,80.36,159.31,80.05,159.76,80.8Z"/><path class="cls-4" d="M135.43,40.69l0-1.76.32-.06a1.1,1.1,0,0,1,0,1.92Z"/><path class="cls-4" d="M185.86,106.85a3.21,3.21,0,0,1-1.89-.44C184.63,106.43,185.37,106.13,185.86,106.85Z"/><path class="cls-4" d="M8.17,101A2,2,0,0,1,6.8,102,1.21,1.21,0,0,1,8.17,101Z"/><path class="cls-4" d="M176,85.3a2.47,2.47,0,0,1-1.8-.49C174.78,84.86,175.51,84.55,176,85.3Z"/><path class="cls-4" d="M139.53,27.24a1.47,1.47,0,0,1-1.33.93l-.13-.3a1,1,0,0,1,1.2-.82Z"/><path class="cls-4" d="M54.9,168.87c.35-.41.39-1,.92-1.32C55.83,168.21,55.82,168.86,54.9,168.87Z"/><path class="cls-4" d="M167.86,83.05a2.54,2.54,0,0,1-1.81-.49C166.68,82.61,167.41,82.3,167.86,83.05Z"/><path class="cls-4" d="M172.37,84.33a1.55,1.55,0,0,1-1.38-.41C171.49,83.9,172,83.8,172.37,84.33Z"/><path class="cls-4" d="M171,83.93a2,2,0,0,1-1.52-.43C170.05,83.47,170.64,83.31,171,83.93Z"/><path class="cls-4" d="M169.22,83.44a1.55,1.55,0,0,1-1.39-.41C168.34,83,168.88,82.9,169.22,83.44Z"/><path class="cls-4" d="M174.16,84.81a1.8,1.8,0,0,1-1.49-.42C173.22,84.36,173.8,84.22,174.16,84.81Z"/><path class="cls-4" d="M118.38,83a1.68,1.68,0,0,1-1.34.5C117.32,82.9,117.87,83,118.38,83Z"/><path class="cls-4" d="M166.06,82.56a1.85,1.85,0,0,1-1.48-.42C165.12,82.11,165.7,82,166.06,82.56Z"/><path class="cls-4" d="M139.52,25.87c.57.45.58.91,0,1.37l-.11-.1a1,1,0,0,1-.1-1.07Z"/><path class="cls-4" d="M164.27,82.08a1.58,1.58,0,0,1-1.38-.41C163.39,81.65,163.92,81.55,164.27,82.08Z"/><path class="cls-4" d="M177.32,85.7a1.58,1.58,0,0,1-1.4-.42C176.44,85.25,177,85.15,177.32,85.7Z"/><path class="cls-4" d="M179.11,86.18a1.93,1.93,0,0,1-1.53-.43C178.14,85.72,178.74,85.55,179.11,86.18Z"/><path class="cls-4" d="M162.91,81.68a1.91,1.91,0,0,1-1.51-.43C162,81.22,162.54,81.06,162.91,81.68Z"/><path class="cls-4" d="M161.12,81.2a1.58,1.58,0,0,1-1.39-.42C160.24,80.75,160.78,80.65,161.12,81.2Z"/><path class="cls-1" d="M30.21,167.51l-.09-.38c.57-.42,1.08-.62,1.36.29l.06.18Z"/><path class="cls-4" d="M180.46,86.55a1.53,1.53,0,0,1-1.37-.38C179.58,86.15,180.11,86.05,180.46,86.55Z"/><path class="cls-4" d="M187.18,107.39a1.79,1.79,0,0,1-1.34-.55C186.36,106.85,186.94,106.71,187.18,107.39Z"/><path class="cls-4" d="M158,80.31a1.8,1.8,0,0,1-1.47-.42C157,79.86,157.6,79.73,158,80.31Z"/><path class="cls-4" d="M149,52.4c.49.32.42.85.49,1.32l-.32.12a.84.84,0,0,1-.23-1.4Z"/><path class="cls-4" d="M88.17,168.86c.1-.47,0-1,.5-1.33C88.65,168,88.76,168.58,88.17,168.86Z"/><path class="cls-4" d="M142.24,42c.49,0,1,0,1.36.46l-.21.22c-.52.19-1,.18-1.26-.4Z"/><path class="cls-4" d="M9.47,166.19a1.7,1.7,0,0,1,1.46.4C10.4,166.61,9.84,166.74,9.47,166.19Z"/><path class="cls-4" d="M53.58,59.14c.5.32.43.85.49,1.33l-.27.13c-.6-.25-.62-.71-.43-1.24Z"/><path class="cls-4" d="M16.67,51.05c.31-.5.84-.42,1.32-.48l.11.29c-.31.6-.78.62-1.32.34Z"/><path class="cls-4" d="M7.68,165.75a1.61,1.61,0,0,1,1.42.4C8.58,166.17,8,166.28,7.68,165.75Z"/><path class="cls-4" d="M79.22,168.42a3.49,3.49,0,0,0,0,.44c-.51,0-1,.1-1.41-.41l0,0A.94.94,0,0,1,79.22,168.42Z"/><path class="cls-4" d="M5.88,165.32a1.52,1.52,0,0,1,1.39.39C6.77,165.72,6.24,165.82,5.88,165.32Z"/><path class="cls-4" d="M98.2,91.11a2.47,2.47,0,0,0-.07,1.32C97.55,92,97.51,91.52,98.2,91.11Z"/><path class="cls-4" d="M108,87a1.68,1.68,0,0,1-1.33.51C107,87,107.51,87.05,108,87Z"/><path class="cls-4" d="M1.83,164.4a1.66,1.66,0,0,1,1.43.39C2.74,164.82,2.19,164.93,1.83,164.4Z"/><path class="cls-4" d="M105.76,87.94a1.63,1.63,0,0,1-1.32.5C104.72,87.85,105.26,88,105.76,87.94Z"/><path class="cls-4" d="M103.52,88.84a1.65,1.65,0,0,1-1.33.51C102.46,88.75,103,88.85,103.52,88.84Z"/><path class="cls-4" d="M156.16,79.82a1.55,1.55,0,0,1-1.36-.41C155.3,79.4,155.82,79.31,156.16,79.82Z"/><path class="cls-4" d="M181.39,88.86a1.09,1.09,0,0,1,.4-.07c.22-.19.39-.14.48.13-.15.29-.31.57-.47.85A1.1,1.1,0,0,1,181.39,88.86Z"/><path class="cls-4" d="M147.67,46.52a1.13,1.13,0,0,1,.42.92l-.13.11a.61.61,0,0,1-.5-.76Z"/><path class="cls-4" d="M147.2,45.65a1.11,1.11,0,0,1,.47.87l-.06.06c-.72,0-.71-.38-.48-.88Z"/><path class="cls-4" d="M194,114a1,1,0,0,1-.55-.86C193.88,113.27,194,113.63,194,114Z"/><path class="cls-4" d="M129.6,44.76a1.07,1.07,0,0,1,.89-.48l.11.28a.62.62,0,0,1-.75.38Z"/><path class="cls-4" d="M130.49,44.28a1.16,1.16,0,0,1,.89-.46l.13.28c-.24.45-.55.58-1,.23Z"/><path class="cls-4" d="M145,43.37a1.05,1.05,0,0,1,.88.5l-.26.17a.62.62,0,0,1-.74-.38Z"/><path class="cls-4" d="M18,50.57a1.13,1.13,0,0,1,.9-.43l.1.12c-.15.57-.48.69-1,.36Z"/><path class="cls-4" d="M42.79,50.57a2.56,2.56,0,0,1,0-.39,1,1,0,0,1,.94.41l-.2.19A.58.58,0,0,1,42.79,50.57Z"/><path class="cls-4" d="M131.38,43.82a1.28,1.28,0,0,1,.88-.46l.06.06c0,.76-.38.74-.9.45Z"/><path class="cls-4" d="M43.7,50.59a1.17,1.17,0,0,1,.92.43l-.21.21c-.44.09-.76,0-.82-.51Z"/><path class="cls-4" d="M199.33,120a.91.91,0,0,1-.82-.55C198.89,119.43,199.22,119.53,199.33,120Z"/><path class="cls-4" d="M44.62,51a1.24,1.24,0,0,1,.9.44l-.21.21c-.45.07-.83,0-.76-.58Z"/><path class="cls-4" d="M45.52,51.46a1.26,1.26,0,0,1,.9.46l-.23.21c-.45,0-.85,0-.72-.61Z"/><path class="cls-4" d="M14.4,52.41a1,1,0,0,1,.88-.49l.06.07c.09.59-.27.64-.71.6Z"/><path class="cls-4" d="M46.42,51.92a1.08,1.08,0,0,1,.87.48,2.11,2.11,0,0,1-.23.19c-.44,0-.8,0-.71-.6Z"/><path class="cls-4" d="M143.6,42.5a1,1,0,0,1,.89.46l-.28.18a.6.6,0,0,1-.72-.52Z"/><path class="cls-4" d="M188.56,108.21a1,1,0,0,1-.86-.5A.86.86,0,0,1,188.56,108.21Z"/><path class="cls-4" d="M141.33,41.61a1,1,0,0,1,.91.43l0,.07c-.41.32-.72.19-1-.22Z"/><path class="cls-4" d="M3.6,122.55a1.07,1.07,0,0,1,.88-.49l.12.28a.61.61,0,0,1-.75.39Z"/><path class="cls-4" d="M47.76,52.81a1.05,1.05,0,0,1,.88.5l-.25.18a.63.63,0,0,1-.75-.4Z"/><path class="cls-4" d="M140.43,41.16a1,1,0,0,1,.9.45l-.07.09a.57.57,0,0,1-.92-.27Z"/><path class="cls-4" d="M139.58,40.66a1.09,1.09,0,0,1,.85.5l-.07.09c-.49.16-.92.21-.83-.53Z"/><path class="cls-4" d="M135.46,38.93c-.45-.3-.45-.61,0-.91l.13.1a.59.59,0,0,1,0,.72Z"/><path class="cls-4" d="M42.78,31.7c.43.31.46.62,0,.93l-.12-.09a.77.77,0,0,1-.08-.59C42.65,31.87,42.72,31.79,42.78,31.7Z"/><path class="cls-4" d="M149.88,54.19a1.1,1.1,0,0,1,.49.88l-.29.12a.62.62,0,0,1-.38-.75Z"/><path class="cls-4" d="M6.32,102.33a1,1,0,0,1-.85.55C5.58,102.44,5.92,102.34,6.32,102.33Z"/><path class="cls-4" d="M135,30.4c-.31.44-.62.43-.92,0a1.54,1.54,0,0,1,.17-.19.61.61,0,0,1,.7.12Z"/><path class="cls-4" d="M41.88,30.37a1.07,1.07,0,0,1,.5.86l-.29.13a.62.62,0,0,1-.39-.74Z"/><path class="cls-4" d="M134.11,30.39c-.47-.31-.42-.63,0-.95l.21.24a.75.75,0,0,1-.08.6Z"/><path class="cls-4" d="M124.62,56.87a1.18,1.18,0,0,1,.45-.89l.05,0c.37.43.23.74-.22,1Z"/><path class="cls-4" d="M41,29a1.08,1.08,0,0,1,.46.91l-.3.09a.63.63,0,0,1-.35-.76Z"/><path class="cls-4" d="M9.89,57.34a1,1,0,0,1,.47-.9l.18.25a.62.62,0,0,1-.36.75Z"/><path class="cls-4" d="M20.21,29.44a1.14,1.14,0,0,1,.48-.88l.06.05c.32.43.19.74-.26,1Z"/><path class="cls-4" d="M40.54,28.12A1,1,0,0,1,41,29l-.11.1c-.57-.1-.66-.44-.43-.92Z"/><path class="cls-4" d="M52.23,56.9a1,1,0,0,1,.47.89l-.29.1a.62.62,0,0,1-.36-.75Z"/><path class="cls-4" d="M138.61,25.86c.31-.43.61-.44.91,0l-.12.14a.56.56,0,0,1-.75-.08Z"/><path class="cls-4" d="M9.43,58.23a1.09,1.09,0,0,1,.46-.89l.06,0c.32.42.19.73-.25,1Z"/><path class="cls-4" d="M38.73,22.28a1,1,0,0,1,.46.88l-.15.13c-.51-.12-.61-.45-.44-.9Z"/><path class="cls-4" d="M52.7,57.79a1.12,1.12,0,0,1,.48.87l-.28.14c-.45-.22-.57-.53-.26-1Z"/><path class="cls-4" d="M22.5,22.26a1,1,0,0,1,.45-.88l.09.06c.23.48.13.8-.41.93Z"/><path class="cls-4" d="M9,59.12a1.11,1.11,0,0,1,.44-.89l.05,0c.31.5.24.84-.41.93Z"/><path class="cls-4" d="M54.07,60.47a1.17,1.17,0,0,1,.43.91l-.29.11c-.42-.27-.57-.58-.18-1Z"/><path class="cls-4" d="M34.26,18.19a1.06,1.06,0,0,1,.87.48l-.05.06c-.42.3-.73.18-.95-.27Z"/><path class="cls-4" d="M54.5,61.38a1.13,1.13,0,0,1,.46.89l-.08.07c-.65-.06-.71-.41-.44-.91Z"/><path class="cls-4" d="M8.11,64.13c-.44-.31-.46-.62,0-.93l.09.06a.58.58,0,0,1,.11.7Z"/><path class="cls-4" d="M33.37,17.74a1.21,1.21,0,0,1,.89.45l0,0c-.42.37-.74.23-1-.22Z"/><path class="cls-4" d="M25.65,18.23a1,1,0,0,1,.91-.46l.09.29a.64.64,0,0,1-.75.35Z"/><path class="cls-4" d="M26.56,17.77a1,1,0,0,1,.89-.45l.1.27c-.22.42-.52.54-.94.26Z"/><path class="cls-4" d="M99.06,90.67a1.11,1.11,0,0,1-.91.5C98.3,90.71,98.66,90.65,99.06,90.67Z"/><path class="cls-4" d="M27.45,17.32a1.14,1.14,0,0,1,.87-.48l.06.06c0,.72-.37.71-.88.48Z"/><path class="cls-4" d="M153.46,78.92a1,1,0,0,1-.93-.4A.9.9,0,0,1,153.46,78.92Z"/><path class="cls-4" d="M154.81,79.42a1.17,1.17,0,0,1-1.07-.41C154.16,79,154.57,79,154.81,79.42Z"/><path class="cls-4" d="M.49,163.88a1.36,1.36,0,0,1,1,.47C1,164.37.66,164.32.49,163.88Z"/><path class="cls-4" d="M199.34,167.06a1,1,0,0,1,.47-.89A.85.85,0,0,1,199.34,167.06Z"/><path class="cls-4" d="M124,80.8a1.24,1.24,0,0,1-1.07.43C123.11,80.77,123.52,80.76,124,80.8Z"/><path class="cls-4" d="M122.9,81.22a.93.93,0,0,1-.92.39A.9.9,0,0,1,122.9,81.22Z"/><path class="cls-4" d="M121.68,81.7a1.19,1.19,0,0,1-1.05.41C120.86,81.68,121.25,81.65,121.68,81.7Z"/><path class="cls-4" d="M120.64,82.11a.92.92,0,0,1-.91.38A.9.9,0,0,1,120.64,82.11Z"/><path class="cls-4" d="M119.4,82.59a1.14,1.14,0,0,1-1,.41A.9.9,0,0,1,119.4,82.59Z"/><path class="cls-4" d="M117.07,83.48a1,1,0,0,1-.95.4A.9.9,0,0,1,117.07,83.48Z"/><path class="cls-4" d="M115.87,84a1.26,1.26,0,0,1-1.09.43C115,83.92,115.43,83.91,115.87,84Z"/><path class="cls-4" d="M114.81,84.37a1,1,0,0,1-.93.39A.88.88,0,0,1,114.81,84.37Z"/><path class="cls-4" d="M113.58,84.85a1.19,1.19,0,0,1-1,.41C112.76,84.82,113.16,84.8,113.58,84.85Z"/><path class="cls-4" d="M112.54,85.26a.92.92,0,0,1-.91.38A.9.9,0,0,1,112.54,85.26Z"/><path class="cls-4" d="M100.07,90.24a1.24,1.24,0,0,1-1,.45C99.25,90.23,99.64,90.2,100.07,90.24Z"/><path class="cls-4" d="M111.3,85.74a1.14,1.14,0,0,1-1,.41A.9.9,0,0,1,111.3,85.74Z"/><path class="cls-4" d="M110.28,86.15a1,1,0,0,1-.9.38A.93.93,0,0,1,110.28,86.15Z"/><path class="cls-4" d="M55.41,86.56a1.06,1.06,0,0,1,.88.45l0,.07c-.5.25-.84.18-.91-.44Z"/><path class="cls-4" d="M109,86.63a1.11,1.11,0,0,1-1,.41A.93.93,0,0,1,109,86.63Z"/><path class="cls-4" d="M181.82,87a1.26,1.26,0,0,1-.95-.41A.94.94,0,0,1,181.82,87Z"/><path class="cls-4" d="M106.72,87.53a1,1,0,0,1-1,.4A.88.88,0,0,1,106.72,87.53Z"/><path class="cls-4" d="M104.47,88.42a1,1,0,0,1-1,.42A.89.89,0,0,1,104.47,88.42Z"/><path class="cls-1" d="M182.27,88.92l-.48-.13a1.28,1.28,0,0,1,.89-.43c0,.15,0,.31,0,.47A1.57,1.57,0,0,0,182.27,88.92Z"/><path class="cls-4" d="M102.23,89.33a1,1,0,0,1-1,.42A.85.85,0,0,1,102.23,89.33Z"/><path class="cls-4" d="M101.28,89.75a1,1,0,0,1-.9.39A.91.91,0,0,1,101.28,89.75Z"/><path class="cls-4" d="M8.12,86.11l.42-.44.07.07c.08.32-.07.45-.37.48Z"/><path class="cls-4" d="M152.55,78.54h-.22l-.21-.07a3.09,3.09,0,0,1,0-.43Z"/><path class="cls-4" d="M8.55,64.6c.19,0,.26.14.19.29a.44.44,0,0,1-.16.14Z"/><path class="cls-4" d="M8.55,64.18l0,.38-.41-.43.07-.08A.23.23,0,0,1,8.55,64.18Z"/><path class="cls-4" d="M53.18,58.66l.4.48-.14.13c-.29-.09-.49-.22-.31-.57Z"/><path class="cls-4" d="M123.76,57.79l.45-.45.09.26a.53.53,0,0,1-.41.31Z"/><path class="cls-4" d="M124.21,57.34c.13-.16.27-.32.41-.47l0,0c.15.37,0,.5-.38.51Z"/><path class="cls-4" d="M51.78,56.44l.45.46-.15.13a.6.6,0,0,1-.4-.33Z"/><path class="cls-4" d="M151.23,56l.45.45-.11.11a.53.53,0,0,1-.43-.29Z"/><path class="cls-4" d="M51.35,56l.43.47-.07.08a.49.49,0,0,1-.47-.27Z"/><path class="cls-4" d="M10.36,56.44l.43-.45.07.06c.08.32-.08.47-.37.51Z"/><path class="cls-4" d="M150.78,55.54l.45.45-.1.11a.52.52,0,0,1-.44-.3Z"/><path class="cls-4" d="M50.91,55.51l.44.46L51.3,56a.45.45,0,0,1-.5-.24Z"/><path class="cls-4" d="M150.37,55.07l.41.47-.07.08c-.34,0-.52-.13-.4-.5Z"/><path class="cls-4" d="M50.47,55.06l.44.45,0,.05a.41.41,0,0,1-.52-.21Z"/><path class="cls-4" d="M6.84,101.91a.56.56,0,0,1-.52.42Z"/><path class="cls-4" d="M50,54.61l.46.45,0,0a.43.43,0,0,1-.53-.2Z"/><path class="cls-4" d="M5.51,102.83a.56.56,0,0,1-.52.43A.61.61,0,0,1,5.51,102.83Z"/><path class="cls-4" d="M49.56,54.17l.45.44,0,0a.41.41,0,0,1-.52-.19Z"/><path class="cls-4" d="M149.48,53.72l.4.47-.12.12c-.3-.07-.5-.2-.33-.55Z"/><path class="cls-4" d="M49.09,53.74l.47.43-.05,0A.42.42,0,0,1,49,54Z"/><path class="cls-4" d="M187.67,107.7a.51.51,0,0,1-.55-.36A.61.61,0,0,1,187.67,107.7Z"/><path class="cls-4" d="M48.64,53.31l.45.43-.06.07c-.33.07-.47-.09-.5-.39Z"/><path class="cls-4" d="M47.29,52.4l.47.41,0,0c-.37.16-.5,0-.53-.36Z"/><path class="cls-4" d="M14,52.83l.45-.42.12.12c0,.3-.19.46-.52.37Z"/><path class="cls-4" d="M127.36,47l.42-.47.12.28a.47.47,0,0,1-.47.27Z"/><path class="cls-4" d="M190.36,109.56a.6.6,0,0,1-.51-.45A.65.65,0,0,1,190.36,109.56Z"/><path class="cls-4" d="M190.81,110a.59.59,0,0,1-.47-.45Z"/><path class="cls-4" d="M191.26,110.45a.59.59,0,0,1-.46-.47Z"/><path class="cls-4" d="M191.7,110.91a.59.59,0,0,1-.46-.48Z"/><path class="cls-4" d="M192.14,111.39a.58.58,0,0,1-.46-.5A.65.65,0,0,1,192.14,111.39Z"/><path class="cls-4" d="M127.78,46.52l.45-.45.11.29a.41.41,0,0,1-.51.21Z"/><path class="cls-4" d="M193.46,113.22a.57.57,0,0,1-.42-.54A.61.61,0,0,1,193.46,113.22Z"/><path class="cls-4" d="M128.23,46.07l.46-.44.1.3a.42.42,0,0,1-.52.19Z"/><path class="cls-4" d="M194.38,114.54A.56.56,0,0,1,194,114Z"/><path class="cls-4" d="M128.69,45.63l.47-.43.08.29a.44.44,0,0,1-.5.2Z"/><path class="cls-4" d="M195.72,116.35a.54.54,0,0,1-.44-.51A.6.6,0,0,1,195.72,116.35Z"/><path class="cls-4" d="M129.16,45.2l.44-.44.13.13c0,.29-.19.44-.5.39Z"/><path class="cls-4" d="M197.56,118.52a.53.53,0,0,1-.45-.45Z"/><path class="cls-4" d="M145.84,43.87l.44.43-.13.13a.63.63,0,0,1-.45-.42Z"/><path class="cls-4" d="M198,119a.57.57,0,0,1-.46-.43Z"/><path class="cls-4" d="M198.48,119.37A.47.47,0,0,1,198,119Z"/><path class="cls-4" d="M144.49,43l.47.41,0,.05c-.36.15-.49,0-.54-.35Z"/><path class="cls-4" d="M199.77,120.4a.61.61,0,0,1-.48-.49A.56.56,0,0,1,199.77,120.4Z"/><path class="cls-4" d="M133.65,42.5l.46-.45.08.29a.48.48,0,0,1-.48.23Z"/><path class="cls-4" d="M4.48,122.06l.45-.43.06.06c.06.37-.08.54-.47.42Z"/><path class="cls-4" d="M134.11,42.05l.45-.44.09.26a.52.52,0,0,1-.43.3Z"/><path class="cls-4" d="M3.14,123l.46-.42.11.12c0,.3-.18.48-.52.36Z"/><path class="cls-4" d="M134.56,41.61l.45-.46.09.27a.56.56,0,0,1-.41.32Z"/><path class="cls-4" d="M135,41.15l.42-.46.06.05c.12.34-.06.48-.37.53Z"/><path class="cls-4" d="M1.35,124.35l.45-.45.13.13a.56.56,0,0,1-.32.41Z"/><path class="cls-4" d="M.88,124.78l.47-.43.09.08a.49.49,0,0,1-.29.46Z"/><path class="cls-4" d="M.43,125.21l.45-.43.06,0c.06.37-.07.54-.46.44Z"/><path class="cls-4" d="M42.38,31.23c.13.16.26.32.4.47l-.09.1c-.33,0-.52-.16-.36-.53Z"/><path class="cls-4" d="M41.45,29.91l.43.46-.15.13c-.28-.06-.44-.21-.36-.53Z"/><path class="cls-4" d="M19.79,30.37l-.41,0,.43-.5.12.23Z"/><path class="cls-4" d="M19.81,29.91l.4-.47.05,0c.16.37,0,.49-.38.5Z"/><path class="cls-4" d="M134.08,29.44l.45-.46.11.29a.42.42,0,0,1-.51.22Z"/><path class="cls-4" d="M134.53,29l.46-.43.09.3a.4.4,0,0,1-.52.17Z"/><path class="cls-4" d="M135,28.55l.47-.44.08.29a.45.45,0,0,1-.5.21Z"/><path class="cls-4" d="M135.46,28.11c.15-.14.29-.29.44-.44l.1.08c0,.32-.14.47-.45.46Z"/><path class="cls-4" d="M37.39,20.46l.44.46-.09.09a.51.51,0,0,1-.45-.28Z"/><path class="cls-4" d="M36.94,20l.45.45-.06.07a.45.45,0,0,1-.48-.24Z"/><path class="cls-4" d="M36.49,19.58l.45.43-.06.07c-.34.06-.48-.09-.47-.42Z"/><path class="cls-4" d="M23.86,20l.44-.46.1.28a.48.48,0,0,1-.47.26Z"/><path class="cls-4" d="M24.3,19.55l.45-.44.09.28a.45.45,0,0,1-.49.23Z"/><path class="cls-4" d="M24.75,19.11l.46-.44.08.28a.44.44,0,0,1-.49.22Z"/><path class="cls-4" d="M25.21,18.67l.44-.44.13.13c-.05.29-.2.45-.51.38Z"/><path class="cls-4" d="M32.88,17.32l.49.42,0,0a.4.4,0,0,1-.52-.15Z"/><path class="cls-4" d="M32.43,16.88l.45.44-.12.13a.56.56,0,0,1-.42-.31Z"/><path class="cls-4" d="M32,16.42l.44.46L32.3,17a.57.57,0,0,1-.41-.33Z"/><path class="cls-4" d="M32,16a1.79,1.79,0,0,0,0,.4l-.07.06c-.21,0-.42-.08-.42-.27s.22-.28.44-.25Z"/><path class="cls-4" d="M28,7a.62.62,0,0,1-.45.5A.61.61,0,0,1,28,7Z"/><path class="cls-4" d="M28.42,6.57a.64.64,0,0,1-.48.47Z"/><path class="cls-4" d="M30.58,6.53A.53.53,0,0,1,31,6,.65.65,0,0,1,30.58,6.53Z"/><path class="cls-4" d="M28.88,6.13a.61.61,0,0,1-.49.47A.65.65,0,0,1,28.88,6.13Z"/><path class="cls-4" d="M31,6.07a.62.62,0,0,1,.49-.46A.65.65,0,0,1,31,6.07Z"/><path class="cls-4" d="M29.26,5.65a.49.49,0,0,1-.41.51Z"/><path class="cls-4" d="M31.48,5.63A.63.63,0,0,1,32,5.18Z"/><path class="cls-4" d="M32,5.19l.42-.62A.69.69,0,0,1,32,5.19Z"/><path class="cls-4" d="M32.38,4.48l-.58-.59A.67.67,0,0,1,32.38,4.48Z"/><path class="cls-4" d="M31.69,3.9l-.63.36A.75.75,0,0,1,31.69,3.9Z"/><path class="cls-4" d="M138.2,28.17l-.46.43-.07-.06c0-.35.12-.52.48-.43Z"/><path class="cls-2" d="M27.08,148.17c-.66-1.09.43-1.26.93-1.61q4.5-3.17,9.07-6.25c6-4,12.11-8,18.11-12.12a2.55,2.55,0,0,1,3.2-.17c4.13,2.43,8.32,4.75,12.5,7.11a5.94,5.94,0,0,0,2.47,1.08c0-1.87,0-3.7,0-5.52,0-2.42.26-2.66,2.73-2.72,3.09-.08,3.09-.08,3.14,3.06,0,2.47.1,4.93.31,7.4a2.93,2.93,0,0,0,1.65,2.65c2.69,1.48,5.33,3,8,4.62.65.39,1.84.63,1.48,1.64-.29.8-1.38.77-2.19.79-2.93.05-5.85.08-8.77.11a6,6,0,0,1-3.24.63c-3.64,0-7.29.08-10.93,0-2.27-.08-4.39-.05-5.85,2a7.76,7.76,0,0,1-4.11-.19.9.9,0,0,1-.39-.71c.11-1.08-.22-1.68-1.47-1.59-3.12.2-6.24.06-9.36.26-3.46.22-7-.43-10.47-.22C31.58,148.57,29.3,149.18,27.08,148.17Z"/><path class="cls-2" d="M.48,125.27a.58.58,0,0,0,.46-.44.61.61,0,0,0,.5-.4.58.58,0,0,0,.49-.4,2.49,2.49,0,0,0,1.26-1,.59.59,0,0,0,.52-.36,1,1,0,0,0,.81-.56.52.52,0,0,0,.47-.42.83.83,0,0,0,.34-.1c2.92-2.22,6-4,9.88-3.76,3.19.18,6.39-.2,9.57.18,8.53.17,17,1,25.58,1,1.19,0,2.38.24,3.58.31s1.64.95,2.12,1.79,1.64,1.74,1.13,2.75-1.9.47-2.89.47c-6.37,0-12.73-.37-19.09-.62s-12.86-.36-19.27-1a3.37,3.37,0,0,0-1.06.29c-3.72,1-7.45,1.91-11.18,2.84a5.87,5.87,0,0,1-3.24.3C.46,125.88.47,125.58.48,125.27Z"/><path class="cls-3" d="M59.48,150.47c.38-.06.72-.12.71-.65,0-1.54,0-1.55,1.35-1.58.89,0,1.79,0,2.69,0H79.68a3.86,3.86,0,0,0-.45,2.38q0,4.92,0,9.84a3.8,3.8,0,0,0,0,1.12c.74,2.29.22,4.56,0,6.84l-1.33,0c-.51-.52-1.17-.42-1.8-.46-.51-.55-1.23-.33-1.85-.5-.65-.65-1.47-.26-2.2-.35a3.38,3.38,0,0,0-3.3-1.72,4,4,0,0,1-2.55-.4.7.7,0,0,1-.12-.59c.71-.7,1.62-.5,2.46-.53.69,0,1-.22.55-.89-.31-.49-.6-1-1-1.45a17.43,17.43,0,0,1-1.42-1.79,4.73,4.73,0,0,0-.94-1.36,8.21,8.21,0,0,1-1-1.42,6.48,6.48,0,0,0-1.41-1.5c-2-1.42-4.29-.76-6.46-.7-1,0-.89,1-1.06,1.72a1.75,1.75,0,0,1-.27.61,2.75,2.75,0,0,1-.26.22L55,157.2l0-6.8c.16-.17.29-.15.41,0h0c1.13.61,2.47-.14,3.65.48-.46,1.36-2,.61-2.72,1.61,1.51.81,3,.45,4.41.32C61.1,151.55,59.18,151.61,59.48,150.47Z"/><path class="cls-3" d="M24.78,118c-3.21,0-6.43,0-9.64,0a6.17,6.17,0,0,0-2.61.51c-2.39,1-4.8,2-7.2,3-.07-1,.3-2.12-.33-3.1a85.27,85.27,0,0,0-1-13A17.05,17.05,0,0,0,8.94,103a49.92,49.92,0,0,1,5.42-3.42c0,5.31,0,10.63.05,16,0,2,0,2.06,2.15,2.07s4.2,0,6.3,0C23.51,117.64,24.22,117.47,24.78,118Z"/><path class="cls-6" d="M31.48,167.42c-.37-.45-.87-.35-1.36-.29L28.41,167l0-18.37a8,8,0,0,1,4,0v16.25a3.93,3.93,0,0,1-.46,2.58Z"/><path class="cls-7" d="M109.89,135c0,1.58,0,3.15,0,4.72,0,.87-.38,1.15-1.2,1.23-4,.42-4.19.25-4.25-3.7,0-2.1-.07-4.19,0-6.29,0-1.75.25-2,1.91-2,3.42-.15,3.49-.08,3.51,3.38V135Z"/><path class="cls-7" d="M89.11,134.33c0-1.49,0-3,0-4.47a1.33,1.33,0,0,1,1.51-1.5c4.37,0,3.84-.22,3.9,3.59,0,2.24,0,4.47.08,6.7,0,1.07-.38,1.45-1.43,1.44-4.9,0-3.81.63-4-3.75,0-.67,0-1.34,0-2Z"/><path class="cls-2" d="M156.19,163.54c0,4,.38,3.53-3.13,3.55-.38,0-.75,0-1.12,0-.84,0-1.18-.33-1.21-1.18-.07-2.61-.28-5.21-.3-7.82,0-2,.32-2.26,2.37-2.33h.67c2.18,0,2.27,0,2.27,2.26C155.75,160,156.32,162,156.19,163.54Z"/><path class="cls-7" d="M123.83,135.74c0,1.26-.06,2.53,0,3.79s-.47,1.54-1.59,1.5c-4.54-.19-3.72.58-3.87-3.77-.06-1.93-.07-3.87,0-5.8,0-1.45.31-1.74,1.71-1.74,4,0,3.66-.31,3.71,3.56,0,.82,0,1.64,0,2.46Z"/><path class="cls-8" d="M144.47,136.31c0-1.19,0-2.39,0-3.59,0-.37-.06-.88.14-1.08,1-1,2.26-.36,3.41-.45a1.13,1.13,0,0,1,1.35,1.16c0,2.84.07,5.69.09,8.53,0,.64-.34,1-1,.92h-.22c-3.72-.13-3.72-.13-3.74-3.91,0-.52,0-1,0-1.57Z"/><path class="cls-8" d="M174.59,115.77c0,1.3,0,2.47-1.35,3.27-1.69,1-3.71.31-4-1.67a24.88,24.88,0,0,1-.43-4.88,4.79,4.79,0,0,1,.38-1.72c.56-1.15,1.93-2.15,2.73-2a3.71,3.71,0,0,1,2.24,2.8C174.36,113,174.46,114.37,174.59,115.77Z"/><path class="cls-7" d="M151.25,112.87v3.2a1.7,1.7,0,0,1-.73,1.54c-.74.48-1.5,1.25-2.42.83a3.18,3.18,0,0,1-2.19-2.59c-.1-1.78-.11-3.57-.07-5.35a3.1,3.1,0,0,1,2.1-2.66c1.31-.63,2.75.3,3.08,2A19.83,19.83,0,0,1,151.25,112.87Z"/><path class="cls-8" d="M163.4,114.35v2.45a1.4,1.4,0,0,1-.61,1.35c-.8.47-1.51,1.49-2.54,1a3.2,3.2,0,0,1-2.18-2.62c-.09-1.86-.13-3.72-.07-5.57a3.46,3.46,0,0,1,2.44-2.62,1.49,1.49,0,0,1,1.57.59,4.56,4.56,0,0,1,1.36,3.2c-.05.74,0,1.49,0,2.23Z"/><path class="cls-9" d="M161.14,136.79c0,1.27,0,2.54,0,3.8,0,.95-.3,1.29-1.28,1.32-2.67.09-2.72.1-2.75-2.61,0-2.08,0-4.17-.07-6.25,0-1.15.39-1.67,1.55-1.55.22,0,.44,0,.67,0,1.75.05,1.77.05,1.81,1.71,0,1.19,0,2.38,0,3.57Z"/><path class="cls-9" d="M171.91,137.22c0,1.28,0,2.55,0,3.83s-.64,1.3-1.57,1.29-1.59,0-1.62-1.26a64.1,64.1,0,0,0-.25-8.08.8.8,0,0,1,.86-1c.45,0,.9,0,1.35,0,.85,0,1.22.36,1.21,1.21,0,1.35,0,2.69,0,4Z"/><path class="cls-10" d="M183.54,139.66v1.75a.92.92,0,0,1-1,1c-.63,0-1.24,0-1.43-.76a8.76,8.76,0,0,1-.19-1.55c-.2-2.22.24-4.48-.35-6.7-.18-.69.34-.94.92-1s1.41-.29,1.63.69a3,3,0,0,1,.06.67A31.61,31.61,0,0,0,183.54,139.66Z"/><path class="cls-11" d="M32.41,148.64h-4c-.46-.07-1,.1-1.3-.47H53.16c2.13,0,2.13,0,2.21,2.26a1.9,1.9,0,0,1-.41,0c-.21-1.77-.21-1.81-1.7-1.81-2.6,0-5.2,0-7.8,0a3.94,3.94,0,0,1-4.51,0Z"/><path class="cls-1" d="M55.36,90.64l0,.38c-1.17.52-.92,1.6-1,2.53-.1,3.47-.11,3.65-3.67,3.35-5.29-.44-10.61-.19-15.89-.78a9.87,9.87,0,0,0-2.24,0,10.45,10.45,0,0,1-9-2.82c-1.43-1.38-2.15-1.18-3.79-.09l-6.33,4.24c-.93,0-1-.81-1.06-1.43-.08-3.69-.46-7.4.24-11.07a3.6,3.6,0,0,1,3.7-1.62c9.28.79,18.57.37,27.85.28,4.35,0,7.41,2.45,10.92,4.14.21.1.19.39.23.61A1.57,1.57,0,0,0,55.36,90.64Z"/><path class="cls-12" d="M13.11,84.88c0,3.63,0,7.26,0,10.89,0,.59-.09,1.21.46,1.64a13.23,13.23,0,0,1-4,2.72c-.14-4.34-.64-8.66-.57-13C10.15,86,11.25,84.75,13.11,84.88Z"/><path class="cls-2" d="M13.11,84.88c-1.44.64-2.54,1.91-4.15,2.24a1.27,1.27,0,0,1-.72-.9l.37-.48a1.35,1.35,0,0,0,.86-.51,1.52,1.52,0,0,0,1.07-1.7c-.17-4.94-.25-9.88-.35-14.82a4.39,4.39,0,0,1,.06-.89c.13-.67.27-1.41,1.16-1.39s.83.77,1,1.32a9.49,9.49,0,0,1,.19,1.77c.19,3.81.36,7.62.56,11.43.08,1.56.11,1.56,1.72,1.54h.23c2.38-.07,2.39-.07,2.41-2.37,0-4,.05-8.09,0-12.13a5.06,5.06,0,0,1,1.34-3.68,3.42,3.42,0,0,1,3.69-1,3.68,3.68,0,0,1,2.31,3.28c0,.83,0,1.65,0,2.47,0,3.15,0,6.29,0,9.44a21.45,21.45,0,0,0,.3,2.89c.12.88.57,1.12,1.36,1.12,1.87,0,3.74,0,5.62,0,.86,0,1.22-.39,1.23-1.21s0-1.35,0-2c-.12-3.82.23-7.63.36-11.44A5.31,5.31,0,0,1,34,66.33c.71-1.94,2.44-3.19,4-3a4.54,4.54,0,0,1,3.82,3.87,23.5,23.5,0,0,1,0,3.14,89.68,89.68,0,0,1-.31,10.1c-.26,2-.06,2.1,2,2.16a15.38,15.38,0,0,1,3.58.2c.83.23,1-.27,1-1A49.12,49.12,0,0,0,48,76a31.34,31.34,0,0,1,.12-6.71,2,2,0,0,1,1.51-2c.95-.27,1.56.33,2.07,1a5.67,5.67,0,0,1,1,3.61q0,6,.1,11.91c0,2,0,2,2.18,2.7a.54.54,0,0,0,.39.09,1,1,0,0,0,.91.44,1.67,1.67,0,0,1,.37,1.2l-1.19,0a66,66,0,0,1-7.15-3.67,3.67,3.67,0,0,0-2.19-.28l-23.36-.1A38.75,38.75,0,0,1,17.13,84,4.51,4.51,0,0,0,13.11,84.88Z"/><path class="cls-2" d="M14,52.9l.52-.37a1.08,1.08,0,0,0,.82-.54,2.55,2.55,0,0,0,1.44-.79A1.9,1.9,0,0,0,18,50.62a1.1,1.1,0,0,0,1-.36l.79-.18a31.42,31.42,0,0,1,12.41-1.17,90.86,90.86,0,0,1,10.6,1.66l.8.15a1.15,1.15,0,0,0,1,.37,1,1,0,0,0,.92.43,1,1,0,0,0,.88.47,1.08,1.08,0,0,0,.85.51.58.58,0,0,0,.53.36,1.09,1.09,0,0,0,.8.56.55.55,0,0,0,.5.39.56.56,0,0,0,.48.41.59.59,0,0,0,.46.44.6.6,0,0,0,.46.45.55.55,0,0,0,.44.45.59.59,0,0,0,.43.48.57.57,0,0,0,.41.48.58.58,0,0,0,.37.51,1.15,1.15,0,0,0,.56.81,1.09,1.09,0,0,0,.49.86l.31.57A1.8,1.8,0,0,0,54,60.5a1.08,1.08,0,0,0,.41.93,1,1,0,0,0,.44.91,1.55,1.55,0,0,1-.83,1.84c-1.51-.39-2.5-1.6-3.76-2.38a35.78,35.78,0,0,0-14.94-5A36.77,36.77,0,0,0,17,59.56a26.53,26.53,0,0,0-4.92,2.66,20.44,20.44,0,0,1-3.51,2,.78.78,0,0,0-.37-.13v-.79c.63-.67.38-1.5.42-2.28a3,3,0,0,0,.46-1.78,1.09,1.09,0,0,0,.41-.93,1.05,1.05,0,0,0,.47-.88,1.11,1.11,0,0,0,.54-.83.58.58,0,0,0,.37-.51Z"/><path class="cls-2" d="M135.12,41.27a.59.59,0,0,0,.37-.53,1.19,1.19,0,0,0,.09-1.9c0-.24,0-.48,0-.72l.62-.59c.83-1.43.15-3,.41-4.47.11-.61-.59-1.56.64-1.78,0,1.39.11,2.77.08,4.15a1.52,1.52,0,0,0,1.18,1.79,4.22,4.22,0,0,1,.12,1.7,1.64,1.64,0,0,0,.89,1.8.91.91,0,0,0,.83.53,1.07,1.07,0,0,0,.9.45,1,1,0,0,0,.94.41,1.76,1.76,0,0,0,1.29.51,1.21,1.21,0,0,0,.89.45.58.58,0,0,0,.54.35,1.15,1.15,0,0,0,.78.59l.45.42a2.74,2.74,0,0,0,1,1.27,1.09,1.09,0,0,0,.48.88,1.17,1.17,0,0,0,.35,1,5.35,5.35,0,0,0,.47,2.23,4.55,4.55,0,0,0,.5,2.66,1.5,1.5,0,0,0,.5,1.32.58.58,0,0,0,.33.55,1,1,0,0,0,.55.81.57.57,0,0,0,.4.5.59.59,0,0,0,.42.48.55.55,0,0,0,.44.45,1.81,1.81,0,0,1,0,1.62,2.82,2.82,0,0,1-1.51-.26,27.44,27.44,0,0,0-23.55.32c-.74.34-1.52.6-2.29.89a1.34,1.34,0,0,1-.35-1.21.56.56,0,0,0,.39-.49.53.53,0,0,0,.38-.51,1,1,0,0,0,.46-.9,2.79,2.79,0,0,0,.54-2.18c.49-1.31.27-2.7.45-4l1.32-2.71a.61.61,0,0,0,.4-.5l.44-.45a14.42,14.42,0,0,1,1-.84.56.56,0,0,0,.5-.39,1.14,1.14,0,0,0,.8-.56,1.09,1.09,0,0,0,.89-.46,1,1,0,0,0,.9-.45,1.88,1.88,0,0,0,1.39-.85.61.61,0,0,0,.51-.4.59.59,0,0,0,.47-.43Z"/><path class="cls-2" d="M31.94,16c-.34.17-.34.34,0,.52a.59.59,0,0,0,.38.53l.46.44a.59.59,0,0,0,.57.33,1.11,1.11,0,0,0,.89.46,1,1,0,0,0,.86.49,2.42,2.42,0,0,0,1.33.93.56.56,0,0,0,.47.42.58.58,0,0,0,.45.45.56.56,0,0,0,.41.48,3,3,0,0,0,.86,1.38,1.22,1.22,0,0,0,.44.9,23.79,23.79,0,0,0,1.41,4.89,1,1,0,0,0,.43.92,1,1,0,0,0,.49.87l.36.53a1.07,1.07,0,0,0,.6.77.61.61,0,0,0,.36.53l0,.74a.43.43,0,0,0-.32.16,5.26,5.26,0,0,1-2.65-1.08A22.91,22.91,0,0,0,33.56,29c-4.11-1-7.8.43-11.55,1.64a13.69,13.69,0,0,1-1.45.58c-.61.14-.69-.39-.77-.84a.66.66,0,0,0,.09-.39.54.54,0,0,0,.38-.5,1,1,0,0,0,.49-.87,3.72,3.72,0,0,0,.91-2.24,3,3,0,0,0,.49-2.23,3.78,3.78,0,0,0,.48-1.77,1.22,1.22,0,0,0,.41-.93,2.45,2.45,0,0,0,.89-1.35.54.54,0,0,0,.42-.47.58.58,0,0,0,.45-.45.58.58,0,0,0,.47-.43.59.59,0,0,0,.51-.38,1.12,1.12,0,0,0,.83-.51,1,1,0,0,0,.89-.47,1,1,0,0,0,.88-.48c1.3-.57.34-1.23.07-1.86a4.11,4.11,0,0,1,1.27-2.19A2.93,2.93,0,0,0,31,13.3C32.38,13.84,32.08,14.93,31.94,16Z"/><path class="cls-3" d="M41,148.66l4.51,0c0,6,0,11.93,0,17.9,0,.78.25,1.72-.94,1.94-1.33-.16-2.74.32-4-.52q0-6.56,0-13.12c0-1.34,0-2.68,0-4A4.12,4.12,0,0,1,41,148.66Z"/><path class="cls-13" d="M66.16,164.84c1.32,0,2.64-.06,4,0s1.9.79,1.93,2.24q-7.29,0-14.58,0c-.72,0-1.52.24-2.11-.43a1.2,1.2,0,0,1,0-1.37h0a3.1,3.1,0,0,1,2.54-.6C60.65,164.76,63.42,164.4,66.16,164.84Z"/><path class="cls-14" d="M66.16,164.84a4.6,4.6,0,0,1-2.37.42c-2.81,0-5.62,0-8.43,0-.41-.91-.74-1.82-.06-2.75l.34.19c.68,1,1.73,1,2.77,1,1.77,0,3.54,0,5.31,0,.87,0,1.79-.09,2.46.68C66.18,164.56,66.17,164.7,66.16,164.84Z"/><path class="cls-14" d="M68.44,161.23c.49.31.6.87.89,1.32a1.39,1.39,0,0,1-1.16.57c-3.78-.38-7.55.42-11.32.08a2.26,2.26,0,0,1-1.42-.56l-.13-.12a1.22,1.22,0,0,0,0-.33l.25-.29a22.23,22.23,0,0,1,2.92-.72A55.23,55.23,0,0,1,68.44,161.23Z"/><path class="cls-14" d="M66.14,158.1c.54.28.66.86.93,1.33a1.76,1.76,0,0,1-1.4.61c-3.35,0-6.73.53-10.05-.34-.11-.1-.21-.21-.31-.31s0-.23,0-.34l.27-.3C59.06,158.06,62.61,158.29,66.14,158.1Z"/><path class="cls-14" d="M55.31,162.19a2.49,2.49,0,0,1,0-2.8l.15.13a2.2,2.2,0,0,1,.32,2,2.22,2.22,0,0,1-.36.59Z"/><path class="cls-14" d="M55,157.2l.42,0a1.24,1.24,0,0,1,0,1.72l-.12.11C54.78,158.5,54.94,157.84,55,157.2Z"/><path class="cls-14" d="M55.36,165.27c0,.46,0,.91,0,1.37C54.84,166.18,54.81,165.72,55.36,165.27Z"/><path class="cls-15" d="M137.26,31.28c-.84,1.29-.25,2.73-.43,4.08-.1.75.37,1.67-.62,2.17.47-2.58.08-5.15.06-7.71a1.22,1.22,0,0,0-1.29.5l-.77,0c0-.27-.05-.54-.08-.8l.43-.47.48-.41.51-.4a.58.58,0,0,0,.45-.46c.56-1,.17-2,.26-3,.08-.8.1-1.6.15-2.41.73.16.83.71.83,1.33,0,.93,0,1.86,0,2.75.75.31,1.06-.15,1.41-.48l.75.08c0,.37,0,.75,0,1.13a2.5,2.5,0,0,0-1.27,1,.55.55,0,0,0-.48.43C137,29.37,137.58,30.4,137.26,31.28Z"/><path class="cls-11" d="M59.48,150.47c.86.63,2,.91,2.39,2.14.15.53.08.92-.51.93-1.71,0-3.42.05-5.13,0-.79,0-.89-.63-.87-1.28s.37-.89,1-1a6.54,6.54,0,0,0,2.19-.19c-1-.64-2.28.25-3.16-.69Z"/><path class="cls-8" d="M55.42,161.68c0-.72,0-1.44,0-2.16l11.61-.09,1.37,1.8c-.51.64-1.22.43-1.87.44-2.82,0-5.65,0-8.47,0A3.75,3.75,0,0,1,55.42,161.68Z"/><path class="cls-16" d="M55.43,162.64c4.63,0,9.26-.55,13.9-.09a3.47,3.47,0,0,1,1,1.87H66.18c-3,0-6.05,0-9.08,0C55.56,164.39,55.56,164.36,55.43,162.64Z"/><path class="cls-17" d="M55.4,156.68c0-.23,0-.45,0-.68,0-1.94,0-1.95,2-2,1.27,0,2.55.08,3.82,0A2.67,2.67,0,0,1,64,155.4a1.11,1.11,0,0,1-1,1.27C60.48,156.86,57.94,157.37,55.4,156.68Z"/><path class="cls-8" d="M55.41,158.94v-1.72h0a8.77,8.77,0,0,1,3.45-.47,22.1,22.1,0,0,0,4.22-.18,1.92,1.92,0,0,1,2.17.24,3.66,3.66,0,0,0,.9,1.29,9.24,9.24,0,0,1-4.26.82C59.73,159,57.57,158.94,55.41,158.94Z"/><path class="cls-18" d="M58.94,157.17l-3.54,0v-.53a31.05,31.05,0,0,1,6.46-.41c.84,0,1.67,0,2.14-.87a2.58,2.58,0,0,1,1.24,1.4l-2.23,0C61.69,157.29,60.25,156.6,58.94,157.17Z"/><path class="cls-16" d="M55.42,161.68H58.1c-.81.72-1.77.35-2.68.39A1.34,1.34,0,0,1,55.42,161.68Z"/><path class="cls-17" d="M58.94,157.17c1.29-.77,2.71-.31,4.07-.41C61.72,157.57,60.29,157,58.94,157.17Z"/></g></g></svg>