<svg xmlns="http://www.w3.org/2000/svg" viewBox="0 0 176.84 153.99"><defs><style>.cls-1{fill:#f0deae;}.cls-2{fill:#c27b3d;}.cls-3{fill:#f3e5bf;}.cls-4{fill:#c37c3f;}.cls-5{fill:#fdfdfd;}.cls-6{fill:#c88850;}.cls-7{fill:#f0d9c7;}.cls-8{fill:#edcc96;}.cls-9{fill:#e9bf7b;}.cls-10{fill:#c27c3e;}.cls-11{fill:#c37c3e;}.cls-12{fill:#c37e40;}.cls-13{fill:#c48042;}</style></defs><title>church</title><g id="Layer_2" data-name="Layer 2"><g id="Layer_1-2" data-name="Layer 1"><path class="cls-1" d="M157.08,86.76a1,1,0,0,0-.07.38,2.64,2.64,0,0,1-.43.51h0a5.48,5.48,0,0,0-.4.44,1.45,1.45,0,0,0-.06.41c-.13.18-.28.34-.42.51h0c-.29.22-.2.65-.47.88h0c-.14.15-.28.3-.4.45l0,.47c.45,4.07.08,8.15.2,12.22a44.89,44.89,0,0,0,.14,5.56c-.11,2.81-.12,5.62-.15,8.44,0,9.86.09,19.71,0,29.57a10.34,10.34,0,0,1-.28,3.55,1.41,1.41,0,0,1-.58.63c-4.63.11-9.26,0-13.89.05a4.2,4.2,0,0,0-2.19.21l-10.35.09a.47.47,0,0,1-.62-.26c-.81-2.87-.27-5.81-.45-8.71-.08-1.13.48-2.68-.89-3.21a6.36,6.36,0,0,0-5.23.39c-.85.43-.64,1.44-.67,2.24-.11,3,.19,6-.18,9a1.51,1.51,0,0,1-.4.65,8.1,8.1,0,0,0-1.1-.16l-25.11.07c0-.15-.07-.29-.11-.43a30,30,0,0,0,.33-4.92q0-28.95,0-57.9a11,11,0,0,1,.32-3.78c.55-1.07,1.54-1,2.53-1,10.51.55,21,.91,31.55,1.2,8.81.25,17.61.56,26.42.86a4.09,4.09,0,0,1,2.74.79A.71.71,0,0,1,157.08,86.76Z"/><path class="cls-1" d="M46.33,106.52c2.27.12,4.54-.2,6.81.09-.83,1.6-2.34,1-3.57,1-2.93.13-3.13.13-3,3,.2,3.8-.66,7.57-.13,11.35.31,9.37,0,18.73.15,28.09a1.66,1.66,0,0,1-.32,1.06c-4.72.24-9.44.08-14.16.1-9.45,0-18.89,0-28.34,0a5.92,5.92,0,0,1-2.44-.18l-.44,0a2.2,2.2,0,0,1-.24-1.51q0-30.36,0-60.72c0-.22,0-.45,0-.67C1.65,86.63,3.2,87,4.57,87q19,0,38,0a7.6,7.6,0,0,1,3.53.42.59.59,0,0,1,.28.75h0c-.52,2.65-.23,5.32-.21,8C46.16,99.57,45.8,103.06,46.33,106.52Z"/><path class="cls-1" d="M1.8,49a1.15,1.15,0,0,0,0-.37c.31-.38.17-.95.56-1.29,6.93-4.68,14.62-6,22.83-5.47,6.76.48,12.92,2.91,19.05,5.5.37.13.53.47.75.76h0a2.2,2.2,0,0,1,.21,1.31V82.53a3.19,3.19,0,0,1-.13,1.11,3.78,3.78,0,0,1-2.76.68c-12.13,0-24.26.77-36.39.45-1.25,0-2.57.22-3.7-.6A5.36,5.36,0,0,1,2,81.75Q2,66.56,2,51.37A4.86,4.86,0,0,0,1.8,49Z"/><path class="cls-2" d="M45.9,121.8a2.7,2.7,0,0,1-.37-2.15c.45-3.58.22-7.18.35-10.77.06-1.8.06-1.75,1.92-1.9s3.59.23,5.34-.37l5.8-.1c4.26-.42,8.53-.07,12.79-.19.52,0,1.08.11,1.52-.31a1.22,1.22,0,0,1,.78,0,4.68,4.68,0,0,1,1.78,1.67c3,3.94,5.82,8,8.74,12,.58.79,1.2,1.63.74,2.67s-1.63,1.08-2.55,1c-7.67-.9-15.4,0-23.09-.74-3.57-.37-7.18-.06-10.77-.12C47.85,122.45,46.76,122.61,45.9,121.8Z"/><path class="cls-1" d="M122.37,48.56c0,1,0,2.09,0,3.13a118.07,118.07,0,0,1,.15,12.48c-.74.88-1.74.73-2.7.65a63.25,63.25,0,0,0-15,0,4,4,0,0,1-3.23-.5c-.31-2.67,0-5.36-.15-8a5.06,5.06,0,0,0-.21-2.41V43.63c.22-.31.31-.61,0-.9l0,0a1.6,1.6,0,0,0-.41-.41l0,0a.64.64,0,0,1,.06-.7c2.93-2.52,6.52-3.13,10.18-3.49,4.09-.4,8,.63,11.85,1.82a.72.72,0,0,1,0,1h0c-.27.24-.18.67-.48.9h0A22.09,22.09,0,0,0,122.37,48.56Z"/><path class="cls-2" d="M44.46,47.57a1.33,1.33,0,0,1-1.63,0,47.39,47.39,0,0,0-13.72-4.67A38.46,38.46,0,0,0,7.16,45.18a14.48,14.48,0,0,0-2.95,1.59,3.07,3.07,0,0,1-2,.91c-.26-.13-.3-.39-.39-.62v-.15a1.62,1.62,0,0,1,.37-.63l0,0a1.27,1.27,0,0,0,.4-.43l0,0a.82.82,0,0,0,.38-.4l.05-.06c.35-.16.22-.63.54-.8l0,0c.12-.17.24-.33.37-.49a.19.19,0,0,0,.11-.25.93.93,0,0,1,.42-.65v0a3.63,3.63,0,0,0,.34-.46A.26.26,0,0,0,5,42.42a1.09,1.09,0,0,1,.4-.63h0c.27-.23.18-.67.49-.88l0,0c.23-.27.14-.72.51-.9l0,0c.06-.22.26-.35.37-.54l0,0c.31-.2.2-.65.5-.86l0,0a5.32,5.32,0,0,0,.36-.47A.2.2,0,0,0,7.69,38a.83.83,0,0,1,.45-.65l0,0a1.73,1.73,0,0,1,.43-.5h0a3,3,0,0,0,.4-.47l0,0a.94.94,0,0,0,.38-.41l.06-.07a.76.76,0,0,0,.39-.38l.07-.06A1.15,1.15,0,0,0,10.3,35l0,0c.18-.11.32-.28.49-.4h0a1.27,1.27,0,0,1,.52-.43l0,0c.16-.36.64-.24.84-.55h0c.18-.12.31-.31.52-.39l0,0c.19-.35.64-.24.87-.52h0a1.09,1.09,0,0,1,.63-.4.22.22,0,0,0,.28-.11,1.69,1.69,0,0,1,.57-.35.3.3,0,0,0,.33-.11,1.43,1.43,0,0,1,.62-.33.2.2,0,0,0,.27-.08c.28-.24.68-.18,1-.39a.34.34,0,0,0,.36-.09l.56-.5c3.52-1.24,7-1.54,10.49.19.22.12.44.23.65.36a.17.17,0,0,0,.25.07,1.35,1.35,0,0,1,.64.3.4.4,0,0,0,.4.11c.28.23.7.16,1,.44h0c.25.26.68.17.9.47h0a3.83,3.83,0,0,0,.46.33.35.35,0,0,0,.34.14,1.56,1.56,0,0,1,.59.39h0c.2.3.67.18.85.53l0,0a1.84,1.84,0,0,1,.51.41h0a1.24,1.24,0,0,0,.42.34.28.28,0,0,0,.29.17.83.83,0,0,1,.61.46l0,0a1.08,1.08,0,0,1,.5.47l0,0a1.38,1.38,0,0,1,.48.48l0,0a1.06,1.06,0,0,1,.46.5l0,0a.76.76,0,0,1,.48.62.21.21,0,0,0,.15.26,1.47,1.47,0,0,0,.35.43h0a1.75,1.75,0,0,1,.42.52l0,0c.35.18.24.64.52.87h0a1.18,1.18,0,0,1,.39.65.19.19,0,0,0,.11.26,5.88,5.88,0,0,1,.36.51l0,0c.35.2.26.64.5.9v0c.3.21.19.65.5.85v0a3.21,3.21,0,0,1,.39.52l0,0c.33.19.23.65.52.86v0c.13.17.33.3.39.53l0,0c.37.18.27.64.54.88h0a2.08,2.08,0,0,1,.44.5l0,0a1.17,1.17,0,0,1,.47.49l0,0a.83.83,0,0,1,.46.51l0-.06C44.91,46.72,44.86,47.14,44.46,47.57Z"/><path class="cls-2" d="M19.48,10.36a.3.3,0,0,0,.32-.15,1.67,1.67,0,0,0,.45-.34h0a1.45,1.45,0,0,1,.52-.43l0,0A1.28,1.28,0,0,1,21.16,9h0c.24-.26.17-.66.41-.92a.26.26,0,0,0,.07-.32c.18-.33.12-.76.46-1l0,0c.35-.43.05-1,.35-1.47.71-.13.87.39,1.08.87a11.9,11.9,0,0,0,.28,1.18l.08.73a1.28,1.28,0,0,1,.37.54l0,0a.71.71,0,0,1,.49.49l0,0a.74.74,0,0,1,.5.47l0,0a1,1,0,0,1,.51.45l0,0c.19.1.32.28.5.39l0,0c.19.31.64.2.84.5l0,0a4.62,4.62,0,0,0,.5.37l.05,0c.16.34.66.21.79.58l0,0a.82.82,0,0,1,.5.48l0,0a.73.73,0,0,1,.46.52l-.06-.05c.41.15.31.62.55.88l0,0c.32.28.29.71.44,1.06a.2.2,0,0,0,.06.28c.49.73,0,1.64.4,2.37v.19c-.32.44,0,1.09-.48,1.47l0-.05c-.2.29-.11.74-.5.92l.05-.05a.79.79,0,0,1-.48.51l0-.05a.71.71,0,0,1-.52.47l0-.06a.62.62,0,0,1-.53.39,1.59,1.59,0,0,1-1.1-.09c-3.14-1.59-6.25-.8-9.36.12a.78.78,0,0,1-.53-.42l0,.06c-.51-.31-.67-.87-1-1.32v0c-.31-.28-.27-.7-.44-1a.26.26,0,0,0-.07-.32,4.67,4.67,0,0,1,.07-3.13l0,0c.22-.28.17-.68.42-.94h0c.28-.23.19-.67.5-.88l0,0c.11-.18.29-.32.41-.49l0,0a1.86,1.86,0,0,0,.4-.44l0,0a1.15,1.15,0,0,0,.41-.41l0,0a1.68,1.68,0,0,0,.44-.4l0,0c.17-.12.31-.29.48-.41h0A1.09,1.09,0,0,1,19.48,10.36Z"/><path class="cls-3" d="M17.53,20.66a11.18,11.18,0,0,1,8.35-.92c.85.24,1.5,1,2.45.93.12.09.16.18.12.28s-.06.15-.1.15V27c.58,1.14-.18,2.44.45,3.57v0l.12.18-.11.2a19.88,19.88,0,0,0-10.87-.05c-.51-1.43.2-3-.4-4.4,0-.89,0-1.79,0-2.68A5.1,5.1,0,0,1,17.53,20.66Z"/><path class="cls-1" d="M115.54,20.16c0,.32.11.65.17,1a.75.75,0,0,1,0,.86,1.24,1.24,0,0,0-.06.43c-.51,3.22-.06,6.48-.24,9.71a.85.85,0,0,1-.85.6c-2.45-.46-4.85.44-7.28.23-.8-.67,0-1.72-.6-2.44l0-3.12a10,10,0,0,1,0-4.49l-.06-.93a.91.91,0,0,1,0-.93c2.32.87,4.76-.41,7.12.39C114.65,21.77,114.64,20.21,115.54,20.16Z"/><path class="cls-4" d="M115.54,20.16a1.21,1.21,0,0,0-.32,1c0,.9-.44,1.13-1.28.93a10.43,10.43,0,0,0-6.06.14c-1.1.39-.64-.92-1.16-1.2-1.18-1.2-.84-2.59-.49-4l0,0c.23-.27.15-.71.5-.91l0,0a1.5,1.5,0,0,1,.43-.51h0a4,4,0,0,1,.46-.46h0a1.73,1.73,0,0,1,.5-.43l0,0c.21-.33.65-.24.89-.5h0c.25-.27.66-.21.94-.43l0,0a1.27,1.27,0,0,1,.48-.47l0,0c.4-1.88-.48-3.67-.41-5.52l0,0c-.37-1.63.51-1.65,1.68-1.3h0a1.06,1.06,0,0,1,.4.65v.07A23.8,23.8,0,0,0,112,14l0,0a1.39,1.39,0,0,1,.51.45h0c.26.24.71.15.9.52l0,0c.3.18.74.11.94.49l0,0a1.09,1.09,0,0,1,.52.43l0,0a1.65,1.65,0,0,1,.46.49l0,0a1,1,0,0,1,.46.52l0-.05c.38.17.28.63.52.89v0a1.49,1.49,0,0,1,0,1.78l0,0c-.22.28-.16.69-.44.94Z"/><path class="cls-5" d="M1.35,151.09l40.71,0,4.28,0a3.26,3.26,0,0,1,2.53-.68q20.88,0,41.76,0a3.6,3.6,0,0,1,2.56.62l-.09.15c-.62.64-1.42.39-2.13.39H3.47C2.75,151.5,2,151.75,1.35,151.09Z"/><path class="cls-5" d="M.87,88.15q0,30,0,60c0,1,0,2,0,2.92-.83-.71-.46-1.68-.46-2.53q0-29,0-57.94c0-.83,0-1.65,0-2.47L.65,88Z"/><path class="cls-5" d="M45,83.66l0-31.77c0-1.27,0-2.54,0-3.81.73.67.43,1.55.43,2.34q0,15.27,0,30.55a10.25,10.25,0,0,0,.48,3.53l-.31.1C45.15,84.44,44.84,84.19,45,83.66Z"/><path class="cls-5" d="M1.8,49c.68.78.38,1.72.38,2.59q.07,16.29.1,32.58a.47.47,0,0,1-.27.47l-.27-.12q0-15.85,0-31.7C1.78,51.5,1.79,50.23,1.8,49Z"/><path class="cls-5" d="M175.94,121.81a3,3,0,0,1,.9,2.43q0,12.56,0,25.1a1.65,1.65,0,0,1-.35,1.26l-.33-.29a2.8,2.8,0,0,1-.42-1.49c-.09-8.89,0-17.78,0-26.67Z"/><path class="cls-1" d="M176.48,150.6c-.68.67-1.55.44-2.35.44H154.36c-.13-.06-.19-.13-.17-.23s.05-.15.08-.15l.12-.12a3.51,3.51,0,0,1,2.55-.65c5.6,0,11.21,0,16.82,0a3.12,3.12,0,0,1,2.51.7Z"/><path class="cls-5" d="M46.33,106.52c-.55-.44-.41-1.07-.41-1.64q0-7.56,0-15.12c0-.57-.14-1.2.42-1.65Q46.34,97.32,46.33,106.52Z"/><path class="cls-5" d="M154.79,108.77q0-9,0-18c.67.6.42,1.39.42,2.11,0,4.42,0,8.83,0,13.24a4,4,0,0,0,.49,2.59l-.19.21A.58.58,0,0,1,154.79,108.77Z"/><path class="cls-5" d="M154.27,150.67a2.34,2.34,0,0,1,.09.38H138.1c.55-.55,1.25-.39,1.9-.39Z"/><path class="cls-6" d="M23.34,6.27l-.83-.9c-.61-1,.09-2.19-.44-3.2l0,0a1,1,0,0,1-.47-.49l0,0c-.36-.26-.33-.55-.07-.87h0a1.86,1.86,0,0,1,1-.86.21.21,0,0,0,.26,0c.3.21.74.13,1,.47l0,0a1.4,1.4,0,0,1,0,1.77l0,0a2,2,0,0,1-.45.5l.06.91A3.63,3.63,0,0,1,23.34,6.27Z"/><path class="cls-5" d="M122.34,64.34q0-6.33,0-12.65c.68.58.43,1.38.43,2.09,0,2.84.1,5.67,0,8.5a2.22,2.22,0,0,0,1.41,2.42L124,65C123.27,65.14,122.58,65.35,122.34,64.34Z"/><path class="cls-5" d="M72.39,106.47l-13.45,0c.53-.6,1.24-.41,1.89-.41,3.89,0,7.77,0,11.66,0,.11.11.13.2.07.27A.27.27,0,0,1,72.39,106.47Z"/><path class="cls-5" d="M72.88,106.07c0-2.14,0-4.28,0-6.43,0-.88-.11-1.48-1.2-1.73s-1.4-1.17-.61-2.18l.26.19c.51.92,1.66,1.08,2.28,1.89.49,2.79.9,5.58-.25,8.33h0A.31.31,0,0,1,72.88,106.07Z"/><path class="cls-5" d="M101.25,53.9c.6.62.38,1.41.39,2.13,0,2.77,0,5.54.08,8.3-.1.84-.64.74-1.21.58l-.23-.24a2.16,2.16,0,0,0,1-2.08C101.2,59.69,101.24,56.8,101.25,53.9Z"/><path class="cls-5" d="M115.15,32.41c0-2.62,0-5.24.07-7.86,0-.72-.23-1.51.4-2.13,0,2.66,0,5.33,0,8a3.54,3.54,0,0,0,.5,2.33l-.21.21C115.48,33,115.13,33,115.15,32.41Z"/><path class="cls-5" d="M127.39,151.08l.36,0a1.35,1.35,0,0,1-1.22.37c-2.4-.17-4.84.39-7.22-.3a.3.3,0,0,0-.06-.22A10.91,10.91,0,0,1,127.39,151.08Z"/><path class="cls-5" d="M122.37,48.56a13.58,13.58,0,0,1,0-6.79C122.37,44,122.37,46.3,122.37,48.56Z"/><path class="cls-5" d="M112,14a10.2,10.2,0,0,1,0-6.53C112,9.62,112,11.79,112,14Z"/><path class="cls-5" d="M109.86,8a8.57,8.57,0,0,1,.41,5.52C110.16,11.67,109.48,9.87,109.86,8Z"/><path class="cls-5" d="M106.23,17.07c-.18,1.36-.39,2.73.49,4-.06.31-.11.62-.16.94C105.73,20.39,105.19,18.78,106.23,17.07Z"/><path class="cls-5" d="M22.07,2.17c.94,1,.13,2.16.44,3.2-.18.46,0,1-.44,1.39Z"/><path class="cls-5" d="M17.54,26.48c.86,1.4.27,2.93.4,4.4l-.19.08-.22,0Z"/><path class="cls-5" d="M106.62,22.91c0,1.5,0,3,0,4.49A5.13,5.13,0,0,1,106.62,22.91Z"/><path class="cls-5" d="M23.34,6.27c0-.9.05-1.79.08-2.69.83,1.18.27,2.5.36,3.76C23.63,7,23.49,6.63,23.34,6.27Z"/><path class="cls-5" d="M111.58,6.72c-1.08-.23-1.81,0-1.68,1.3a.69.69,0,0,1-.32-1.19A1.21,1.21,0,0,1,111.58,6.72Z"/><path class="cls-5" d="M28.79,30.53c-.92-1.09-.28-2.38-.45-3.57C29.23,28.06,28.58,29.35,28.79,30.53Z"/><path class="cls-5" d="M140.41,73.68a3.54,3.54,0,0,1,2.25,1.82l-.27.2A2,2,0,0,1,140.28,74Z"/><path class="cls-5" d="M148,79.55a3.13,3.13,0,0,1,2.28,1.32,2.75,2.75,0,0,1-.26.22,1.78,1.78,0,0,1-2.12-1.22C148,79.76,148,79.65,148,79.55Z"/><path class="cls-5" d="M78.27,86.75a3.11,3.11,0,0,1,1.33-2.28l.22.26a1.79,1.79,0,0,1-1.23,2.12Z"/><path class="cls-5" d="M17.53,20.66c0,1.05,0,2.09,0,3.14-.81-1-.35-2.16-.34-3.27A.43.43,0,0,1,17.53,20.66Z"/><path class="cls-5" d="M15.78,14.82c0,1,0,2.09-.07,3.13A2.51,2.51,0,0,1,15.78,14.82Z"/><path class="cls-5" d="M143.12,75.92a2.39,2.39,0,0,1,1.78,1.39l-.27.19A1.43,1.43,0,0,1,143,76.22C143,76.12,143.07,76,143.12,75.92Z"/><path class="cls-5" d="M85,75.94a2.33,2.33,0,0,1,1.38-1.79l.19.26a1.43,1.43,0,0,1-1.26,1.66Z"/><path class="cls-5" d="M137.7,71.44a2.32,2.32,0,0,1,1.8,1.37l-.26.19a1.44,1.44,0,0,1-1.66-1.25Z"/><path class="cls-5" d="M106.65,30.52c.67.66.27,1.54.45,2.3l-.16.12h-.2l-.13-.15Z"/><path class="cls-5" d="M158.41,84.48c.8.85.27,1.37-.46,1.84-.07-.06-.13-.13-.19-.19a1.12,1.12,0,0,1-.07-.54,2.05,2.05,0,0,1,.48-1Z"/><path class="cls-5" d="M151.19,81.35a2.73,2.73,0,0,1,1.82.89l-.22.22a1.18,1.18,0,0,1-1.71-.82C151.12,81.54,151.15,81.44,151.19,81.35Z"/><path class="cls-5" d="M30.54,17.18a4.93,4.93,0,0,1-.4-2.37C30.89,15.5,30.49,16.38,30.54,17.18Z"/><path class="cls-5" d="M134.54,69.21a1.49,1.49,0,0,1,1.37.88l-.25.21a1,1,0,0,1-1.22-.78C134.47,69.41,134.51,69.31,134.54,69.21Z"/><path class="cls-5" d="M23.78,2.21a3.23,3.23,0,0,0,0-1.77C24.51,1,24.5,1.61,23.78,2.21Z"/><path class="cls-5" d="M89.51,71a1.58,1.58,0,0,1,1.33-1l.14.3a1,1,0,0,1-1.2.84Z"/><path class="cls-5" d="M135.91,70.09a1.48,1.48,0,0,1,1.34.92l-.24.19c-.76.09-1.2-.2-1.19-1Z"/><path class="cls-5" d="M92.21,68.76a1.51,1.51,0,0,1,1.36-.92,2.83,2.83,0,0,0,.11.31,1,1,0,0,1-1.21.81Z"/><path class="cls-5" d="M93.57,67.84A1.44,1.44,0,0,1,94.93,67c0,.09.07.19.1.29-.25.68-.63,1.11-1.41.67Z"/><path class="cls-5" d="M83.66,77.74a1.48,1.48,0,0,1,.92-1.35,2.48,2.48,0,0,0,.19.26A1,1,0,0,1,84,77.86Z"/><path class="cls-5" d="M82.77,79.1a1.46,1.46,0,0,1,.89-1.36l.07.06c.44.78,0,1.16-.67,1.41Z"/><path class="cls-5" d="M125.12,65.13c.61.11,1.31-.14,1.79.47l-.22.24c-.66.25-1.27.32-1.69-.41Z"/><path class="cls-5" d="M81.42,81.35A1.54,1.54,0,0,1,82.29,80l.22.25a1,1,0,0,1-.78,1.23Z"/><path class="cls-5" d="M80.07,83.6A1.52,1.52,0,0,1,81,82.22l.21.25a1,1,0,0,1-.78,1.23Z"/><path class="cls-5" d="M153.91,82.67c.62.1,1.32-.14,1.81.46l-.22.24c-.66.26-1.27.33-1.7-.4C153.84,82.87,153.88,82.77,153.91,82.67Z"/><path class="cls-5" d="M155.72,83.13c.61.09,1.31-.16,1.79.46l-.25.24c-.69.2-1.38.4-1.63-.6Z"/><path class="cls-5" d="M116,19.3c0-.6,0-1.19,0-1.78A1,1,0,0,1,116,19.3Z"/><path class="cls-5" d="M16.21,19.27a2.6,2.6,0,0,1,1,1.32A1.13,1.13,0,0,1,16.21,19.27Z"/><path class="cls-5" d="M.87,85.85a1.54,1.54,0,0,1,.87-1.38l.05,0c.53.79.06,1.16-.61,1.44Z"/><path class="cls-5" d="M44.46,47.57l0-1.25c.82.38.47,1.14.56,1.76Z"/><path class="cls-5" d="M100.73,40.39a1.64,1.64,0,0,1,.92-1.33l.21.26a1,1,0,0,1-.83,1.22Z"/><path class="cls-5" d="M121.49,37.28a1.54,1.54,0,0,1,.94,1.32l-.3.14a1,1,0,0,1-.83-1.2Z"/><path class="cls-5" d="M74.2,92.58a1.51,1.51,0,0,1,.92-1.35c.07.09.13.18.2.26a1,1,0,0,1-.82,1.21Z"/><path class="cls-5" d="M75.54,90.77a1.55,1.55,0,0,1,.92-1.34l.2.25a1,1,0,0,1-.81,1.22Z"/><path class="cls-5" d="M76.46,89.43a1.47,1.47,0,0,1,.92-1.34l.19.24c.09.75-.2,1.19-1,1.19Z"/><path class="cls-5" d="M.42,88.11c-.57-.46-.54-.92,0-1.38l.21.2A1,1,0,0,1,.51,88Z"/><path class="cls-5" d="M46.81,86.28a.8.8,0,0,1,0,1.4l-.22-.24a1.1,1.1,0,0,1,0-.94Z"/><path class="cls-5" d="M157.51,83.59a.88.88,0,0,1,.9.89l-.11.09c-.61.05-.89-.26-.9-.86Z"/><path class="cls-5" d="M30.06,18.84a2.36,2.36,0,0,1,.48-1.47C30.56,17.92,30.72,18.51,30.06,18.84Z"/><path class="cls-5" d="M22.58,0l-1,.86C21.61.23,22,0,22.58,0Z"/><path class="cls-5" d="M127.81,66c.49,0,1,0,1.36.46l-.21.22c-.53.2-1,.19-1.27-.4Z"/><path class="cls-5" d="M97.6,65.6c.34-.49.87-.42,1.36-.46l.11.28c-.28.58-.74.59-1.26.4Z"/><path class="cls-5" d="M99,65.14c.33-.48.85-.4,1.32-.47l.06.07c-.17,1-.72.8-1.34.46Z"/><path class="cls-5" d="M1.83,47.06l.39.62a1,1,0,0,1-.42.9Z"/><path class="cls-5" d="M153,82.24a1.1,1.1,0,0,1,.9.43l0,0c-.49.33-.81.2-1-.34Z"/><path class="cls-5" d="M103,36.8a1.05,1.05,0,0,1,.5-.87l.18.25a.62.62,0,0,1-.39.74Z"/><path class="cls-5" d="M102.12,38.19a1,1,0,0,1,.46-.91l.18.24a.64.64,0,0,1-.35.75Z"/><path class="cls-5" d="M39.58,39.09a1,1,0,0,1-.52-.87C39.48,38.36,39.57,38.7,39.58,39.09Z"/><path class="cls-5" d="M101.65,39.06a1,1,0,0,1,.47-.87l.12.09c.16.48.1.83-.5.86Z"/><path class="cls-5" d="M7.22,38.65a1.07,1.07,0,0,1-.5.86A.87.87,0,0,1,7.22,38.65Z"/><path class="cls-5" d="M6.37,40a1,1,0,0,1-.51.9C5.85,40.53,5.91,40.16,6.37,40Z"/><path class="cls-5" d="M122.82,40.89l.05-.8.18-.22.25.13A.94.94,0,0,1,122.82,40.89Z"/><path class="cls-5" d="M40.91,41.37a1.07,1.07,0,0,1-.5-.9C40.85,40.61,40.92,41,40.91,41.37Z"/><path class="cls-5" d="M5.88,40.91a1,1,0,0,1-.49.88A.83.83,0,0,1,5.88,40.91Z"/><path class="cls-5" d="M100.32,41.82c-.45-.32-.43-.64,0-1a2.09,2.09,0,0,0,.22.2.93.93,0,0,1,0,.57Z"/><path class="cls-5" d="M122.35,41.78a1,1,0,0,1,.48-.9A.87.87,0,0,1,122.35,41.78Z"/><path class="cls-5" d="M41.4,42.2a1,1,0,0,1-.5-.85A.88.88,0,0,1,41.4,42.2Z"/><path class="cls-5" d="M42.29,43.57a1,1,0,0,1-.52-.86A.83.83,0,0,1,42.29,43.57Z"/><path class="cls-5" d="M101.22,42.73c.49.28.41.58,0,.9Z"/><path class="cls-5" d="M43.18,45a1,1,0,0,1-.54-.88C43.08,44.21,43.17,44.55,43.18,45Z"/><path class="cls-5" d="M3.64,44.51a.91.91,0,0,1-.54.8A.85.85,0,0,1,3.64,44.51Z"/><path class="cls-5" d="M124.21,64.7a1.12,1.12,0,0,1,.91.43l0,.05c-.48.34-.8.2-1-.34Z"/><path class="cls-5" d="M96.7,66a1.06,1.06,0,0,1,.9-.44l.1.1c0,.54-.35.62-.79.54Z"/><path class="cls-5" d="M126.91,65.6a1.08,1.08,0,0,1,.9.43l0,.06c-.48.32-.8.19-1-.35Z"/><path class="cls-5" d="M95.8,66.49a1.12,1.12,0,0,1,.9-.45l.07.08c0,.57-.31.63-.75.57Z"/><path class="cls-5" d="M94.93,67a1,1,0,0,1,.87-.47l.08.09c0,.6-.38.66-.86.49Z"/><path class="cls-5" d="M129.17,66.49a1.14,1.14,0,0,1,.9.44l-.21.2c-.44.08-.78,0-.78-.55Z"/><path class="cls-5" d="M130.07,66.93a1.16,1.16,0,0,1,.9.46l-.22.2c-.45.06-.8,0-.75-.58Z"/><path class="cls-5" d="M131,67.39a1.11,1.11,0,0,1,.9.45,2.09,2.09,0,0,0-.22.2c-.44.06-.79,0-.76-.57Z"/><path class="cls-5" d="M131.87,67.84a1.09,1.09,0,0,1,.89.45l-.22.2c-.44.06-.78,0-.75-.56Z"/><path class="cls-5" d="M132.76,68.29a1.08,1.08,0,0,1,.9.46l-.21.19c-.44.08-.76,0-.78-.54Z"/><path class="cls-5" d="M133.66,68.75a1,1,0,0,1,.88.46l-.1.12c-.46.17-.79.08-.88-.46Z"/><path class="cls-5" d="M12.11,33.68a1,1,0,0,1-.84.55C11.39,33.81,11.72,33.71,12.11,33.68Z"/><path class="cls-5" d="M117,33.22a1,1,0,0,1,.9.47l-.24.18a.62.62,0,0,1-.75-.36Z"/><path class="cls-5" d="M34.61,33.77a1.05,1.05,0,0,1-.85-.53A.82.82,0,0,1,34.61,33.77Z"/><path class="cls-5" d="M145.82,78.16a1.07,1.07,0,0,1,.88.49l-.25.18a.62.62,0,0,1-.75-.38Z"/><path class="cls-5" d="M82.29,80a1,1,0,0,1,.48-.87l.08.07c.2.49.16.85-.48.87Z"/><path class="cls-5" d="M147.17,79.07a1,1,0,0,1,.87.48l-.09.11a.58.58,0,0,1-.91-.34Z"/><path class="cls-5" d="M116.13,32.75a1.1,1.1,0,0,1,.87.47l0,.06c-.5.25-.86.23-.89-.45Z"/><path class="cls-5" d="M150.32,80.87a1,1,0,0,1,.87.48l-.09.11c-.48.16-.84.11-.85-.51Z"/><path class="cls-5" d="M81,82.22a1,1,0,0,1,.47-.87l.14.11c.13.48.08.83-.53.84Z"/><path class="cls-5" d="M23.81.48l-1-.47C23.26,0,23.63,0,23.81.48Z"/><path class="cls-5" d="M13.48,32.8a1.07,1.07,0,0,1-.87.52C12.75,32.9,13.09,32.81,13.48,32.8Z"/><path class="cls-5" d="M79.6,84.47a1,1,0,0,1,.47-.87l.12.1c.16.47.1.82-.5.86Z"/><path class="cls-5" d="M21.59.87c0,.29.05.58.07.87C21.12,1.5,21.11,1.21,21.59.87Z"/><path class="cls-5" d="M45.9,84.5a1,1,0,0,1,.45.9l-.26.1a.61.61,0,0,1-.34-.88Z"/><path class="cls-5" d="M32.37,32.38a1.05,1.05,0,0,1-.9-.47A.85.85,0,0,1,32.37,32.38Z"/><path class="cls-5" d="M46.35,85.4a1,1,0,0,1,.46.88l-.1.08c-.58-.06-.66-.4-.48-.87Z"/><path class="cls-5" d="M.42,86.73a1,1,0,0,1,.45-.88L1,86c.15.45.05.77-.46.89Z"/><path class="cls-5" d="M31.48,31.91a1.09,1.09,0,0,1-1-.44A.88.88,0,0,1,31.48,31.91Z"/><path class="cls-5" d="M157.08,86.76l0-.42a.64.64,0,0,1,.43-.27.62.62,0,0,1,.45.23l0,0A.94.94,0,0,1,157.08,86.76Z"/><path class="cls-5" d="M77.8,87.63a1,1,0,0,1,.47-.88l.11.09a.57.57,0,0,1-.32.9Z"/><path class="cls-7" d="M128.23,152.87v.87a.32.32,0,0,1-.45,0h0a.63.63,0,0,1,0-.9h0A.31.31,0,0,1,128.23,152.87Z"/><path class="cls-5" d="M127.79,152.86c0,.3,0,.6,0,.9C127.32,153.45,127.32,153.15,127.79,152.86Z"/><path class="cls-5" d="M17.17,31a1.08,1.08,0,0,1-1,.39A.94.94,0,0,1,17.17,31Z"/><path class="cls-5" d="M155.22,89.9a1,1,0,0,1,.47-.88A.91.91,0,0,1,155.22,89.9Z"/><path class="cls-5" d="M22.09,6.73a1.25,1.25,0,0,1-.46,1C21.59,7.33,21.63,6.93,22.09,6.73Z"/><path class="cls-5" d="M21.56,8.07a.83.83,0,0,1-.41.92A.91.91,0,0,1,21.56,8.07Z"/><path class="cls-5" d="M115.68,22l0-.86C116.12,21.43,116.1,21.72,115.68,22Z"/><path class="cls-5" d="M27,10.8a1,1,0,0,1-.85-.5A.86.86,0,0,1,27,10.8Z"/><path class="cls-5" d="M28.29,11.76a1.05,1.05,0,0,1-.79-.58C27.87,11.23,28.19,11.34,28.29,11.76Z"/><path class="cls-5" d="M29.66,13.5a1.13,1.13,0,0,1-.55-.88C29.6,12.72,29.67,13.09,29.66,13.5Z"/><path class="cls-5" d="M16.68,13a1.13,1.13,0,0,1-.5.88A.85.85,0,0,1,16.68,13Z"/><path class="cls-5" d="M30.08,14.53a1.37,1.37,0,0,1-.44-1.06C30.1,13.7,30.12,14.1,30.08,14.53Z"/><path class="cls-5" d="M16.18,13.91a1.07,1.07,0,0,1-.42.94A.9.9,0,0,1,16.18,13.91Z"/><path class="cls-5" d="M109.83,13.94a1,1,0,0,1-.94.43A.89.89,0,0,1,109.83,13.94Z"/><path class="cls-8" d="M72.88,106.07l.48.06c-.2.47-.57.45-1,.34a3.57,3.57,0,0,1,.1-.35A.74.74,0,0,0,72.88,106.07Z"/><path class="cls-5" d="M108.89,14.37a1.14,1.14,0,0,1-.89.5A.83.83,0,0,1,108.89,14.37Z"/><path class="cls-5" d="M155.72,108.75a1.06,1.06,0,0,1,.88.48l-.22.18c-.44,0-.78,0-.73-.57Z"/><path class="cls-5" d="M113.35,14.9a1,1,0,0,1-.9-.52C112.85,14.37,113.21,14.44,113.35,14.9Z"/><path class="cls-5" d="M157.07,109.64a1.07,1.07,0,0,1,.88.49l-.25.18a.63.63,0,0,1-.75-.38Z"/><path class="cls-5" d="M158.42,110.54a1.1,1.1,0,0,1,.89.49l-.26.18a.63.63,0,0,1-.75-.39Z"/><path class="cls-5" d="M159.78,111.43a1.13,1.13,0,0,1,.88.5l-.26.18a.64.64,0,0,1-.75-.39Z"/><path class="cls-5" d="M161.13,112.33a1.15,1.15,0,0,1,.88.49l-.25.19a.65.65,0,0,1-.76-.39Z"/><path class="cls-5" d="M114.25,15.36a1,1,0,0,1-.94-.49C113.73,14.82,114.1,14.88,114.25,15.36Z"/><path class="cls-5" d="M162.48,113.23a1.19,1.19,0,0,1,.89.46l-.24.21a.65.65,0,0,1-.78-.38Z"/><path class="cls-5" d="M163.37,113.69a1,1,0,0,1,.88.49l-.23.18c-.44,0-.79,0-.71-.59Z"/><path class="cls-5" d="M164.72,114.59a1,1,0,0,1,.88.49l-.25.18a.63.63,0,0,1-.75-.38Z"/><path class="cls-5" d="M166.08,115.48a1.1,1.1,0,0,1,.88.49l-.26.19a.64.64,0,0,1-.75-.39Z"/><path class="cls-5" d="M106.71,16.19a1.1,1.1,0,0,1-.5.91C106.19,16.7,106.26,16.34,106.71,16.19Z"/><path class="cls-5" d="M167.43,116.38a1.17,1.17,0,0,1,.89.47l-.25.2a.63.63,0,0,1-.77-.38Z"/><path class="cls-5" d="M116.06,17.54a1.24,1.24,0,0,1-.52-.89C116,16.77,116.07,17.13,116.06,17.54Z"/><path class="cls-5" d="M115.61,20.2a1,1,0,0,1,.44-.94A.86.86,0,0,1,115.61,20.2Z"/><path class="cls-5" d="M168.32,116.85a1,1,0,0,1,.88.48l-.23.18c-.43,0-.78,0-.72-.59Z"/><path class="cls-5" d="M175.08,121.32a1.1,1.1,0,0,1,.86.49l0,.06a.7.7,0,0,1-.56.15.72.72,0,0,1-.39-.43Z"/><path class="cls-5" d="M169.67,117.74a1,1,0,0,1,.88.48l-.25.18a.63.63,0,0,1-.75-.37Z"/><path class="cls-5" d="M173.73,120.42a1.13,1.13,0,0,1,.88.5l-.26.18a.63.63,0,0,1-.75-.39Z"/><path class="cls-5" d="M15.78,18.27a1.23,1.23,0,0,1,.44,1C15.77,19.08,15.74,18.69,15.78,18.27Z"/><path class="cls-5" d="M29.58,19.71a1.05,1.05,0,0,1,.5-.92C30.12,19.21,30.06,19.58,29.58,19.71Z"/><path class="cls-5" d="M171,118.63a1.1,1.1,0,0,1,.89.49l-.26.18a.62.62,0,0,1-.75-.38Z"/><path class="cls-5" d="M172.38,119.53a1.1,1.1,0,0,1,.88.49l-.26.18a.63.63,0,0,1-.75-.39Z"/><path class="cls-5" d="M171.91,119.12l.47.41,0,0c-.37.16-.49,0-.52-.36Z"/><path class="cls-5" d="M173.26,120l.47.4,0,0c-.38.16-.5,0-.51-.38Z"/><path class="cls-5" d="M170.55,118.22l.47.41,0,.05c-.35.16-.48,0-.53-.35Z"/><path class="cls-5" d="M174.61,120.92l.47.4,0,.05c-.38.16-.5,0-.51-.38Z"/><path class="cls-5" d="M169.2,117.33l.47.41,0,.06c-.34.13-.48,0-.54-.34Z"/><path class="cls-5" d="M115.59,16.7a.57.57,0,0,1-.46-.52A.63.63,0,0,1,115.59,16.7Z"/><path class="cls-5" d="M29.15,20.17a.62.62,0,0,1,.48-.51A.59.59,0,0,1,29.15,20.17Z"/><path class="cls-5" d="M167,116l.47.41,0,0c-.38.16-.5,0-.51-.37Z"/><path class="cls-5" d="M28.67,20.59a.59.59,0,0,1,.52-.47A.56.56,0,0,1,28.67,20.59Z"/><path class="cls-5" d="M115.16,16.21a.64.64,0,0,1-.46-.49A.69.69,0,0,1,115.16,16.21Z"/><path class="cls-5" d="M107.1,15.72a.6.6,0,0,1-.43.51A.64.64,0,0,1,107.1,15.72Z"/><path class="cls-5" d="M114.72,15.74a.6.6,0,0,1-.52-.43A.63.63,0,0,1,114.72,15.74Z"/><path class="cls-5" d="M165.6,115.08l.48.4,0,0c-.37.16-.49,0-.54-.36Z"/><path class="cls-5" d="M164.25,114.18l.47.41-.05.06c-.34.13-.48-.05-.54-.35Z"/><path class="cls-5" d="M107.55,15.27a.63.63,0,0,1-.46.46C107.24,15.57,107.39,15.42,107.55,15.27Z"/><path class="cls-5" d="M162,112.82l.47.41,0,0c-.38.15-.51,0-.5-.39Z"/><path class="cls-5" d="M160.66,111.93l.47.4,0,0c-.38.16-.5,0-.52-.37Z"/><path class="cls-5" d="M159.31,111l.47.4,0,0c-.37.16-.49,0-.53-.36Z"/><path class="cls-5" d="M108,14.84a.6.6,0,0,1-.5.43Z"/><path class="cls-5" d="M158,110.13l.47.41,0,0c-.36.15-.48,0-.53-.36Z"/><path class="cls-5" d="M156.6,109.23l.47.41,0,.06c-.35.14-.49,0-.54-.36Z"/><path class="cls-5" d="M112.47,14.39a.53.53,0,0,1-.51-.45A.67.67,0,0,1,112.47,14.39Z"/><path class="cls-5" d="M110.29,13.49a.5.5,0,0,1-.48.47A.62.62,0,0,1,110.29,13.49Z"/><path class="cls-5" d="M28.35,21.1c0-.14,0-.29,0-.43a.44.44,0,0,1,.37-.14A.6.6,0,0,1,28.35,21.1Z"/><path class="cls-5" d="M71.08,95.73l.43-.46.11.26a.57.57,0,0,1-.42.32Z"/><path class="cls-5" d="M71.51,95.27l.45-.45.09.28a.45.45,0,0,1-.48.24Z"/><path class="cls-5" d="M72,94.82l.46-.45.08.29a.46.46,0,0,1-.48.23Z"/><path class="cls-5" d="M72.42,94.37l.45-.44.08.28a.45.45,0,0,1-.47.24Z"/><path class="cls-5" d="M17.06,12.56a.58.58,0,0,1-.41.49Z"/><path class="cls-5" d="M119.73,35.44l.45.46L120,36a.54.54,0,0,1-.36-.36Z"/><path class="cls-5" d="M17.48,12.1a.5.5,0,0,1-.4.44Z"/><path class="cls-5" d="M28.75,12.19a.59.59,0,0,1-.5-.48A.59.59,0,0,1,28.75,12.19Z"/><path class="cls-5" d="M17.93,11.65a.48.48,0,0,1-.41.41C17.66,11.92,17.79,11.78,17.93,11.65Z"/><path class="cls-5" d="M72.87,93.93l.45-.45.09.27a.49.49,0,0,1-.47.26Z"/><path class="cls-5" d="M18.41,11.21a.49.49,0,0,1-.44.4Z"/><path class="cls-5" d="M27.45,11.15a.49.49,0,0,1-.5-.37Z"/><path class="cls-5" d="M73.32,93.48l.45-.45.09.27a.49.49,0,0,1-.46.27Z"/><path class="cls-5" d="M73.77,93l.43-.45.06,0c.08.35-.08.49-.41.48Z"/><path class="cls-5" d="M18.91,10.78a.54.54,0,0,1-.48.41Z"/><path class="cls-5" d="M19.48,10.36a.74.74,0,0,1-.58.43A.69.69,0,0,1,19.48,10.36Z"/><path class="cls-5" d="M26.09,10.28a.51.51,0,0,1-.5-.39Z"/><path class="cls-5" d="M20.25,9.87a.44.44,0,0,1-.45.34Z"/><path class="cls-5" d="M25.61,9.91a.6.6,0,0,1-.51-.45A.62.62,0,0,1,25.61,9.91Z"/><path class="cls-5" d="M20.76,9.45a.54.54,0,0,1-.52.43A.67.67,0,0,1,20.76,9.45Z"/><path class="cls-5" d="M25.14,9.49a.57.57,0,0,1-.5-.47A.58.58,0,0,1,25.14,9.49Z"/><path class="cls-5" d="M21.16,9a.54.54,0,0,1-.44.51A.66.66,0,0,1,21.16,9Z"/><path class="cls-5" d="M24.68,9.06a.58.58,0,0,1-.49-.49A.55.55,0,0,1,24.68,9.06Z"/><path class="cls-5" d="M24.23,8.61a.46.46,0,0,1-.37-.54A.63.63,0,0,1,24.23,8.61Z"/><path class="cls-5" d="M75.12,91.23l.43-.46.06,0c.1.35-.07.48-.38.52Z"/><path class="cls-5" d="M112,7.37l-.4-.65A.72.72,0,0,1,112,7.37Z"/><path class="cls-5" d="M154.83,90.34l.4-.45Z"/><path class="cls-5" d="M28.81,30.93c0-.13,0-.26,0-.38l.43.44H29Z"/><path class="cls-5" d="M155.7,89l.42-.51Z"/><path class="cls-5" d="M128.23,152.87h-.45C127.94,152.54,128.09,152.55,128.23,152.87Z"/><path class="cls-5" d="M30.12,31.36a.63.63,0,0,1-.63-.3A.74.74,0,0,1,30.12,31.36Z"/><path class="cls-5" d="M156.18,88.09l.4-.44Z"/><path class="cls-5" d="M127.78,153.76l.45,0C128.1,154.05,128,154.08,127.78,153.76Z"/><path class="cls-5" d="M77.38,88.09l.42-.46.06.05c.11.33-.06.47-.36.53Z"/><path class="cls-5" d="M46.34,88.11c0-.14,0-.27,0-.4a.24.24,0,0,1,.38-.1l.07.07Z"/><path class="cls-5" d="M156.58,87.65l.43-.51Z"/><path class="cls-5" d="M15.92,31.5a.64.64,0,0,1-.62.33A.74.74,0,0,1,15.92,31.5Z"/><path class="cls-5" d="M23.36,2.67c0-.32.19-.43.45-.5Z"/><path class="cls-5" d="M21.62,1.7a.64.64,0,0,1,.47.49A.62.62,0,0,1,21.62,1.7Z"/><path class="cls-5" d="M15,31.94a.6.6,0,0,1-.57.35Z"/><path class="cls-5" d="M14.12,32.4a.74.74,0,0,1-.63.4A.73.73,0,0,1,14.12,32.4Z"/><path class="cls-5" d="M32.81,32.7a.44.44,0,0,1-.46-.33Z"/><path class="cls-5" d="M33.74,33.23a.68.68,0,0,1-.59-.39A.74.74,0,0,1,33.74,33.23Z"/><path class="cls-5" d="M106.16,33.24l.45-.46,0,0a.32.32,0,0,1,.15.31c0,.12,0,.18-.08.18l-.28.09Z"/><path class="cls-5" d="M146.7,78.65l.47.42,0,.05c-.35.13-.48-.05-.52-.36Z"/><path class="cls-5" d="M145.34,77.74l.48.42,0,0a.41.41,0,0,1-.51-.17Z"/><path class="cls-5" d="M12.65,33.28a.54.54,0,0,1-.52.39Z"/><path class="cls-5" d="M144.9,77.31l.44.43-.07.09a.39.39,0,0,1-.49-.4Z"/><path class="cls-5" d="M105.7,33.68l.46-.44.11.11a.51.51,0,0,1-.3.43Z"/><path class="cls-5" d="M84.58,76.39l.42-.45.07,0c.09.34-.08.48-.39.51Z"/><path class="cls-5" d="M142.66,75.5l.46.42-.05.06c-.36.11-.49-.06-.5-.39Z"/><path class="cls-5" d="M86.38,74.15l.44-.45.09.26a.5.5,0,0,1-.42.3Z"/><path class="cls-5" d="M140,73.24l.46.44,0,.06a.43.43,0,0,1-.49-.21Z"/><path class="cls-5" d="M86.82,73.7l.45-.45.09.26a.54.54,0,0,1-.43.31Z"/><path class="cls-5" d="M139.5,72.81l.45.43-.07.08c-.32.05-.46-.1-.48-.41Z"/><path class="cls-5" d="M87.27,73.25l.45-.46.09.27a.5.5,0,0,1-.44.29Z"/><path class="cls-5" d="M87.72,72.79l.45-.45.09.28a.5.5,0,0,1-.46.26Z"/><path class="cls-5" d="M88.17,72.34l.45-.45.09.28a.49.49,0,0,1-.47.25Z"/><path class="cls-5" d="M35.08,34.14a.56.56,0,0,1-.51-.41Z"/><path class="cls-5" d="M88.62,71.89l.45-.45.09.28a.49.49,0,0,1-.47.25Z"/><path class="cls-5" d="M137.25,71l.45.43-.06.07c-.32.08-.46-.08-.51-.38Z"/><path class="cls-5" d="M89.07,71.44c.15-.14.3-.28.44-.43l.11.1c0,.31-.16.46-.47.42Z"/><path class="cls-5" d="M105.24,34.11l.46-.43.07,0a.46.46,0,0,1-.25.49Z"/><path class="cls-5" d="M117.9,33.69l.48.42-.27.12a.51.51,0,0,1-.3-.45Z"/><path class="cls-5" d="M90.84,70.06l.46-.43.1.3a.41.41,0,0,1-.52.18Z"/><path class="cls-5" d="M91.3,69.63l.47-.44.08.29a.43.43,0,0,1-.5.21Z"/><path class="cls-5" d="M91.77,69.19l.44-.43.11.1c0,.31-.17.47-.49.41Z"/><path class="cls-5" d="M11.31,34.19a.58.58,0,0,1-.52.43A.65.65,0,0,1,11.31,34.19Z"/><path class="cls-5" d="M35.51,34.48a.42.42,0,0,1-.42-.34Z"/><path class="cls-5" d="M104.79,34.56l.45-.45.06,0a.42.42,0,0,1-.22.5Z"/><path class="cls-5" d="M118.38,34.11l.46.44-.29.12a.44.44,0,0,1-.23-.51Z"/><path class="cls-5" d="M10.81,34.61a.56.56,0,0,1-.49.4Z"/><path class="cls-5" d="M36.41,35.11a.79.79,0,0,1-.61-.46A.69.69,0,0,1,36.41,35.11Z"/><path class="cls-5" d="M104.35,35l.44-.47.06,0a.44.44,0,0,1-.2.5Z"/><path class="cls-5" d="M118.84,34.55l.45.45-.3.11a.41.41,0,0,1-.2-.53Z"/><path class="cls-5" d="M10.3,35a.48.48,0,0,1-.43.39Z"/><path class="cls-5" d="M36.86,35.55a.62.62,0,0,1-.5-.47A.63.63,0,0,1,36.86,35.55Z"/><path class="cls-5" d="M103.91,35.48l.44-.45.07,0a.44.44,0,0,1-.22.48Z"/><path class="cls-5" d="M119.29,35l.44.44,0,.05c-.41.11-.57,0-.45-.46Z"/><path class="cls-5" d="M2.2,46.28c-.12.21-.24.42-.37.63A.78.78,0,0,1,2.2,46.28Z"/><path class="cls-5" d="M44.48,46.38a.62.62,0,0,1-.46-.51A.58.58,0,0,1,44.48,46.38Z"/><path class="cls-5" d="M2.62,45.82a.51.51,0,0,1-.4.43Z"/><path class="cls-5" d="M44.05,45.9a.57.57,0,0,1-.47-.49A.64.64,0,0,1,44.05,45.9Z"/><path class="cls-5" d="M3.05,45.37a.41.41,0,0,1-.38.4Z"/><path class="cls-5" d="M43.61,45.44a.55.55,0,0,1-.44-.5Z"/><path class="cls-5" d="M4,44.05a.46.46,0,0,1-.37.49C3.73,44.38,3.85,44.21,4,44.05Z"/><path class="cls-5" d="M42.69,44.12a.53.53,0,0,1-.39-.53Z"/><path class="cls-5" d="M4.51,43.15a.81.81,0,0,1-.42.65A.72.72,0,0,1,4.51,43.15Z"/><path class="cls-5" d="M4.84,42.71a.44.44,0,0,1-.34.46C4.61,43,4.73,42.86,4.84,42.71Z"/><path class="cls-5" d="M100.78,42.28l.41.41C101.05,42.56,100.92,42.42,100.78,42.28Z"/><path class="cls-5" d="M41.8,42.75a.54.54,0,0,1-.39-.52Z"/><path class="cls-5" d="M9.8,35.48a.45.45,0,0,1-.39.38Z"/><path class="cls-5" d="M100.75,41.86c0,.13,0,.26,0,.38l-.42-.42.06-.08C100.55,41.65,100.68,41.68,100.75,41.86Z"/><path class="cls-5" d="M5.39,41.79a.78.78,0,0,1-.4.63A.74.74,0,0,1,5.39,41.79Z"/><path class="cls-5" d="M100.29,40.84l.44-.45,0,0c.13.41,0,.56-.43.46Z"/><path class="cls-5" d="M40.45,40.51a.5.5,0,0,1-.36-.51Z"/><path class="cls-5" d="M123.29,39.52c.29.15.31.31,0,.48l-.13-.11,0-.22Z"/><path class="cls-5" d="M6.7,39.53a.5.5,0,0,1-.37.54Z"/><path class="cls-5" d="M122.87,39l.42.48-.11.1a.42.42,0,0,1-.43-.31Z"/><path class="cls-5" d="M37.31,36a.61.61,0,0,1-.48-.48A.65.65,0,0,1,37.31,36Z"/><path class="cls-5" d="M40,39.74a.77.77,0,0,1-.39-.65A.75.75,0,0,1,40,39.74Z"/><path class="cls-5" d="M122.43,38.6l.44.44,0,.06c-.39.09-.54-.06-.46-.45Z"/><path class="cls-5" d="M7.56,38.21a.48.48,0,0,1-.36.47Z"/><path class="cls-5" d="M39.1,38.26a.56.56,0,0,1-.42-.52Z"/><path class="cls-5" d="M103.48,35.93l.43-.45.09.08c0,.31-.11.46-.41.48Z"/><path class="cls-5" d="M38.68,37.74a.42.42,0,0,1-.35-.43Z"/><path class="cls-5" d="M8.14,37.31a.83.83,0,0,1-.45.65A.71.71,0,0,1,8.14,37.31Z"/><path class="cls-5" d="M121,36.82l.45.46-.13.13a.57.57,0,0,1-.41-.33Z"/><path class="cls-5" d="M102.58,37.28l.4-.48.06.05c.16.33,0,.47-.32.56Z"/><path class="cls-5" d="M8.54,36.85a.56.56,0,0,1-.43.5Z"/><path class="cls-5" d="M120.61,36.36c.15.15.29.31.43.46l-.08.09a.5.5,0,0,1-.45-.28Z"/><path class="cls-5" d="M38.18,37.05a.81.81,0,0,1-.47-.62A.68.68,0,0,1,38.18,37.05Z"/><path class="cls-5" d="M8.94,36.38a.51.51,0,0,1-.4.47Z"/><path class="cls-5" d="M120.18,35.9l.43.46,0,.06c-.37,0-.54-.09-.43-.48Z"/><path class="cls-5" d="M37.74,36.47a.59.59,0,0,1-.46-.5A.61.61,0,0,1,37.74,36.47Z"/><path class="cls-5" d="M9.35,35.93a.46.46,0,0,1-.38.41Z"/><path class="cls-5" d="M29.17,12.67a.59.59,0,0,1-.46-.52A.57.57,0,0,1,29.17,12.67Z"/><path class="cls-8" d="M73.37,106.14c0-2.17,0-4.34-.07-6.5,0-.72.25-1.52-.41-2.12,0-1.17,1-1.6,1.8-2.07C80.41,92,86,88.37,91.63,84.84c.71-.44,1.39-1.23,2.42-.73q0,32,0,64c0,1,.24,2.12-.84,2.83-3.21,0-6.43.09-9.64.09l-37.21,0a4,4,0,0,1-.46-2.38q0-13.43,0-26.85c4.42,0,8.86-.18,13.27.14,6.06.45,12.13.22,18.19.38,2,.05,4,.54,6,.37.57,0,1.27.18,1.55-.56a1.52,1.52,0,0,0-.41-1.44q-4.86-6.6-9.69-13.22A4,4,0,0,0,73.37,106.14Z"/><path class="cls-2" d="M94.05,84.11a93.12,93.12,0,0,0-9.13,5.66c-3.91,2.49-8,4.7-11.74,7.43a1.78,1.78,0,0,0-.29.32c-1.66,0-1.66,0-1.69-1.67a.6.6,0,0,0,.37-.51,28.65,28.65,0,0,1,.91-.89.59.59,0,0,0,.46-.44.58.58,0,0,0,.46-.44.6.6,0,0,0,.45-.46.54.54,0,0,0,.41-.48,2,2,0,0,0,1-1.29.6.6,0,0,0,.38-.52,2.24,2.24,0,0,0,1-1.3,2.12,2.12,0,0,0,.94-1.31.6.6,0,0,0,.36-.53,1,1,0,0,0,.52-.84,5.5,5.5,0,0,0,1.31-2.28,1.06,1.06,0,0,0,.5-.86A2.12,2.12,0,0,0,81,82.3a1.09,1.09,0,0,0,.53-.84A2.11,2.11,0,0,0,82.37,80a1,1,0,0,0,.48-.87,2.33,2.33,0,0,0,.88-1.37,2.09,2.09,0,0,0,1-1.3.61.61,0,0,0,.39-.51,3.55,3.55,0,0,0,1.42-1.73.57.57,0,0,0,.44-.44l.44-.47.43-.47a.58.58,0,0,0,.44-.46,28.65,28.65,0,0,1,.91-.89.55.55,0,0,0,.47-.42,2.06,2.06,0,0,0,1.26-1,.54.54,0,0,0,.47-.42,28.9,28.9,0,0,1,1-.83,2.28,2.28,0,0,0,1.3-.94,2.66,2.66,0,0,0,1.4-.85,1.07,1.07,0,0,0,.86-.49,1.06,1.06,0,0,0,.89-.46,1.11,1.11,0,0,0,.93-.42,1.71,1.71,0,0,0,1.3-.5,1.73,1.73,0,0,0,1.34-.46,1.73,1.73,0,0,0,1.38-.41c2.39.13,4.72-.47,7.09-.59a91.31,91.31,0,0,1,10.2.31c1.1.06,2.21.23,3.33.29a2.87,2.87,0,0,0,1.75.5,1.15,1.15,0,0,0,1,.34,2.59,2.59,0,0,0,1.71.56,1.16,1.16,0,0,0,1,.35,1.78,1.78,0,0,0,1.31.49A1.09,1.09,0,0,0,130,67a1,1,0,0,0,.89.46,1.1,1.1,0,0,0,.9.46,1,1,0,0,0,.88.47,1.11,1.11,0,0,0,.89.47,1.12,1.12,0,0,0,.88.46,2.55,2.55,0,0,0,1.38.86,2.3,2.3,0,0,0,1.31.94.61.61,0,0,0,.51.38,4.09,4.09,0,0,0,1.76,1.4.56.56,0,0,0,.48.41.61.61,0,0,0,.48.42,4.81,4.81,0,0,0,2.21,1.85.57.57,0,0,0,.5.39,4.3,4.3,0,0,0,1.71,1.45.58.58,0,0,0,.49.4.55.55,0,0,0,.51.38,1.06,1.06,0,0,0,.82.55.58.58,0,0,0,.52.36,1,1,0,0,0,.83.54,5.16,5.16,0,0,0,2.3,1.29,1,1,0,0,0,.85.51,2.66,2.66,0,0,0,1.79.92,1.11,1.11,0,0,0,1,.34,2.35,2.35,0,0,0,1.75.51,3.15,3.15,0,0,0,1.77.48l.9.86a2,2,0,0,1-.37,1.29.9.9,0,0,1-.51.37,1.21,1.21,0,0,0-.37.11,8.58,8.58,0,0,0-2.41-.47c-5.54-.14-11.07-.35-16.6-.45-6.73-.11-13.46-.48-20.19-.59-6.58-.1-13.15-.52-19.72-.82-.75,0-1.48-.18-2.22-.26S94.56,83.42,94.05,84.11Z"/><path class="cls-9" d="M175.48,121.85a1.19,1.19,0,0,1,.42,0,17.26,17.26,0,0,1,.52,5.07c0,7.07,0,14.15,0,21.22,0,.82-.09,1.63-.14,2.45l-21.88-.06v-33.7c1.47.64,1,2,1,3.09,0,1.45.61,2.29,2.06,2.37a151.13,151.13,0,0,0,16.76,0A2.74,2.74,0,0,0,175.48,121.85Z"/><path class="cls-2" d="M175.48,121.85c.1,1-.36,1.35-1.31,1.32-1.19,0-2.38,0-3.57,0H160.08c-.52,0-1,0-1.56,0-3.74-.15-3.73-.15-3.78-3.92,0-.8.22-1.65-.35-2.37,0-1.91,0-3.82,0-5.73a4.06,4.06,0,0,1,.42-2.35l.86.07a1.12,1.12,0,0,0,.84.5.6.6,0,0,0,.54.36,1,1,0,0,0,.82.53.59.59,0,0,0,.53.36,1.07,1.07,0,0,0,.83.53.58.58,0,0,0,.53.36,1.07,1.07,0,0,0,.83.53.6.6,0,0,0,.52.37,1.13,1.13,0,0,0,.85.51.59.59,0,0,0,.5.39,1.25,1.25,0,0,0,.87.49,1.06,1.06,0,0,0,.82.53.61.61,0,0,0,.54.35,1,1,0,0,0,.83.52.59.59,0,0,0,.54.36,1.06,1.06,0,0,0,.84.52.58.58,0,0,0,.51.37,1.14,1.14,0,0,0,.86.5,1.09,1.09,0,0,0,.83.54.61.61,0,0,0,.54.34,1.06,1.06,0,0,0,.83.53.56.56,0,0,0,.53.35,1.07,1.07,0,0,0,.84.53.57.57,0,0,0,.52.36,1.05,1.05,0,0,0,.84.52.59.59,0,0,0,.51.38,1.17,1.17,0,0,0,.84.52.62.62,0,0,0,.51.38Z"/><path class="cls-2" d="M127.39,151.08l-8.14-.1c0-3.67,0-7.34,0-11,0-1.15.5-1.5,1.59-1.65a30.18,30.18,0,0,1,4.93-.2c1.47,0,1.62.18,1.65,1.76,0,2.62.08,5.24,0,7.86C127.36,148.86,127.72,150,127.39,151.08Z"/><path class="cls-10" d="M105.74,134.38c0-1,0-1.94,0-2.91a2,2,0,0,1,1-1.87c1.13-.75,1.91-.64,2.65.48a4.64,4.64,0,0,1,.8,2.3c.15,2.75.37,5.5.49,8.26.08,1.94,0,1.94-2,1.93-3,0-2.46-.18-2.55-2.39A53.63,53.63,0,0,1,105.74,134.38Z"/><path class="cls-11" d="M110.63,113.91c0,.68,0,1.35,0,2s.44,1.86-.51,2.21a5.83,5.83,0,0,1-3.53,0c-.48-.13-.4-.75-.41-1.19,0-2.91,0-5.82,0-8.74a2.58,2.58,0,0,1,1.84-2.48c.85-.14,1.78.61,2.1,2A22.42,22.42,0,0,1,110.63,113.91Z"/><path class="cls-4" d="M139.41,140.05v.22c0,2.21-.73,2.73-2.84,2.08a1.25,1.25,0,0,1-1.07-1.24c-.1-3-.28-6-.31-8.93,0-1.49,1.06-2.94,1.92-2.92s1.89,1.37,1.92,3A60.3,60.3,0,0,0,139.41,140.05Z"/><path class="cls-10" d="M135.48,112.94c0-1.34,0-2.68,0-4,0-1.11.73-1.59,1.63-1.85s1.37.35,1.84,1a3,3,0,0,1,.57,1.88c0,2.31,0,4.62,0,6.93,0,1-.31,1.56-1.4,1.47-.52,0-1,0-1.57,0-.74,0-1.06-.39-1.06-1.11,0-1.42,0-2.83,0-4.25Z"/><path class="cls-11" d="M125.1,113.08c0,1.35,0,2.69,0,4,0,.85-.39,1.14-1.22,1.2-2.2.17-2.49,0-2.41-2.25s-.52-4.3-.39-6.47a4.91,4.91,0,0,1,.33-2,1.81,1.81,0,0,1,1.74-1.17c.89,0,1.31.51,1.61,1.28a6.14,6.14,0,0,1,.34,2.2c0,1,0,2.09,0,3.13Z"/><path class="cls-2" d="M46.73,87.61a1,1,0,0,0-.38.1c-1.05,0-2.09-.12-3.14-.12l-39.94.16a4.7,4.7,0,0,0-2.4.4A.69.69,0,0,0,.51,88c0-.39,0-.77.05-1.16A1.26,1.26,0,0,0,1,86a2.61,2.61,0,0,0,.77-1.46l.49-.39L45,83.66l.8,1a1.19,1.19,0,0,0,.48.87,1.12,1.12,0,0,0,.48.87C46.72,86.78,46.73,87.19,46.73,87.61Z"/><path class="cls-2" d="M21.56,62.72c0-2.54,0-5.07,0-7.61a3.41,3.41,0,0,1,1.29-3,3.33,3.33,0,0,1,5.39,2.56c.22,5.59,0,11.19,0,16.78a.79.79,0,0,1-.85.84l-.44,0c-1.71,0-3.74.49-5-.64-1.05-.94-.31-2.83-.38-4.3s0-3.13,0-4.7Z"/><path class="cls-2" d="M8.06,72.9V67.74c0-3.36,0-6.71,0-10.07a4.76,4.76,0,0,1,1.56-3.8c.56-.5,1.12-1,2-.61a1.83,1.83,0,0,1,1,1.84c0,3.36.09,6.72,0,10.07,0,2,.53,4,.37,6-.13,1.61-.1,1.65-1.63,1.71C10.31,72.92,9.29,72.9,8.06,72.9Z"/><path class="cls-11" d="M36.72,63.32c0-2.68,0-5.36,0-8a1.55,1.55,0,0,1,1.11-1.72c.79-.22,1.22.4,1.64.91a2.89,2.89,0,0,1,.58,1.89c.14,5,.3,10,.45,15a8.38,8.38,0,0,1,0,1.12c0,.21-.1.52-.24.59-.89.39-1.73-.16-2.61-.19-.67,0-.66-.71-.66-1.23,0-2.76,0-5.52,0-8.28Z"/><path class="cls-2" d="M120.13,35.94a.59.59,0,0,0,.43.48.58.58,0,0,0,.4.49.59.59,0,0,0,.4.5,2.51,2.51,0,0,0,1,1.24.53.53,0,0,0,.46.45l.35.52a.32.32,0,0,0,0,.27.42.42,0,0,0-.3.2,6.31,6.31,0,0,1-3-.41A24.4,24.4,0,0,0,106,39.51c-1.91.52-3.48,1.65-5.27,2.35a.81.81,0,0,0-.37-.12l0-.85c.14-.15.29-.3.43-.46a2,2,0,0,0,1-1.29,1.06,1.06,0,0,0,.5-.86,1.17,1.17,0,0,0,.48-.87c.1-.19.21-.38.32-.56a1.19,1.19,0,0,0,.55-.81.56.56,0,0,0,.41-.48.58.58,0,0,0,.42-.48.58.58,0,0,0,.43-.47.58.58,0,0,0,.45-.45.58.58,0,0,0,.47-.43.55.55,0,0,0,.5-.38.58.58,0,0,0,.36-.12,2.11,2.11,0,0,1,.47-.42h0a13.5,13.5,0,0,1,8.05-.41,1.16,1.16,0,0,0,.91.42,1.05,1.05,0,0,0,.89.45,1.06,1.06,0,0,0,.86.5.59.59,0,0,0,.51.38.61.61,0,0,0,.47.42l.45.45.45.46A.59.59,0,0,0,120.13,35.94Z"/><path class="cls-12" d="M108.87,53.72a30.38,30.38,0,0,1-.33,5.8A2.34,2.34,0,0,1,106,61.05c-1.16-.14-1.14-1-1.11-1.84.09-3.12-.22-6.26.33-9.37.25-1.43.74-1.88,2-1.82s1.62.54,1.66,2.12C108.89,51.34,108.87,52.53,108.87,53.72Z"/><path class="cls-13" d="M119.23,54.85V49.94c0-.81.17-1.6,1.14-1.58s1,.8,1.19,1.59c.37,1.87-.06,3.71,0,5.56,0,1.56-.05,3.13-.09,4.69,0,.55-.12,1.11-.82,1.07s-1.42-.14-1.43-1.06c0-1.79,0-3.57,0-5.36Z"/><path class="cls-1" d="M107.1,32.81a.44.44,0,0,1-.47.42c0-.14,0-.29,0-.43Z"/><path class="cls-1" d="M157.42,86.23a.55.55,0,0,1,.51-.37,3.23,3.23,0,0,1,0,.44Z"/><path class="cls-10" d="M72.44,137.11c0-1.8,0-3.6,0-5.4a3.46,3.46,0,0,1,4-3.57,3.53,3.53,0,0,1,3.06,4.2,9.62,9.62,0,0,0,0,3.78,6.19,6.19,0,0,1,.06,2.23,10.76,10.76,0,0,0,0,4.45c.25,1-.15,1.56-1.29,1.52-1.5-.06-3,0-4.5,0-1,0-1.36-.42-1.35-1.36,0-1.95,0-3.89,0-5.84Z"/></g></g></svg>