<svg xmlns="http://www.w3.org/2000/svg" viewBox="0 0 141.74 198.98"><defs><style>.cls-1{fill:#4f4943;}.cls-2{fill:#c27b3d;}.cls-3{fill:#9f6533;}.cls-4{fill:#e9bf7b;}.cls-5{fill:#f0deae;}.cls-6{fill:#c78448;}.cls-7{fill:#eedbab;}.cls-8{fill:#ead2a1;}.cls-9{fill:#ebd4a2;}.cls-10{fill:#c58144;}.cls-11{fill:#c47e41;}.cls-12{fill:#c47f42;}.cls-13{fill:#c58245;}.cls-14{fill:#c58043;}.cls-15{fill:#c68347;}.cls-16{fill:#c68346;}.cls-17{fill:#c48043;}.cls-18{fill:#c68447;}</style></defs><title>kommune</title><g id="Layer_2" data-name="Layer 2"><g id="Layer_1-2" data-name="Layer 1"><path class="cls-1" d="M.15,121.94C-.15,108.38.09,94.83.09,81.27c0-4.42.12-8.83.06-13.25C.09,63,.36,58,.5,53a3.56,3.56,0,0,1,2.31-3.3C5.2,48.6,7.57,47.46,10,46.49c3.76-1.49,7.45-3.15,11.17-4.71,1-.41,1.38-.84,1.31-2-.43-6.88-.41-13.77-.21-20.66a48.91,48.91,0,0,0-.08-6.29c-.2-2.09,0-2.25,1.87-2.94C31.31,7.28,38.84,5.55,46.13,3c2.61-.9,5.26-1.74,7.83-2.76a3.79,3.79,0,0,1,3,.13c5.8,2.18,10.81,5.78,16.12,8.85,2.53,1.46,5,3.1,7.47,4.57a3.29,3.29,0,0,1,1.63,2.49c.49,2.53.2,5.08.51,7.62a3,3,0,0,0,2,2.82c4.72,2,8.83,5.05,13.23,7.61,4.93,2.85,10,5.42,14.84,8.44q5.43,3.4,10.6,7.19a74.75,74.75,0,0,0,7.16,4.63c2.73,1.56,5.37,3.28,8.08,4.87a4.18,4.18,0,0,1,2.12,3.27c.54,4.38,1.24,8.74.91,13.19-.25,3.36,0,6.73-.26,10.1-1,12.47-.68,25-1.52,37.48-.94,13.85-.54,27.71-.89,41.56-.19,7.33-.41,14.67-.3,22,0,2.06-.63,2.62-2.69,2.69a45.18,45.18,0,0,0-6.84,1.23c-12.66,2.41-25.4,4.34-38.14,6.27a27.72,27.72,0,0,0-5.9,1.34,7.62,7.62,0,0,1-2.88.37q-29.91-.25-59.81-.53c-4.8,0-9.59-.26-14.38-.4-.75,0-1.5-.12-2.25-.17-3.34-.24-4-1.47-4.36-4.29a83.66,83.66,0,0,1-.31-8.52C.88,172.94.51,160.81.47,148.68.44,139.76.39,130.85.15,121.94Z"/><path class="cls-2" d="M42.41,7c4-1.29,8-2.17,12.08-3.91,0,2,0,3.61,0,5.25,0,4.12-.08,8.24.09,12.36s.58,8.34.92,12.51a5.45,5.45,0,0,0,.37,1.52c.43,1.06,1.2,1.45,2.12.91,2.9-1.68,6.15-2.22,9.32-3.07,3.61-1,7.19-2,10.79-3,1.59-.45,1.64-.45,1.65,1.23,0,6.29.49,12.56.52,18.85A92.45,92.45,0,0,0,81,61.24a8.69,8.69,0,0,1,0,.89c.12,8.91.6,17.8.56,26.71-.1,18.86.06,37.72-.13,56.57-.06,6.43-.61,12.87-.29,19.29.31,6,.12,12,.43,18,.2,3.87.85,7.72.93,11.7-.77.52-1.68.26-2.54.26q-34.52,0-69,0a47.64,47.64,0,0,0-4.92.34c-1.8.18-1.95,0-1.95-1.77,0-5.31.06-10.63.06-15.95,0-19.55.14-39.1-.15-58.65-.1-7-.41-13.92-.19-20.87.45-14.67.16-29.34.34-44a2.3,2.3,0,0,1,1.71-2.48c5.58-2.16,11.22-4.15,16.65-6.69a3.11,3.11,0,0,0,2.12-3c.15-2,.15-3.89.16-5.83.05-7.11.05-14.23.06-21.34,0-2.38,0-2.39,2.34-3,2.8-.78,5.62-1.53,8.43-2.3.85.84.74,1.94.72,3-.3,15.21.51,30.4.51,45.61,0,21.49.23,43,.55,64.48.2,14.3.08,28.6.29,42.9,0,2,.39,3.88.47,5.82.07,1.46.86,2,2.2,1.89s2.81-.06,3-1.95a19.38,19.38,0,0,0,.08-2c0-9.29.31-18.59-.07-27.86-.7-16.7.13-33.41-.47-50.1-.58-16.11.14-32.21-.46-48.3-.39-10.79-.18-21.56-.35-32.34A8.59,8.59,0,0,1,42.41,7Z"/><path class="cls-3" d="M83.29,28.53a26.15,26.15,0,0,1,5.13,2.93c6.11,4.33,12.69,7.9,19.09,11.76a152.36,152.36,0,0,1,13.8,9.19c4.35,3.3,9.12,6,13.68,9a4.42,4.42,0,0,1,2.32,4.41c-.14,2.38.19,4.81,0,7.18-.46,5-.06,10-.53,15-.74,7.9-.58,15.82-.9,23.73-.24,6-.31,11.94-.85,17.89-.79,8.52-.19,17.05-.41,25.57-.08,2.92.17,5.86-.06,8.76-.57,7.1-.32,14.21-.38,21.31,0,1-.18,1.63-1.42,1.76-3.18.33-6.35.82-9.52,1.28-4.64.67-9.29,1.33-13.92,2.06-4.86.77-9.71,1.62-14.56,2.42-2.57.43-5.14.83-7.72,1.25-1.55.25-1.77,0-1.91-1.56-1.35-15.08-.91-30.2-.79-45.31,0-3.64.49-7.31.3-11-.67-12.57-.27-25.14-.39-37.71,0-1.66.55-3.25.41-4.9-.62-7.69-.15-15.41-.53-23.1-.16-3.21-.09-6.43-.4-9.62-.81-8.42-.85-16.86-.83-25.3C82.87,33.31,83.58,31.16,83.29,28.53Z"/><path class="cls-4" d="M42.41,7c.66.69.41,1.56.42,2.35,0,6.82-.11,13.64.07,20.45.49,18.64.06,37.29.51,55.92.4,16.25-.11,32.5.43,48.73.39,11.83.14,23.65.35,35.47.06,3.26,0,3.4-3.32,3.48-4.09.1-3.32.31-3.51-3.18-.75-13.76,0-27.55-.47-41.31-.56-16.62,0-33.24-.48-49.85C36,65.8,36.5,52.54,36,39.31c-.4-10.1-.19-20.2-.36-30.3Z"/><path class="cls-3" d="M59.12,32.1c-1.58-9.76-1.74-19.56-2.48-29.59a51,51,0,0,1,4.74,2.4c5.45,3.52,11.08,6.76,16.43,10.44a2.84,2.84,0,0,1,1.48,2.94c-.16,1.33.08,2.68-.34,4a3.48,3.48,0,0,0,0,1.54c.34,2.24.38,2.33-1.66,3.06a98.09,98.09,0,0,1-12.48,3.44C62.92,30.76,61.25,31.85,59.12,32.1Z"/><path class="cls-5" d="M76.58,105.53c.45,5.69.34,11.38.42,17.07,0,1.17,0,2.16-1.37,2.68a2.37,2.37,0,0,0-1.36,2.58c.09,2.92,0,5.85.1,8.77A3.37,3.37,0,0,1,73,139.94a4.7,4.7,0,0,0-.94.95.51.51,0,0,0,0,.79.84.84,0,0,0,.6.18c1.25-.23,3.39-2.76,3.36-4.06A70.91,70.91,0,0,0,75.8,130c-.28-2.1-.13-2.36.9-3.38.53.38.3.94.31,1.41,0,2.7,0,5.4.06,8.1.11,6.81.25,13.62.37,20.43,0,.45,0,.91,0,1.35.11,1.13-.33,1.64-1.51,1.63a32.55,32.55,0,0,0-3.81.28c-3,.31-6,.42-8.95.65-1,.08-1.55-.26-1.47-1.38a19,19,0,0,0,0-2.92,3.33,3.33,0,0,1,1.45-3.3,2.57,2.57,0,0,0,.73-.84.55.55,0,0,0-.14-.79.83.83,0,0,0-.62-.07A4.69,4.69,0,0,0,60.32,155a17.35,17.35,0,0,1-.23,3.81c-.19.76.28,2.09-1.19,1.93s-.76-1.43-.79-2.18c-.11-2.55-.06-5.1-.07-7.65a119.27,119.27,0,0,0-.3-12.11,3.66,3.66,0,0,1,2-3.89,2.72,2.72,0,0,0,1.47-3c-.17-2.08-.23-4.18-.41-6.27-.1-1.23.09-2.2,1.44-2.65a3.1,3.1,0,0,0,1.07-.78.67.67,0,0,0,0-.62.71.71,0,0,0-.55-.32,3.88,3.88,0,0,0-3.43,3.44c0,2.4.11,4.79.14,7.19,0,1.28,0,1.28-1.43,2.14-.5-.27-.35-.77-.36-1.18,0-8.69,0-17.38-.11-26.07a2.48,2.48,0,0,1,1.61-2.6c2.14-1,2.23-1.18,1.88-3.44s-.17-4.34-.34-6.5a2.28,2.28,0,0,1,1.33-2.55c.58-.29,1.75-.63,1.25-1.52-.6-1-1.41,0-2.12.25-1.89.6-2.48,1.94-2.15,3.82a48.59,48.59,0,0,1,.39,6.72c0,1.16-.35,1.87-1.61,1.92a3.44,3.44,0,0,1-.22-2c0-7.12,0-14.24-.1-21.36,0-1.54.2-2.81,1.66-3.6,1-.55,1.09-1.52,1.09-2.53,0-3.07.08-6.15,0-9.22,0-1.45.26-2.42,1.72-3,.68-.26,1.94-.62,1.4-1.61s-1.42,0-2.1.32c-2.14.9-2.93,2.46-2.75,4.82.2,2.68.06,5.39,0,8.09,0,.63.25,1.35-.56,2-.78-.62-.68-1.51-.69-2.34q0-5.73,0-11.47c0-3.29,0-6.59,0-9.89a2.43,2.43,0,0,1,1-2.29A4.09,4.09,0,0,0,60,45c-.16-1.71-.06-3.45-.2-5.16-.06-.66.09-1,.67-1.18l15-5A32.58,32.58,0,0,1,75.73,40c0,.53-.36.77-.75,1-.71.43-1.39.89-2.08,1.35-.42.29-1,.6-.69,1.21s1,.29,1.56,0a6.18,6.18,0,0,1,1.83-.87c.74.57.41,1.38.41,2.07.09,9.67,0,19.34.24,29,.13,5.47.26,10.93.31,16.4,0,1.15,0,2.16-1.17,2.91-1,.61-1,1.76-1,2.84,0,2.85,0,5.7,0,8.54,0,1.25,0,2.39-1.32,3a.71.71,0,0,0-.31,1.12c.37.48.82.21,1.2,0,1.21-.69,2.3-1.46,2.18-3.09C76.28,105.34,76.43,105.33,76.58,105.53Z"/><path class="cls-5" d="M23.45,75.49q0,12.58.07,25.17c0,1.3,0,2.46-1.36,3.22-.85.46-.89,1.47-.88,2.41,0,2.47,0,4.94,0,7.42,0,1.17.23,2.43-1.13,3.16a.61.61,0,0,0-.06,1c.27.26.54.08.8-.07a2.87,2.87,0,0,0,1.75-2.84c-.12-2.76,0-5.54,0-8.31,0-.7-.23-1.5.46-2,.58.19.44.61.45.93.13,8.31.23,16.63.39,24.94,0,1.08-.08,1.75-1.31,2.09a2.07,2.07,0,0,0-1.42,2.29c.08,2.55,0,5.1.09,7.64a3.93,3.93,0,0,1-1.46,3.75c-.34.25-.81.65-.44,1.1.5.62.94,0,1.32-.27a4.18,4.18,0,0,0,1.93-4c-.2-2.54-.08-5.1-.09-7.64,0-.81-.1-1.71,1.13-1.79a4.82,4.82,0,0,1,.25,2.45c0,7.11.06,14.23.11,21.35,0,1.57.18,3.14.25,4.7,0,.91-.38,1.35-1.33,1.42-3.36.25-6.71.59-10.06.83-2,.14-2,.08-2-1.95,0-.6.06-1.2,0-1.79a3.51,3.51,0,0,1,1.37-3.37c.36-.27,1-.69.42-1.24s-1,.07-1.34.41a4.09,4.09,0,0,0-1.61,2.82c-.12,1.35-.14,2.69-.17,4a1.27,1.27,0,0,1-1.13,1.41c-.73.15-1.18,0-1.2-.85,0-.3,0-.6,0-.9,0-6.07,0-12.14,0-18.21a2.57,2.57,0,0,1,1.18-2.46,4.6,4.6,0,0,0,2.08-5,28.39,28.39,0,0,1-.08-2.92c-.08-1.64-.37-3.34,1.65-4.17a.56.56,0,0,0,.17-.94c-.24-.26-.51-.21-.81-.08-1.83.76-2.38,1.58-2.36,3.59s0,3.9.12,5.85a2.05,2.05,0,0,1-1.57,2.3c-.54-.57-.34-1.2-.34-1.76,0-7.49,0-15,0-22.48a2.53,2.53,0,0,1,1.64-2.8,2.41,2.41,0,0,0,1.6-2.82c-.2-2,.1-4-.29-6a1.86,1.86,0,0,1,1.1-2.38,1.72,1.72,0,0,0,1-.84.94.94,0,0,0,.07-.63c-.14-.3-.43-.34-.76-.25A3.25,3.25,0,0,0,9,104.47c.08,2.1.06,4.2.14,6.29.05,1.14-.3,1.88-1.53,2.07-.55-.37-.32-.94-.32-1.41,0-6.67,0-13.34,0-20a2.54,2.54,0,0,1,1.3-2.59,2.23,2.23,0,0,0,1.11-2.27c0-2.54,0-5.09,0-7.64,0-1.69.21-3.3,2.15-4a1.12,1.12,0,0,0,.52-.42.77.77,0,0,0,.14-.6.66.66,0,0,0-.53-.31,4,4,0,0,0-3.36,3.58c0,2.77,0,5.54,0,8.32,0,.87.11,1.81-1,2.22-.49-.66-.26-1.34-.26-2,0-6.29,0-12.59,0-18.88a3.33,3.33,0,0,1,1.11-3,3.46,3.46,0,0,0,1.19-3.22c-.1-1.19,0-2.4-.07-3.59a1.65,1.65,0,0,1,1.32-2c4.08-1.27,8.12-2.63,12.17-4,.63,1.8.17,3.66.27,5.5.08,1.27-1.52.76-1.78,1.65,1.21-.74,1.87-.71,1.83,1.11-.09,4.62,0,9.25,0,13.88A4.58,4.58,0,0,0,23.45,75.49Z"/><path class="cls-6" d="M23.45,75.49a3.76,3.76,0,0,1-.32-2.4c0-4.92,0-9.85,0-15.07-1,.61-1.72,1.07-2.46,1.51-.34.19-.74.29-1-.06s-.06-.72.23-1c.89-.77,1.74-1.65,3.09-1.42V51.15c.65.37.52,1,.52,1.59Q23.48,64.11,23.45,75.49Z"/><path class="cls-7" d="M57.23,47.48a54.39,54.39,0,0,1,.32-7.8c1,1.21.66,2.61.6,3.9S59.21,46.22,57.23,47.48Z"/><path class="cls-8" d="M7.24,62.88a31.11,31.11,0,0,1,.38-6.56c.9,1.63.47,3.39.58,5.08A1.25,1.25,0,0,1,7.24,62.88Z"/><path class="cls-9" d="M76.58,105.53h-.45c0-3.43,0-6.86,0-10.29,0-.2.12-.41.46-.61Z"/><path class="cls-4" d="M72.54,20.15c-.12,1.78-.42,3.9-2.63,5.12a3.78,3.78,0,0,1-4.57-.38c-2.73-2.13-3.88-8.11.08-10.94a3.26,3.26,0,0,1,4.29,0A7.38,7.38,0,0,1,72.54,20.15Z"/><path class="cls-10" d="M61.94,86.65a1.71,1.71,0,0,1-.52-.38.63.63,0,0,1,.09-.82,7.63,7.63,0,0,1,1.47-1,2.55,2.55,0,0,0,1.55-2.69c-.09-2.69,0-5.38,0-8.07,0-.88-.23-1.89.69-2.46a9.06,9.06,0,0,1,3.49-1.43c.16,0,.41.18.53.35a.56.56,0,0,1-.1.8,4.45,4.45,0,0,1-1.35.77c-1.32.4-1.6,1.28-1.57,2.55.09,2.77,0,5.54.06,8.3a2.52,2.52,0,0,1-1.5,2.69A12.34,12.34,0,0,1,61.94,86.65Z"/><path class="cls-11" d="M70.35,59.25a50.78,50.78,0,0,0-.54-6,2.86,2.86,0,0,1,2-3.29c.63-.24,1.21-.6,1.82-.88a.87.87,0,0,1,1.2.24c.31.5-.07.85-.44,1.1a6.8,6.8,0,0,1-1.38.74,2.13,2.13,0,0,0-1.49,2.4c0,2.7.46,5.37.51,8.06,0,.88.27,1.9-.6,2.5a10.53,10.53,0,0,1-4,1.86.59.59,0,0,1-.67-.47A.66.66,0,0,1,67,64.7c.78-.45,1.56-.88,2.38-1.25a1.37,1.37,0,0,0,1-1.73A12,12,0,0,1,70.35,59.25Z"/><path class="cls-10" d="M68.25,37.67a.67.67,0,0,1,.58,1,1.52,1.52,0,0,1-1,.86c-1.47.52-1.7,1.61-1.65,3,.1,2.54-.07,5.1.09,7.63a3,3,0,0,1-1.82,3.21c-.6.31-1.14.71-1.74,1a.64.64,0,0,1-.93-.33.69.69,0,0,1,.09-.83,3.75,3.75,0,0,1,1.07-.8c1.4-.62,1.64-1.71,1.59-3.11-.1-2.62-.09-5.24,0-7.86C64.53,39.69,66.67,37.6,68.25,37.67Z"/><path class="cls-12" d="M67.06,96.89a.82.82,0,0,1-.68-.56.7.7,0,0,1,.28-.79,17.64,17.64,0,0,1,1.85-1.25,2.22,2.22,0,0,0,1.24-2.4c-.24-2.46-.29-4.92-.39-7.38a2.76,2.76,0,0,1,2-3.09c.71-.25,1.38-.58,2.07-.87a.74.74,0,0,1,1,.27c.25.39,0,.73-.3,1a3.83,3.83,0,0,1-1.16.66c-1.61.45-1.91,1.55-1.82,3.07.13,2.32,0,4.65.15,7a2.82,2.82,0,0,1-1.7,3.06C68.7,96,68,96.75,67.06,96.89Z"/><path class="cls-10" d="M73.8,112.8a1.19,1.19,0,0,1-.84,1c-1.33.5-1.4,1.54-1.38,2.73,0,2.61,0,5.23,0,7.84,0,.73.2,1.59-.53,2.07A24.2,24.2,0,0,1,68.15,128c-.28.14-.56-.1-.73-.38a.54.54,0,0,1,.09-.62c.13-.17.28-.4.47-.46,2-.57,2-2.08,1.91-3.74-.09-2.61,0-5.23,0-7.84,0-1.16,2.39-3.06,3.47-2.81A.57.57,0,0,1,73.8,112.8Z"/><path class="cls-13" d="M66.26,109.39c0,1.12,0,2.24,0,3.36,0,.72.29,1.55-.38,2.12a10.74,10.74,0,0,1-3.1,1.78.75.75,0,0,1-.62-1.31,2.77,2.77,0,0,1,.75-.49,2.86,2.86,0,0,0,1.9-3.35c-.18-2-.12-4-.32-6-.17-1.74.4-2.92,2.07-3.48.78-.26,1.72-1.5,2.31-.53.72,1.16-.8,1.48-1.55,1.91a1.92,1.92,0,0,0-1.1,2c.07,1.34,0,2.69,0,4Z"/><path class="cls-14" d="M62.85,147.76c-.55-.11-.76-.46-.55-1a1.59,1.59,0,0,1,1-.85c1.39-.49,1.61-1.56,1.51-2.86-.15-2.08-.15-4.18-.35-6.25a2.84,2.84,0,0,1,2-3.32c.55-.22,1-.61,1.56-.87a.6.6,0,0,1,.79.23.74.74,0,0,1,0,.84,2.45,2.45,0,0,1-1.26.89,2,2,0,0,0-1.29,2.31c.07,2.54.08,5.08.08,7.62C66.28,145.76,64.08,147.79,62.85,147.76Z"/><path class="cls-15" d="M69.78,152.57c0-1.49,0-3,0-4.47a2.2,2.2,0,0,1,1.34-2.33c.67-.31,1.27-.78,1.91-1.15.39-.22.86-.48,1.18,0a.88.88,0,0,1-.39,1.32,4.62,4.62,0,0,1-.78.43c-1.73.54-2,1.83-1.74,3.36a50.1,50.1,0,0,1,.27,7.14,3.23,3.23,0,0,1,0,.44c0,.67,0,1.53-.9,1.49s-.82-.91-.83-1.57c0-1.56,0-3.13,0-4.69Z"/><path class="cls-10" d="M15.74,79.56c-.28-.18-.54-.26-.61-.42a.73.73,0,0,1,.08-.62,3.59,3.59,0,0,1,1.65-1.11,1.92,1.92,0,0,0,1.22-2.13c-.06-2.47-.58-4.9-.46-7.38,0-.73-.21-1.56.52-2.07a10.59,10.59,0,0,1,3-1.53.42.42,0,0,1,.5.33,1.07,1.07,0,0,1,0,.64,2.11,2.11,0,0,1-1.25.9c-1.19.46-1.36,1.33-1.37,2.5,0,2.32.48,4.61.47,6.92,0,.81.25,1.75-.57,2.28C17.86,78.52,16.77,79,15.74,79.56Z"/><path class="cls-16" d="M17.1,83.6a.94.94,0,0,1-.7.79c-1.78.48-1.93,1.76-1.86,3.32.09,2.24,0,4.49,0,6.74a4,4,0,0,1-3.17,3.47c-.31,0-.62-.06-.7-.39a1,1,0,0,1,.17-.6.62.62,0,0,1,.32-.3c2-.75,2.13-2.39,2.05-4.21-.09-2.24,0-4.5,0-6.74,0-1.31,2.36-3,3.53-2.59A.51.51,0,0,1,17.1,83.6Z"/><path class="cls-17" d="M17.46,102.77a41.3,41.3,0,0,1-.24-6.53,3.82,3.82,0,0,1,3.42-3.63.69.69,0,0,1,.52.3.77.77,0,0,1,0,.63,2.57,2.57,0,0,1-1.43,1,1.81,1.81,0,0,0-1.18,1.93,54.29,54.29,0,0,0,.16,6.26A3,3,0,0,1,17,106.22c-.65.36-1.41,1.55-2,.75-.76-1,.66-1.37,1.26-1.88S17.65,104.16,17.46,102.77Z"/><path class="cls-16" d="M16.17,54.27c.42.08.64.33.51.77a.84.84,0,0,1-.39.52c-1.85.75-1.82,2.28-1.76,3.91.08,2.16.06,4.33,0,6.5a4.07,4.07,0,0,1-3,3.14c-.42,0-.71-.25-.54-.72a1,1,0,0,1,.38-.53c2-1,1.87-2.79,1.82-4.6s-.08-3.88,0-5.82A3.5,3.5,0,0,1,16.17,54.27Z"/><path class="cls-6" d="M16.92,111.45a1,1,0,0,1-.67,1.12c-1.76.73-1.75,2.18-1.69,3.73.07,1.86.06,3.74.09,5.61,0,1.33-1.74,3.08-3,3-.42,0-.7-.32-.49-.77a1.32,1.32,0,0,1,.58-.65c1.54-.72,1.81-1.82,1.57-3.47a39.51,39.51,0,0,1-.08-6.06c0-1.07,2.27-3,3.25-2.82C16.65,111.13,16.8,111.35,16.92,111.45Z"/><path class="cls-16" d="M16.14,135.17c-.42-.07-.69-.27-.53-.75,0-.13.12-.32.23-.36,2.3-1,1.78-3,1.79-4.77s.06-3.72,0-5.58a1.9,1.9,0,0,1,1.24-2.12c.57-.23,1.2-1.1,1.74-.44s-.39,1.09-.87,1.43a2.12,2.12,0,0,0-.74,2c0,2.46,0,4.92,0,7.37A3.81,3.81,0,0,1,16.14,135.17Z"/><path class="cls-16" d="M12.06,152.75c-.42-.06-.73-.23-.56-.72a1,1,0,0,1,.4-.52c2-.87,1.76-2.59,1.51-4.2a30.3,30.3,0,0,1-.2-4c0-2.16.6-3.06,2.63-3.82.28-.11.59-.21.79.11a.69.69,0,0,1-.06.83c-.08.12-.18.28-.3.32-2,.67-1.8,2.29-1.7,3.86s.25,3.43.28,5.14A3.54,3.54,0,0,1,12.06,152.75Z"/><path class="cls-18" d="M17.57,157.17c0-1.27,0-2.54,0-3.81a4.11,4.11,0,0,1,2.91-3.46.7.7,0,0,1,.57.24.78.78,0,0,1,.08.62.87.87,0,0,1-.43.49c-2,.76-1.82,2.45-1.78,4.11s0,3.59,0,5.38a10,10,0,0,1-.05,1.34c-.05.38-.25.73-.72.66a.63.63,0,0,1-.52-.64c-.05-1-.06-2.09-.07-3.14,0-.6,0-1.2,0-1.79Z"/></g></g></svg>