<svg xmlns="http://www.w3.org/2000/svg" viewBox="0 0 213.87 117.6"><defs><style>.cls-1{fill:#eccb96;}.cls-2{fill:#fff;}.cls-3{fill:#ddae76;}</style></defs><title>petanque</title><g id="Layer_2" data-name="Layer 2"><g id="Layer_1-2" data-name="Layer 1"><path class="cls-1" d="M134.76,34.63c-7.07,2.33-12.49,6.8-17.07,12.88-2.44-15.88-7.26-30.24-20.25-40.95,5-1.19,9.58-2.32,14.21-3.39A70.82,70.82,0,0,1,137,2.31a12.07,12.07,0,0,1,6,2.77,18.36,18.36,0,0,0,12.88,4.54c13.16-.3,26.31-.86,39.46-1.2,5.65-.15,11.3,0,17.29,0,.2,1.82.63,4.11.67,6.41.27,14.41.61,28.81.6,43.21,0,6.44-.35,6.56-6.62,6.58-22.56,0-42.86,6.85-61.15,20-4.79,3.45-10,6.35-14.86,9.67-4.53,3.08-9,6.33-13.34,9.62a18.71,18.71,0,0,1-9.62,3.79,14.83,14.83,0,0,0-1.81.42c3.51,1.47,6.49,1,12.13-1.7a12.93,12.93,0,0,1-7.47,7.34,47.07,47.07,0,0,1-22.69,3.71c-15.19-1.3-29.38-6.29-43.41-11.87-4.79-1.91-9.53-3.94-14.37-5.72a13.56,13.56,0,0,1-8.6-8.15C20.31,87,18.83,82.1,17.37,77.26c-.21-.7.31-1.62.5-2.44.79.37,2,.53,2.29,1.14a102.06,102.06,0,0,1,4.1,9.49c.25.69-.47,1.75-.93,3.25,1-.68,2.06-1,2.43-1.73,2.48-4.76-2.84-13.75-8.28-14,.48-2.54,2.17-3.6,4.54-3.82A11,11,0,0,1,32,73.34C36.52,78.78,40.15,84.67,40.9,92a8.56,8.56,0,0,0,.45,1.55H42l.64-6c7,4.81,15.28,4,23,5.57,3.4.71,7,.5,10.38,1.21a11.64,11.64,0,0,1,5.27,2.88,62.11,62.11,0,0,1,5.4,6.54,15.48,15.48,0,0,0,2.74,2.81,27.34,27.34,0,0,0-8.77-13.31l10.38-5.45c-.58,3.72-.51,7,2.65,9.62-2.07-6.13-.83-11,5-14.5.62,7.58,1.88,10.71,5.94,14-.61-1.71-1-2.89-1.43-4-1.3-3.35-2.69-6.72-1.75-10.4a6.36,6.36,0,0,1,1.81-3.07c8-6.88,13.65-15,14.49-25.86a7.44,7.44,0,0,1,1.08-3c2.9-5.1,7.18-8.92,11.7-12.52C131.92,36.92,133.33,35.77,134.76,34.63Z"/><path class="cls-2" d="M195.88,37.67l.05-.66c-2.62,0-5.24,0-7.86,0a19.38,19.38,0,0,1-13.4-4.4,31.89,31.89,0,0,0-15.13-6.73A19.38,19.38,0,0,0,144.63,29c2.44-.33,4.83-1,7.26-1.27,8.21-.89,15.41,2.18,21.55,7C180.64,40.4,188.18,38.71,195.88,37.67Z"/><path class="cls-3" d="M33.32,9.84c-.53,8.63.78,16.7,5.49,24.07-.06-.49-.07-1-.17-1.46A11.81,11.81,0,0,0,38.2,31a51.43,51.43,0,0,1-2.74-20.91A4.54,4.54,0,0,1,37,7.36c.63,3.81.94,7.72,2,11.42s2.79,7.14,4.24,10.7l.92-.36q-.78-2.32-1.58-4.63c-1.72-5.07-3.17-10.19-3-15.62.13-3.44.19-3.43,3.92-4.69,1.12,8.06,2.84,15.94,7.18,23-.37-1.48-.78-2.95-1.1-4.44Q47.69,14,45.87,5.19c-.23-1.13-.16-2.05,1.28-2.48C65.11-2.68,85.29-.72,99.67,15,110.9,27.2,115.31,42,112.36,58.66c-1,5.31-1.25,5.58-6.43,4.39-5.8-1.33-11.47-3.3-17.19-5a43.28,43.28,0,0,0-4.9-1.35,54.26,54.26,0,0,0,25.43,9c-.29,1.91-1.23,2.35-3,2.25-9.4-.56-18-3.78-26.53-7.47a41.06,41.06,0,0,0-5.55-2.08,49.47,49.47,0,0,0,15.24,7.88c5.42,1.71,11,3,16.5,4.39a5.16,5.16,0,0,1-5.52,2.65c-8.63-.93-16.91-2.79-24.38-7.44a3.12,3.12,0,0,0-1.56-.44c7.16,7.07,16.39,8.85,26.36,10.1a20.32,20.32,0,0,1-2.09,1.78q-9,5.55-18.1,11a13,13,0,0,1-9.38,1.41c-6.3-1.13-12.65-2-19-3a15.7,15.7,0,0,1-11.57-7.84,68.45,68.45,0,0,0-5.12-7.39c-3.62-4.5-8.2-7.22-14.22-7a2.44,2.44,0,0,1-1.8-1.17c-1.7-3.28-3.47-6.46-6.63-8.62a2.28,2.28,0,0,1-.68-1.47C9.85,38.18,19.41,17.73,32.57,9.93A3,3,0,0,1,33.32,9.84Z"/><path class="cls-2" d="M76.34,4.49c-6.17,22-18.81,39.69-34.82,55.33A52,52,0,0,0,57.79,45.21C64.9,35.55,71.72,25.64,75,13.9,75.87,10.88,75.92,7.63,76.34,4.49Z"/><path class="cls-2" d="M79.3,14.19a6.82,6.82,0,0,0-.37.88A60.93,60.93,0,0,1,66.54,39.86C60,47.7,52.77,55,45.82,62.47c-.9,1-1.94,1.81-2.91,2.71A1.42,1.42,0,0,0,44.35,65c12.16-8.78,22.47-19.27,29.78-32.48C77.29,26.85,79.45,20.79,79.3,14.19Z"/><path class="cls-2" d="M69.19,6.48C63.86,27,52.45,43.09,35.51,55.58a6.48,6.48,0,0,0,2.35-.82C53.65,45.66,63,31.66,68.24,14.58,69,12,68.89,9.19,69.19,6.48Z"/><path class="cls-1" d="M15.85,90.44c-1-1.29-2.25-2.44-2.82-3.88-2.75-7-5.41-13.94-7.88-21-1-2.72.52-5,3.36-6.3,2.13-1,3.9-.19,5.55,2.42.48.78.84,1.63,1.29,2.42.88,1.55.79,2.78-.21,4.47-3,5.11-2.42,10.55-.55,15.93.64,1.84,1.35,3.66,2,5.5Z"/><path class="cls-1" d="M8.52,46v8.06a7.65,7.65,0,0,0-6.76,5.24C.12,55.35-1,51.94,1.42,48.51,3.06,46.24,5.32,45.31,8.52,46Z"/><path class="cls-1" d="M8.6,42.9c-1.62.38-2.6-.38-2.53-2a42.67,42.67,0,0,1,.85-8.31c.49-2,2.24-3,4.59-2C10.53,34.71,9.57,38.78,8.6,42.9Z"/></g></g></svg>