<svg xmlns="http://www.w3.org/2000/svg" viewBox="0 0 272.32 89.01"><defs><style>.cls-1{fill:#edcc96;}.cls-2{fill:#c27b3d;}.cls-3{fill:#f0deaf;}.cls-4{fill:#ae5f1b;}</style></defs><title>planetarium</title><g id="Layer_2" data-name="Layer 2"><g id="Layer_1-2" data-name="Layer 1"><path class="cls-1" d="M227.72,89c-7.56.17-15.09-.49-22.65-.58-3.5,0-7-.18-10.53-.31-6.57-.24-13.16-.3-19.73-.58-4.71-.21-9.43,0-14.12-.41-5.16-.43-10.33,0-15.46-.46-4.94-.39-9.89,0-14.8-.44-5.16-.42-10.33,0-15.46-.46-4.87-.4-9.72-.2-14.58-.4-1.93-.08-3.87-.25-5.8-.38-.88-1-.71-2.24-.71-3.42,0-2.16-.07-4.32,0-6.48-.13-6.2-.07-12.4,0-18.6,0-1.91-.94-3.84.08-5.73,1.82-1.1,3.94-.95,5.88-1,12.09-.33,24.15-1.23,36.24-1.49,2.52-.06,5,1.09,7.52.31,4.64-.07,9.27-.41,13.9-.59,6.57-.26,13.13-.75,19.71-.84,1.35,0,2.65-.48,4-.39.73.05,1.1-.35,1.09-1.09s0-1.2,0-1.8q0-12.26-.07-24.5c0-2.57,0-2.6,2.5-3,2.21-.38,4.47-.27,6.7-.52,4.82-.53,9.68-.68,14.52-1.06,4.54-.36,9.07-.83,13.6-1.23a30,30,0,0,1,3.15-.09,5.19,5.19,0,0,0,3.18-.88c.92,0,1.63.22,1.56,1.36.69,15.2.6,30.41.5,45.61-.05,8.69.8,17.36.48,26.05C228.4,86.74,228.61,88,227.72,89Z"/><path class="cls-2" d="M94.11,50.78c1,8.08.41,16.19.48,24.28a4.12,4.12,0,0,1-3,.73H3.12a4.06,4.06,0,0,1-3-.72L.05,54.18C2.88,34.66,12.26,19.73,31.1,12.42,47.66,6,63,9.4,76.72,20.51l1.73,1.43c2.1.74,3.22,2.59,4.55,4.15A51.25,51.25,0,0,1,94.06,48.57,4.47,4.47,0,0,1,94.11,50.78Z"/><path class="cls-3" d="M227.72,89c0-5.09.24-10.2,0-15.28-.85-15.64,0-31.29-.51-46.92-.15-4.15.06-8.36-.6-12.5-.1-.64.25-.77.73-.86.76-.57,1.45-.11,2.09.22,6.89,3.5,14,6.49,20.9,10,1.46.74,2.75,1.59,2.72,3.5.62,17.21-.74,34.4-.3,51.61A23.86,23.86,0,0,0,253,82.3a80.14,80.14,0,0,1-10.09,2.78Z"/><path class="cls-1" d="M253,82.3c-.6-.12-1.51.09-1.12-1.08a8.26,8.26,0,0,0,.17-2.67c0-8.68-.28-17.38.1-26,.32-7.32.22-14.63.37-21.95,0-1.39-.64-2.79,0-4.17,2.19-.82,4.41-.13,6.59,0,3.12.18,6.24.43,9.35.78,1,.12,2.34,0,2.45,1.58,0,12.27,0,24.54-.08,36.81,0,2.75-.22,5.51-.31,8.27a6.33,6.33,0,0,0,.14,2c.4,1.27-.12,1.75-1.28,2.06C263.91,79.33,258.44,80.82,253,82.3Z"/><path class="cls-3" d="M94.11,50.78a28.54,28.54,0,0,1-1.25-4.72A50.87,50.87,0,0,0,81.63,25.38c-1-1.16-2.12-2.29-3.18-3.44l24.74,4.53c1-.64,2.06-.23,3.06,0,10.53,1.94,21.07,3.83,31.58,5.85.93.18,2,.18,2.66,1a2,2,0,0,0-1,1.85q.08,5.94,0,11.89c0,1.21.52,1.57,1.63,1.5.82-.05,1.64,0,2.46,0-.46.53-1.09.41-1.67.42-1.72,0-3.45.06-5.17,0-5.53-.24-11,.43-16.55.59-3.35.09-6.73,0-10,.39s-6.87.14-10.28.46C98,50.57,96,50.76,94.11,50.78Z"/><path class="cls-4" d="M.14,75.07H94.59q.19,4.95,0,9.9c-10.79,0-21.58.13-32.36.1q-20.34,0-40.68-.25c-6.52,0-13-.2-19.55-.32-1.94,0-2,0-2-2C.06,80-.12,77.53.14,75.07Z"/><path class="cls-2" d="M270.92,28.75c-.38-.82-1.11-.86-1.89-.92q-6.81-.45-13.63-1c-1-.08-1.92-.31-2.87-.47a2.29,2.29,0,0,0-1.51-1.8L227.3,13.42c-.3-.54-1.15-.24-1.39-.89,2.86-5.78,7.23-9.9,13.51-11.63,8-2.22,15.27-.25,21.55,5a25.09,25.09,0,0,1,9.13,17.87c.06.72-.11,1.57,1,1.68a1.21,1.21,0,0,1,1.23,1.32C272.31,27.77,272.09,28.62,270.92,28.75Z"/><path class="cls-2" d="M140.49,33.29c-3.88-.68-7.77-1.35-11.64-2.05l-23.7-4.34c-.66-.12-1.31-.29-2-.43,0-.12,0-.24,0-.36s.18-.37.26-.55a21.36,21.36,0,0,1,9.26-11.19c8.24-4.79,18.33-3.7,23.94,6.51a19.21,19.21,0,0,1,2.54,9c0,1,0,1.89,1.31,2.21C141.15,32.22,141,32.88,140.49,33.29Z"/><path class="cls-3" d="M103.47,25.56a.48.48,0,0,1-.26.55A.47.47,0,0,1,103.47,25.56Z"/><path class="cls-2" d="M142.19,74.11c-2.24,0-4.48,0-6.72,0-1.5,0-1.7-.22-1.71-1.7,0-3.88,0-7.77,0-11.65,0-1,.33-1.43,1.41-1.51,4.32-.34,8.64-.31,13-.33,1.75,0,1.76,0,1.81,1.73.13,3.87.28,7.75.37,11.62,0,1.88,0,1.9-1.83,1.92-2.09,0-4.19,0-6.28,0Z"/><path class="cls-2" d="M175.61,66.68c0,2.17,0,4.34,0,6.52,0,.89-.27,1.44-1.27,1.4-4.34-.17-8.69.21-13-.31-1.21-.14-1.49-.63-1.48-1.7,0-4,0-8.1,0-12.15,0-1.53.07-1.56,1.73-1.59,2.78,0,5.55-.09,8.32,0,1.44,0,2.82-.34,4.25-.35,1.05,0,1.48.4,1.46,1.46,0,2.25,0,4.5,0,6.75Z"/><path class="cls-2" d="M117,59.31c1.87,0,3.74,0,5.62,0,1.64,0,1.69,0,1.7,1.6,0,3.74,0,7.48,0,11.22,0,1.1-.3,1.64-1.51,1.62-3.82-.06-7.64-.06-11.45-.05-1,0-1.43-.27-1.57-1.36-.49-3.81-.21-7.62-.32-11.43,0-1.18.58-1.58,1.67-1.56,1.94,0,3.89,0,5.83,0Z"/><path class="cls-2" d="M96.41,39.53c0-1.57,0-3.14,0-4.71s.38-1.75,1.79-1.57c2.15.26,4.28.63,6.41,1a1.78,1.78,0,0,1,1.66,2c-.06,2.92,0,5.83,0,8.75,0,1.34-.43,1.86-1.53,1.63-2.21-.45-4.47-.22-6.68-.66A1.66,1.66,0,0,1,96.43,44c0-1.5,0-3,0-4.49Z"/></g></g></svg>