<svg xmlns="http://www.w3.org/2000/svg" viewBox="0 0 111.73 94.6"><defs><style>.cls-1{fill:#eccb96;}.cls-2{fill:#c17b3d;}.cls-3{fill:#cf9661;}.cls-4{fill:#dfb27a;}.cls-5{fill:#f2e1cd;}.cls-6{fill:#e6cbb3;}.cls-7{fill:#deb17a;}.cls-8{fill:#c6854a;}.cls-9{fill:#e4c6ab;}.cls-10{fill:#e6cab1;}.cls-11{fill:#e8ceb7;}.cls-12{fill:#ddae76;}</style></defs><title>stones</title><g id="Layer_2" data-name="Layer 2"><g id="Layer_1-2" data-name="Layer 1"><path class="cls-1" d="M.65,78.4c-1.51-3.78-.25-7,2.29-9.75a89.08,89.08,0,0,1,11.6-10.53,15.1,15.1,0,0,1,4.12-2.27C24,54,29.33,51.91,35,51.11a26.92,26.92,0,0,1,8.82,0c.94.18,1.92,0,2.84.48A4,4,0,0,1,49,54.53c.29,2.26.42,4.54-1,6.57-.39-.54,0-1,.16-1.47.37-1.2.22-1.8-.58-2.09a1.64,1.64,0,0,0-2.07,1.08c-.51,1.73-1.25,3.36-1.8,5.07a2.25,2.25,0,0,0-.08,1c.14,1.29.45,1.55,1.73,1.5a.85.85,0,0,1,.64.11,21.08,21.08,0,0,1-4,6.58c-.8,1-1.64,1.91-2.46,2.86-1.18-1.82-2.36-2-4-.47a16.54,16.54,0,0,1-3.09,2.21c-2.57,1.46-5.28,2.64-7.87,4.06-1.58.87-3.37.86-5.1,1.12A15.71,15.71,0,0,1,9.06,81.17c-1.3-.73-2.73-1.23-4-2a6.66,6.66,0,0,1-3-3.75c-.25-.63-.45-1.72-1.11-1.6S.83,74.93.7,75.55c-.2,1,.51,1.86.23,2.84A.17.17,0,0,1,.65,78.4Z"/><path class="cls-1" d="M49,76.39a3.77,3.77,0,0,1-1.16-2.8c-.27-3.23.78-6.19,2-9.11a105.18,105.18,0,0,1,6-12.74C58,48,60.94,45.18,65.42,44.36a18.47,18.47,0,0,1,9.57,1,35.8,35.8,0,0,1,12.63,7.92c1,1,2,2,2.95,3a5.47,5.47,0,0,0-2.24,2.81,19.12,19.12,0,0,1-2.94,4.75,3.33,3.33,0,0,0-.94,1,2.27,2.27,0,0,1-.18.25,44.72,44.72,0,0,1-7.64,6.21,10.51,10.51,0,0,0-2,1.48,30.35,30.35,0,0,1-11.75,4.49,10.73,10.73,0,0,1-5.31-.28c-1.32-.41-2.63-.87-3.9-1.4a7.66,7.66,0,0,1-3.17-2.61,7.92,7.92,0,0,0-1.35-1.48c-.52-.42-.81-.33-.82.37a6.8,6.8,0,0,0,.46,3.3C49,75.59,49.27,76,49,76.39Z"/><path class="cls-1" d="M61.59,30.37A20.27,20.27,0,0,1,64.08,22c.88-1.59,2.61-2.14,4.22-2.55a42.48,42.48,0,0,1,10.8-1.65c4,0,7.91-.39,11.88-.25a43.15,43.15,0,0,1,14.86,2.82c1,.41,2.25.35,2.9,1.47a.44.44,0,0,1-.41.1c-1.08-.28-1.08-.28-1.07.89,0,.85-.07,1.71,0,2.56.27,2.83-1.26,4.52-3.56,5.75-2.71,1.08-5.61,1.18-8.45,1.57-4.32.59-8.71.49-13,1.26a22.46,22.46,0,0,1-4,.26c-3.3,0-6.57.33-9.86.28-1.12,0-2.22.29-3.35.23a5.25,5.25,0,0,1-2.25-.62A1.66,1.66,0,0,1,61.72,32,2.19,2.19,0,0,0,61.59,30.37Z"/><path class="cls-1" d="M19.06,47c-3-1.49-3.88-3.92-2.46-7.3a23.68,23.68,0,0,1,6.92-9.07c4.62-3.84,10.18-5.37,15.89-6.53a45.39,45.39,0,0,1,11-.9,11,11,0,0,1,3.92.66,1.62,1.62,0,0,0,.08,1.51c1.58,3.15.85,6.07-.76,9a9.57,9.57,0,0,1-4.39,4.32,6.45,6.45,0,0,0-1.17.67c-4.72,3.4-10.3,4.07-15.79,5-1.52.26-3,.54-4.52.9a40.57,40.57,0,0,1-6.09.94A5.31,5.31,0,0,0,19.06,47Z"/><path class="cls-1" d="M84.89,81.76c1.11-3.8,4-6.26,6.85-8.63a55.38,55.38,0,0,0,6.07-5.27,15,15,0,0,1,4.37-3.08c1.78-.9,3.35-.31,4.72.92a20.21,20.21,0,0,1,4,4.68,5.68,5.68,0,0,1,.36,5.34c-1.15.66-1.74,1.84-2.59,2.79-2.53,2.58-4.86,5.36-7.3,8a10.68,10.68,0,0,1-1.48,1.37c-1,.78-1.8,1.67-2.75,2.45-2,1.69-5.33,2.47-7.7-.18-.8-.89-1.61-1.76-2.37-2.68a2.94,2.94,0,0,1-.71-2.39A3.09,3.09,0,0,0,84.89,81.76Z"/><path class="cls-1" d="M31.44,21.34c-1.65-1.8-1.47-3.86-.73-5.93,1-2.73,3.11-4.49,5.35-6.15,3.09-2.3,6.6-3.78,10.06-5.37A46.06,46.06,0,0,1,63.48,0,7.63,7.63,0,0,1,66.6.8a1.15,1.15,0,0,1,.8,1,1.11,1.11,0,0,0-1.41,1c-.35,1.26-.83,2.48-1.26,3.72a12.38,12.38,0,0,1-7.89,8,94.73,94.73,0,0,1-13.93,3.81C39,19.05,35.23,20.21,31.44,21.34Z"/><path class="cls-2" d="M49,76.39a8.22,8.22,0,0,1-.9-4.64c0-.31-.14-.74.27-.89s.65.12.9.33a5.55,5.55,0,0,1,1.1,1.12c1.29,2,3.24,3,5.43,3.87a14.34,14.34,0,0,0,9.08.48,31,31,0,0,0,9.75-4.08,54.52,54.52,0,0,0,8.86-6.72,5.45,5.45,0,0,0,.81-.92h0c.25-.42.64-.71.9-1.12a28.64,28.64,0,0,0,3.57-6.06,2.06,2.06,0,0,1,1.84-1.4c.4.44.79.89,1.19,1.34,2.35,2.71,2.39,5.58.58,8.58a20,20,0,0,1-4.73,5.38,53.9,53.9,0,0,1-6.29,4.27c-4.61,3.15-9.94,4.47-15.21,6A17.4,17.4,0,0,1,54,80.84,9.79,9.79,0,0,1,50.1,78Z"/><path class="cls-2" d="M103.81,30.79A10.39,10.39,0,0,0,105.94,29a3.22,3.22,0,0,0,1-2.29c0-1.63,0-3.26,0-4.9,0-.25-.24-.55,0-.73s.55.12.81.22.56.5,1,.5c2.56,2.59,2.61,5.77,1.93,9a5.31,5.31,0,0,1-3.1,3.37,27,27,0,0,1-7.84,2.24c-6.94,1.32-13.92,1.12-20.92,1a78.78,78.78,0,0,0-10.07.47,14.63,14.63,0,0,1-5.36-.16c-2-.51-2.49-1.29-2.2-3.33,0-.3.12-.59.18-.88s.14-.72.45-.35c1.4,1.65,3.28,1.44,5.09,1.34,3.43-.21,6.85-.36,10.29-.43a54.7,54.7,0,0,0,7.11-.6c2-.32,4.08-.39,6.13-.51,3.61-.21,7.19-.67,10.76-1.22A6.76,6.76,0,0,0,103.81,30.79Z"/><path class="cls-1" d="M88.31,41.57a2.37,2.37,0,0,1,2.23-1.13,18.24,18.24,0,0,1,5.21.51,26.6,26.6,0,0,0,8.35.24c2.65-.26,5.53,1.09,6.58,3.31a2.61,2.61,0,0,1,.32,1.39,13.5,13.5,0,0,1-1.35,5.33.77.77,0,0,1-.19-.55,22.54,22.54,0,0,1-4.23,4,5.25,5.25,0,0,1-5.84.21,19,19,0,0,1-8.81-10.63l-.33-1A2.13,2.13,0,0,0,88.31,41.57Z"/><path class="cls-2" d="M.89,78.38a10.61,10.61,0,0,1-.47-4.51c0-.29,0-.64.34-.75s.56.2.71.43a8.63,8.63,0,0,1,.9,1.66,6.57,6.57,0,0,0,2.75,3.66,29.47,29.47,0,0,0,7.57,3.57c2.29.71,4.59.21,6.89.08a15.54,15.54,0,0,0,7.29-2.29c1.88-1.14,4-1.92,5.86-3.06A16.18,16.18,0,0,0,35.6,75a2.44,2.44,0,0,1,3.06-.55A1.12,1.12,0,0,1,39.31,76a76,76,0,0,1-5.19,5.57,28.74,28.74,0,0,1-15.9,5.59,21.8,21.8,0,0,1-13.78-4.5A9.33,9.33,0,0,1,.89,78.38Z"/><path class="cls-2" d="M19.06,47c.12-.79.76-.84,1.35-.9,5.58-.55,11-2.08,16.52-2.87,4.36-.61,8.13-2.49,11.93-4.59,3-1.64,4.52-4.08,5.72-7a7.46,7.46,0,0,0-.35-6c-.16-.38-.29-.77-.44-1.15-.23-.58.17-.61.57-.65,2.58,1.17,4,3.05,3.7,6a21.58,21.58,0,0,1-1.93,7.88c-1.5,3-4.14,4.54-7.31,5.44A164.73,164.73,0,0,1,26,47.56C23.64,47.87,21.27,48.25,19.06,47Z"/><path class="cls-2" d="M31.44,21.34c.09-.6.59-.56,1-.68C37.59,19.2,42.78,18,48,16.83a56.15,56.15,0,0,0,10.42-3.4C61.89,11.89,63.48,9,64.7,5.68c.42-1.12.77-2.27,1.14-3.4C66.29,1,66.29,1,67.4,1.8a4.72,4.72,0,0,1,0,4.83,44.51,44.51,0,0,1-5.23,8.85,8.89,8.89,0,0,1-5.94,3.09,91.18,91.18,0,0,0-11.78,2.77,41.5,41.5,0,0,1-9.72,1.48A4.21,4.21,0,0,1,31.44,21.34Z"/><path class="cls-2" d="M99.77,87.63a87.06,87.06,0,0,0,6-6.45,34,34,0,0,1,2.73-2.77c.43-.39.87-1.32,1.27-1,.56.38-.23,1-.44,1.48a46.9,46.9,0,0,1-3,5.47c-2.2,3.25-4.39,6.51-7.68,8.81C95.87,95.05,93,95,90,93.63c-.27-.12-.54-.26-.81-.4a9.72,9.72,0,0,0-1.14-.63c-3.28-2.07-4.59-6-3.38-10.15.25-.59.57-.74,1-.2a3.15,3.15,0,0,1,.74,2.62,3.45,3.45,0,0,0,1,3c.71.77,1.41,1.54,2.13,2.31,2.13,2.27,4.45,1.92,6.8.54A11.75,11.75,0,0,0,99.77,87.63Z"/><path class="cls-2" d="M88.31,41.57a1.06,1.06,0,0,1,1.61.41,4.35,4.35,0,0,1,.6,1.2,19.23,19.23,0,0,0,3.65,7,15.26,15.26,0,0,0,6.08,4.8c2.52,1.06,4.64,0,6.48-1.83a28.73,28.73,0,0,0,3-3.23c.31.55-.18.89,0,1.3-.22.56-.48,1.1-.66,1.67-1.14,3.66-3.71,5.37-7.46,5.46-.3,0-.6,0-.89,0-3.62.42-5.91-1.28-7.32-4.49-.93-2.13-2.55-3.85-3.59-5.94-.65-1.31-1.2-2.65-1.72-4A2.52,2.52,0,0,1,88.31,41.57Z"/><path class="cls-2" d="M46.05,66.3c-2,.58-3.11-.3-2.65-2.28a50.83,50.83,0,0,1,2-5.8A2,2,0,0,1,47,57.13a1.47,1.47,0,0,1,1.72,1.73,22.08,22.08,0,0,1-.66,2.24A29.54,29.54,0,0,1,46.05,66.3Z"/><path class="cls-3" d="M103.81,30.79c-1.21,1.12-2.79,1.11-4.26,1.33-4.9.74-9.85.88-14.76,1.43-3.38.38-6.74.55-10.13.65-3.2.11-6.4.38-9.6.41a4,4,0,0,1-3.22-1.24c-.31-.36-.32.1-.48.12.07-1,.15-2.08.23-3.12.7.45.46,1.17.34,1.73a1.39,1.39,0,0,0,.81,1.64c1.37.84,2.87.66,4.36.55.41,0,.81-.1,1.22-.12,4.47-.16,9,0,13.41-.55,4.25-.48,8.52-.66,12.76-1.2C97.63,32,100.79,31.86,103.81,30.79Z"/><path class="cls-4" d="M39.31,76a1.72,1.72,0,0,0-2.42-1.49,2.78,2.78,0,0,0-1.06.6,15.38,15.38,0,0,1-3.44,2.47c-2.81,1.47-5.52,3.3-8.51,4.21C18.8,83.3,13.57,83.89,8.63,81c-1.17-.69-2.64-.88-3.51-2.08,2,1,3.89,2,5.93,2.84a11.68,11.68,0,0,0,6.33.81c1.5-.24,3-.31,4.54-.47a8.34,8.34,0,0,0,2.86-.91c2.67-1.34,5.3-2.75,7.94-4.16a12.89,12.89,0,0,0,2.85-2.14,2.49,2.49,0,0,1,3.06-.59,1.38,1.38,0,0,1,.91,1.49Z"/><path class="cls-5" d="M.89,78.38C4.77,84.07,10.29,86.63,17,87c5.93.28,11.12-1.8,16-4.82.34-.22.7-.41,1.06-.61A10.24,10.24,0,0,1,30,84.29,29.69,29.69,0,0,1,21.49,87c-5.25.61-10.26.12-14.89-2.73C4.14,82.77,1.94,81.06.65,78.4Z"/><path class="cls-6" d="M50.1,78a16.89,16.89,0,0,0,10.84,4.44,15.7,15.7,0,0,0,4.87-.57A105.49,105.49,0,0,0,76,78.66a38.38,38.38,0,0,0,4.36-2.27c.33-.17.6-.45,1-.46A15.81,15.81,0,0,1,75.92,79c-4,1.39-8,3-12.26,3.52a16.58,16.58,0,0,1-13.07-3.74C50.34,78.57,50.06,78.35,50.1,78Z"/><path class="cls-7" d="M99.77,87.63a8.33,8.33,0,0,1-7.55,4.26,4.28,4.28,0,0,1-2.49-1.4c-1-1-1.94-2-2.89-3.1a2.93,2.93,0,0,1-.56-2.22,4.08,4.08,0,0,0-.56-2.68c-.35-.48-.67-.5-1,0a.73.73,0,0,1,.21-.69c.79-.23,1.08.43,1.33.89A3.17,3.17,0,0,1,86.63,85,2.26,2.26,0,0,0,87,87a18.9,18.9,0,0,0,3.41,3.68,5.15,5.15,0,0,0,6.34-.41C97.76,89.38,98.77,88.51,99.77,87.63Z"/><path class="cls-8" d="M106.31,84.32c.65-1.25,1.31-2.49,2-3.73.53-1,1.06-2,1.64-3.16-.7.16-.87.83-1.41,1a12.67,12.67,0,0,1,2.4-2.91c.24-.23.27.07.33.22h0c-.17.29-.24.62-.39.92s-.27.63-.55.85c-1,1.84-2,3.68-3,5.5A3.65,3.65,0,0,1,106.31,84.32Z"/><path class="cls-9" d="M87.61,71.66a45.64,45.64,0,0,0,4.73-5.38A12.39,12.39,0,0,1,87.61,71.66Z"/><path class="cls-10" d="M88.06,92.6a1.33,1.33,0,0,1,1.14.63A1.42,1.42,0,0,1,88.06,92.6Z"/><path class="cls-11" d="M110.29,77.49a1.86,1.86,0,0,1,.48-.88q.11-.17.21,0C110.82,77,110.76,77.38,110.29,77.49Z"/><path class="cls-1" d="M111,76.61h-.21a1.3,1.3,0,0,1,.46-.89A1.24,1.24,0,0,1,111,76.61Z"/><path class="cls-12" d="M84.26,64.94A10.09,10.09,0,0,1,81,68.23c-1.81,1.41-3.73,2.7-5.61,4a3.13,3.13,0,0,1-.82.33,16.8,16.8,0,0,1,2.87-2.08A60.4,60.4,0,0,0,84.26,64.94Z"/><path class="cls-12" d="M85.16,63.82a1.65,1.65,0,0,1-.9,1.12A1.47,1.47,0,0,1,85.16,63.82Z"/></g></g></svg>