<svg xmlns="http://www.w3.org/2000/svg" viewBox="0 0 329.52 138.04"><defs><style>.cls-1{fill:#f0deae;}.cls-2{fill:#c27b3d;}.cls-3{fill:#efddad;}.cls-4{fill:#e9bf7b;}.cls-5{fill:#f1ffff;}.cls-6{fill:#fdfdfd;}.cls-7{fill:#e9c17e;}.cls-8{fill:#eac483;}.cls-9{fill:#c88346;}.cls-10{fill:#c27c3e;}.cls-11{fill:#c37c3e;}</style></defs><title>смолгу</title><g id="Layer_2" data-name="Layer 2"><g id="Layer_1-2" data-name="Layer 1"><path class="cls-1" d="M328,27.94l0,1.74c.26.25.17.66.42.92v0a54.52,54.52,0,0,1,.43,8.47c.15,9.8,0,19.61-.29,29.4-.34,10.71-.22,21.4-.35,32.1a1.67,1.67,0,0,1-.23,1.07v0a3.47,3.47,0,0,1-.48.72,2.58,2.58,0,0,1-.72.5,12.68,12.68,0,0,1-4.67.42q-42.63,0-85.26,0c-2,0-4.07-.26-5.34,1.92-.33.57-1.15.64-1.83.71a28.46,28.46,0,0,1-2.92.07q-62.2,0-124.4,0c-2.16,0-4.41.31-5.74-2.1-.39-.71-1.34-.56-2.07-.58-2,0-4,0-6.08,0q-41.06,0-82.11,0c-1.59,0-3.35.41-4.6-1.14l-.44-.47c-.56-2.43-.29-4.87-.28-7.32.08-14.75,0-29.5,0-44.25,0-6,0-12,0-17.93a2.71,2.71,0,0,1,.2-1.54l0-2.64a3.1,3.1,0,0,1,.44-.51h0A4.06,4.06,0,0,1,2.28,27H97.2c.45,0,.9,0,1.35-.05l.46-.41h0c.23-.28.66-.18.88-.48h0c.17-.13.31-.29.47-.42h0a2.21,2.21,0,0,1,.52-.44,1,1,0,0,0,.39-.05,5.77,5.77,0,0,0,.44-.42h0a2.38,2.38,0,0,1,.51-.44,1.39,1.39,0,0,0,.4-.06,5.62,5.62,0,0,0,.44-.41h0a3.43,3.43,0,0,1,.5-.43,1.85,1.85,0,0,0,.41-.07,2.72,2.72,0,0,0,.43-.4h0c.16-.15.32-.3.49-.44a1.48,1.48,0,0,0,.42-.07,2,2,0,0,0,.42-.39h0c.17-.13.31-.29.47-.43h0c.23-.28.66-.18.87-.48h0l.47-.42h0a2.74,2.74,0,0,1,.51-.45,1.07,1.07,0,0,0,.4-.05l.44-.41h0a2.64,2.64,0,0,1,.51-.43h4c3.69.48,7.41.08,11.11.22,1.85.07,3.71-.22,5.55.18.22,0,.43,0,.65,0,2,0,2,0,2.08-2,0-.37,0-.73,0-1.09.17-.24.36-.25.57,0,1,2.89,2.14,3.35,4.73,1.64a7.37,7.37,0,0,1,5.19-.86c3.63.42,6.24-1.07,8.76-3.5,3.38-3.27,7-6.36,10.6-9.35a2.88,2.88,0,0,1,4.2,0c3.68,3.07,7.28,6.22,10.76,9.5,2.33,2.21,4.71,3.75,8.13,3.34,2.19-.27,4.42-.25,6.4,1.33,1.19.95,2.94.17,4.39.58a3.13,3.13,0,0,1,.6.37h2.26c4.68-.41,9.36-.07,14-.19a5.87,5.87,0,0,0,2.63-.21H220a2.64,2.64,0,0,1,.51.43h0a5.92,5.92,0,0,0,.45.41,1,1,0,0,0,.39.05,2.74,2.74,0,0,1,.51.45h0l.47.42h0c.21.3.65.2.87.48h0c.16.14.3.3.47.43h0a2,2,0,0,0,.42.39,1.54,1.54,0,0,0,.42.07c.18.14.34.29.5.44h0a3.24,3.24,0,0,0,.43.4,2,2,0,0,0,.41.07,3.52,3.52,0,0,1,.51.43h0a4.38,4.38,0,0,0,.45.41,1.34,1.34,0,0,0,.4.06,2.32,2.32,0,0,1,.5.44h0a4.47,4.47,0,0,0,.45.42,1,1,0,0,0,.39.05,2.38,2.38,0,0,1,.51.44h0c.16.13.3.29.47.42h0c.21.3.65.2.87.48h0l.46.41c.45,0,.9.05,1.35.05h94.91a4.14,4.14,0,0,1,.5.44h0A3.1,3.1,0,0,1,328,27.94Z"/><path class="cls-2" d="M1.8,102.09a10,10,0,0,0,2.89.35l67.91.06,22.71.06c1.21,0,2.48-.23,2.4,1.68,0,.69.61,1,1.27,1H230.31c.77,0,1.41-.31,1.39-1.13-.06-1.6.94-1.55,2.06-1.55,7.27,0,14.54,0,21.81,0q34.29,0,68.59-.06a14.42,14.42,0,0,0,3.34-.29c.65,1.87.2,3.79.29,5.69.14,2.74-.18,5.49.17,8.22a.61.61,0,0,0,.08.4,16.09,16.09,0,0,1,0,6c-1.29.84-2.76.56-4.16.57H237.48c-1.95,0-3.87-.07-5.69,1-1.12.63-2.49.38-3.76.4-16,.24-31.93-.79-47.89-.44-1.09,0-2.24-.26-3.46.57,1,.93,2.12.66,3.13.66q24.06,0,48.13,0a14.23,14.23,0,0,1,2.92.13c.8.16,1.72.3,1.42,1.52-1.17,1-2.57.68-3.89.68q-24.06,0-48.11,0a10,10,0,0,0-3.4.31,4,4,0,0,0,2.53.48c16.41,0,32.86.67,49.23-.13,32.34-1.59,64.68-.18,97-.77a7.13,7.13,0,0,1,2,.11c1.19,1,.31,2.32.58,3.47a.8.8,0,0,1-.28.72l0,0c-.73.55-1.58.26-2.37.27-6,.14-12-.22-18,.2l-.14-.08-.14.07c-.67.52-1.45.26-2.17.26-6.66,0-13.32,0-20,0a4.49,4.49,0,0,0-2.21.19l0,0c-.67.51-1.44.26-2.16.26-6.69,0-13.38,0-20.08,0a4.94,4.94,0,0,0-2.19.19l-.15-.08-.14.06c-.67.51-1.44.26-2.16.26-6.55,0-13.1,0-19.66,0a5,5,0,0,0-2.2.18l-.14-.08-.14.07c-1.87,0-2.17,1.3-2.3,2.75v0a2.81,2.81,0,0,1-1.39,1.33l0,0c-2,.62-4.12.27-6.18.25-3.19,0-6.39.35-9.56-.21-3.85-.15-7.7-.23-11.54,0a6.69,6.69,0,0,0-2.67-.18q-49.62,0-99.24,0a4.86,4.86,0,0,1-2.64-.24l0,0c-.18-.12-.31-.29-.49-.4l0,0c-.11-.18-.28-.31-.4-.49l0,0c-.13-1.45-.43-2.76-2.3-2.75l-.15-.07-.14.08c-4.82-.43-9.66,0-14.48-.2-3.18-.11-6.37.37-9.53-.26l-.15-.06-.14.08a84,84,0,0,0-9.78-.18c-4.17,0-8.33,0-12.49,0-.72,0-1.49.25-2.16-.25l0,0c-2.44-.46-4.91-.16-7.37-.19-4.94-.05-9.88,0-14.82,0-.72,0-1.5.26-2.16-.26l-.15-.07-.14.09c-6-.43-12-.07-18-.21-.79,0-1.64.28-2.37-.27l.06,0a.8.8,0,0,1-.29-.72c.26-1.14-.56-2.45.55-3.46a23.14,23.14,0,0,1,4.48-.1q44.42,0,88.81,0c19.27,2,38.59.39,57.89.9a5.65,5.65,0,0,0,3.15-.38,5.85,5.85,0,0,0-3.22-.41q-25.64,0-51.27,0c-1.32,0-2.71.26-3.91-.61-.43-1.23.48-1.4,1.29-1.58a15,15,0,0,1,3.14-.13q25.29,0,50.58,0a6.25,6.25,0,0,0,3.62-.56,3.18,3.18,0,0,0-2.47-.67c-18.06,0-36.12-.16-54.18.11a3.15,3.15,0,0,1-1.76-.19c-1.65-1-3.46-.83-5.25-.83q-43.5,0-87,0c-1.41,0-2.87.27-4.17-.53a15.25,15.25,0,0,1-.07-6,.56.56,0,0,0,.08-.4c.37-3.85,0-7.72.17-11.58a4.47,4.47,0,0,1,.23-2.4Z"/><path class="cls-3" d="M1.38,122.3l39.8,0q26.64,0,53.29,0c1.22,0,2.74-.66,3.5,1.08.11.25.55.17.84.1a18.49,18.49,0,0,1,4.7-.19q25.41,0,50.82,0c.67,0,1.35,0,2,0s1,.51,1,1.2-.26,1.32-1.14,1.33l-1.57,0q-27.44,0-54.87.06c-.71,0-1.93-.71-2.07.86-1.94.18-3.86-.18-5.8-.17q-43.12,0-86.25,0c-1.41,0-2.86.23-4.19-.49a.45.45,0,0,1-.11-.73c1-.67,2.19-.38,3.29-.38q45,0,90,0H4.8a8.64,8.64,0,0,0-3.12.21.7.7,0,0,1-.78.19v-.85a5,5,0,0,1-.44-.48l0,0a1,1,0,0,1,0-1.34h0c.14-.16.3-.3.43-.47v0C1.05,122.08,1.22,122.1,1.38,122.3Z"/><path class="cls-3" d="M232.09,126.78c.06-.88-.53-.92-1.17-.92h-52.4c-.6,0-1.2,0-1.8,0-1,0-1.32-.42-1.29-1.36s.35-1.25,1.2-1.22c.53,0,1.05,0,1.58,0,7.5,0,15-.17,22.49,0,9.81.26,19.62.31,29.43.24.86,0,1.79.29,2.2-1,.18-.52.92-.39,1.43-.39,2,0,3.9,0,5.85,0h86.81c.53,0,1.05,0,1.57,0,.17-.2.33-.22.51,0v0a6.14,6.14,0,0,0,.42.47h0a1,1,0,0,1,0,1.34v0a4,4,0,0,1-.44.48c0,.28,0,.57,0,.85a.72.72,0,0,1-.78-.2,8.86,8.86,0,0,0-3.12-.2H236q44.41,0,88.84,0a6,6,0,0,1,3.09.31.42.42,0,0,1,.07.72c-1.29.83-2.76.57-4.16.57q-43,0-85.91,0C236,126.6,234,127,232.09,126.78Z"/><path class="cls-4" d="M196.63,19.78c-1,0-1.95,0-2.92,0a3,3,0,0,1-2.81-1,2.57,2.57,0,0,0-2.24-.77c-2,0-4,0-6.06,0a3.27,3.27,0,0,1-2.42-.9c-3.88-3.5-7.8-6.94-11.72-10.39-.79-.69-1.61-1.33-2.42-2-1.11-.9-1.62-.91-2.73,0-2,1.68-4,3.32-5.95,5.09-2.63,2.43-5.33,4.78-8,7.14a3.73,3.73,0,0,1-2.83,1c-1.42-.06-2.84,0-4.26,0-1.64,0-3.18-.09-4.53,1.35-.95,1-2.56.4-3.88.36-.45,0-.59-.42-.6-.81,0-.75,0-1.5-.05-2.25-.12-.11-.15-.21-.1-.3s.1-.13.14-.13l0,0a1.4,1.4,0,0,1,.53-.47.58.58,0,0,0,.38-.13,1.25,1.25,0,0,0,.41-.35h0a5,5,0,0,1,.5-.41l0,0c.21-.31.65-.2.87-.5h0a3.49,3.49,0,0,1,.54-.41.59.59,0,0,0,.39-.13,1.44,1.44,0,0,0,.43-.34h0a1.35,1.35,0,0,1,.59-.41.41.41,0,0,0,.32-.07c1.79-.53,3.67.17,5.46-.39l1.73,0a2.14,2.14,0,0,1,.49-.41l0,0a1.27,1.27,0,0,1,.48-.47l0,0c.17-.33.64-.19.8-.54l.06-.05a.87.87,0,0,0,.4-.38l.06,0a1.49,1.49,0,0,0,.43-.4l0,0a2.92,2.92,0,0,0,.44-.42h0a4.78,4.78,0,0,0,.46-.44c.15-.15.3-.3.47-.44h0a2.22,2.22,0,0,1,.47-.45l0,0a1.65,1.65,0,0,1,.48-.47l0,0a1.65,1.65,0,0,1,.48-.47l0,0a1.25,1.25,0,0,1,.47-.47l0,0c.17-.32.64-.19.79-.54l.07-.06a.76.76,0,0,0,.4-.37l.05,0a1.15,1.15,0,0,0,.42-.4l0,0a1.86,1.86,0,0,0,.43-.41l0,0a4.58,4.58,0,0,0,.46-.42h0c.15-.15.3-.31.47-.45v0a2.86,2.86,0,0,1,.46-.46h0a2.28,2.28,0,0,1,.47-.46l0,0a1.75,1.75,0,0,1,.48-.46l0,0a1.41,1.41,0,0,1,.47-.47l0,0a1.32,1.32,0,0,1,.48-.46l0,0c.16-.33.64-.2.79-.54l.06-.05a.94.94,0,0,0,.41-.38l.05-.05a1.3,1.3,0,0,0,.41-.4l0,0a3.47,3.47,0,0,0,.46-.4h0a63.51,63.51,0,0,1,11.7,0h0a2.93,2.93,0,0,0,.46.4l0,0a1.34,1.34,0,0,0,.42.4l.05.05a1,1,0,0,0,.4.38l.06.05c.16.34.64.21.8.54l0,0a1.3,1.3,0,0,1,.47.46l0,0a1.54,1.54,0,0,1,.48.47l0,0a1.72,1.72,0,0,1,.47.46l0,0a2.33,2.33,0,0,1,.48.46h0a2.56,2.56,0,0,1,.47.46v0c.16.14.31.3.47.45h0a6,6,0,0,0,.46.42l0,0a1.9,1.9,0,0,0,.44.41l0,0a1.24,1.24,0,0,0,.42.4l.06,0a.74.74,0,0,0,.39.37l.07.06c.15.35.63.22.79.54l0,0a1.27,1.27,0,0,1,.48.47l0,0a1.54,1.54,0,0,1,.48.47l0,0a1.62,1.62,0,0,1,.47.47l0,0A2.06,2.06,0,0,1,180,9h0c.17.14.32.29.48.44a4.67,4.67,0,0,0,.45.44h0a2.92,2.92,0,0,0,.44.42l0,0a1.37,1.37,0,0,0,.43.4l0,0a.87.87,0,0,0,.4.38l.07.05c.15.35.63.21.79.54l0,0a1.25,1.25,0,0,1,.47.47l0,0a2.14,2.14,0,0,1,.49.41l1.74,0c1.79.56,3.67-.14,5.46.39a.38.38,0,0,0,.31.07,1.38,1.38,0,0,1,.6.41h0a1.74,1.74,0,0,0,.43.34A.63.63,0,0,0,193,14a3.07,3.07,0,0,1,.54.41h0c.21.3.66.19.86.5l0,0a6.26,6.26,0,0,1,.49.41h0a1.25,1.25,0,0,0,.41.35.6.6,0,0,0,.38.13,1.27,1.27,0,0,1,.53.47l0,0c.32.25.25.68.46,1a.52.52,0,0,0,.07.37A2.71,2.71,0,0,1,196.63,19.78Z"/><path class="cls-3" d="M1.25,125.87c1,0,2.1,0,3.15,0q45.12,0,90.26,0c1.13,0,2.23,0,3.08.89h57.77a10.59,10.59,0,0,1,1.13,0c.69.09.76.61.75,1.16s-.13,1.07-.81,1.11-1.35,0-2,0q-26.42,0-52.83,0c-1.54,0-3.32.63-4.56-1-.11-.14-.57,0-.86,0l-83.41.05H3.45a4.75,4.75,0,0,1-2-.29l-.28-.07a2.22,2.22,0,0,0-.3-.49h0a.62.62,0,0,1,0-.89,2,2,0,0,0,0-.42C1,125.75,1.1,125.73,1.25,125.87Z"/><path class="cls-3" d="M232.09,126.78a3.48,3.48,0,0,1,2.85-.89q14.49,0,29,0H325.2c1,0,1.95,0,2.92,0,.15-.14.27-.11.35.07a1.49,1.49,0,0,0,0,.42.63.63,0,0,1,0,.89h0a1.58,1.58,0,0,0-.24.39.26.26,0,0,1-.35.17,6.68,6.68,0,0,1-2.88.28q-44.53,0-89.08,0c-1.45,0-2.93-.27-4.29.77-.54.41-1.6.18-2.43.18-11.54,0-23.09,0-34.64,0-5.85,0-11.7,0-17.54.06-.73,0-1.58.15-1.6-1,0-.79.16-1.34,1.09-1.31.37,0,.75,0,1.12,0Z"/><path class="cls-5" d="M98.54,137.11l85.24.1c5.7,0,11.4.06,17.09.11a4.49,4.49,0,0,1,2.21.23c-.89,0-1.79,0-2.69,0q-49.54,0-99.09,0C100.38,137.58,99.34,138,98.54,137.11Z"/><path class="cls-6" d="M328,101.62c0-9.72-.28-19.45.13-29.15.5-11.65.18-23.29.36-34.94,0-2.31,0-4.63-.05-7a1,1,0,0,1,.45.74c.3,5.88.95,11.79.39,17.65-.53,5.45-.13,10.88-.37,16.31-.5,11.56-.47,23.13-.45,34.7C328.48,100.56,328.61,101.2,328,101.62Z"/><path class="cls-6" d="M1.32,30.58q0,33.27,0,66.54c0,1.5,0,3,.05,4.5a9.3,9.3,0,0,1-.8-5.38,15.24,15.24,0,0,0,.32-3.55q0-14.49,0-29c0-3.94,0-7.89,0-11.83a9.45,9.45,0,0,0-.35-3.77,1.55,1.55,0,0,1-.06-.88c.88-4.76.19-9.55.43-14.32C.93,32.13.6,31.25,1.32,30.58Z"/><path class="cls-6" d="M22,132.14l23.51.24a3.32,3.32,0,0,1,.84.24l-22.52,0C23.2,132.64,22.49,132.82,22,132.14Z"/><path class="cls-6" d="M283,132.62a3.32,3.32,0,0,1,.84-.24l23.52-.24c-.47.68-1.19.5-1.84.5Z"/><path class="cls-6" d="M46.35,132.6q11.77.1,23.57.23a3.55,3.55,0,0,1,.86.23q-11.41,0-22.82,0C47.38,133.09,46.74,133.22,46.35,132.6Z"/><path class="cls-6" d="M258.6,133.06a3.36,3.36,0,0,1,.85-.23q11.79-.14,23.58-.23c-.4.62-1,.49-1.62.49Z"/><path class="cls-6" d="M71.07,133q11.46.11,22.93.23a5.21,5.21,0,0,1,1.08.23l-22.39,0C72.1,133.55,71.47,133.64,71.07,133Z"/><path class="cls-6" d="M234.29,133.5a5.21,5.21,0,0,1,1.08-.23q11.48-.14,22.94-.23c-.41.6-1,.51-1.62.5Z"/><path class="cls-6" d="M1.35,131.68l18,.22a5,5,0,0,1,2.43.26L3,132.19C2.37,132.2,1.73,132.32,1.35,131.68Z"/><path class="cls-6" d="M307.64,132.15a5.16,5.16,0,0,1,2.43-.25l17.95-.22c-.38.64-1,.52-1.6.51Q317,132.19,307.64,132.15Z"/><path class="cls-6" d="M216,19.35c-.47.5-1.09.4-1.68.4h-15c.53-.6,1.25-.41,1.9-.41Q208.63,19.32,216,19.35Z"/><path class="cls-6" d="M130,19.75H115c-.58,0-1.2.1-1.67-.4q7.38,0,14.77,0C128.78,19.34,129.49,19.15,130,19.75Z"/><path class="cls-6" d="M214.63,137.57c5.25-.22,10.5,0,15.74,0-.32.54-.85.51-1.38.51H216C215.52,138,215,138.07,214.63,137.57Z"/><path class="cls-1" d="M328,116.06c-.62-2.69-.31-5.43-.39-8.15a46.11,46.11,0,0,0-.07-5.76l.2-.17a.22.22,0,0,1,.33.1Z"/><path class="cls-1" d="M1.81,102.08c0,3.94-.05,7.88-.1,11.81a3.77,3.77,0,0,1-.3,2.17c0-4.35-.07-8.7-.09-13A1,1,0,0,1,1.81,102.08Z"/><path class="cls-6" d="M170.54.45h-11.7A1.33,1.33,0,0,1,160,0h9.32A1.35,1.35,0,0,1,170.54.45Z"/><path class="cls-6" d="M328.5,122.28l-.51,0c0-2,0-3.89.05-5.84.77.73.38,1.67.43,2.51C328.53,120.07,328.49,121.18,328.5,122.28Z"/><path class="cls-6" d="M1.38,122.3l-.5,0c0-1.4,0-2.79,0-4.19,0-.58-.11-1.2.44-1.63C1.35,118.41,1.36,120.35,1.38,122.3Z"/><path class="cls-6" d="M143.61,12.62c-1.78.7-3.65.19-5.46.39C139.91,12.14,141.79,12.78,143.61,12.62Z"/><path class="cls-6" d="M191.23,13c-1.82-.2-3.68.31-5.46-.39C187.59,12.78,189.46,12.14,191.23,13Z"/><path class="cls-6" d="M231.71,136.24c0-.22,0-.43,0-.65.05-2.16.05-2.16,2.29-2.1C232.58,134.24,232.58,134.24,231.71,136.24Z"/><path class="cls-6" d="M95.37,133.49a1.54,1.54,0,0,1,.42-.07c1.79.05,1.79.05,1.85,1.74,0,.36,0,.72,0,1.08-.06-.05-.17-.09-.17-.14A2.94,2.94,0,0,0,95.37,133.49Z"/><path class="cls-3" d="M328.07,131.31c-.05-1.17-.11-2.34-.16-3.5l.22-.18.2,0,.14.16v3.51A.24.24,0,0,1,328.07,131.31Z"/><path class="cls-3" d="M1.47,127.81l-.17,3.5a.24.24,0,0,1-.4-.06v-3.51l.14-.16.21,0Z"/><path class="cls-6" d="M230.33,137.55l1.39-1.33A1.2,1.2,0,0,1,230.33,137.55Z"/><path class="cls-6" d="M196.63,19.78c0-.74,0-1.49,0-2.23.7.62.31,1.45.42,2.19Z"/><path class="cls-6" d="M328.91,124.1c0-.45,0-.9,0-1.34C329.52,123.21,329.53,123.66,328.91,124.1Z"/><path class="cls-6" d="M.45,122.76c0,.44,0,.89,0,1.34C-.16,123.66-.15,123.21.45,122.76Z"/><path class="cls-6" d="M196.6,17.18a1.36,1.36,0,0,1-.46-1C196.59,16.39,196.63,16.77,196.6,17.18Z"/><path class="cls-6" d="M147.06,11.21a.87.87,0,0,1-.8.54A.83.83,0,0,1,147.06,11.21Z"/><path class="cls-6" d="M194.37,14.88a1,1,0,0,1-.86-.5A.86.86,0,0,1,194.37,14.88Z"/><path class="cls-6" d="M135.87,14.38a1,1,0,0,1-.87.5A.86.86,0,0,1,135.87,14.38Z"/><path class="cls-6" d="M.88,126.36v.89C.43,127,.42,126.66.88,126.36Z"/><path class="cls-6" d="M328.49,127.25c0-.3,0-.59,0-.89C329,126.66,328.94,127,328.49,127.25Z"/><path class="cls-6" d="M183.11,11.75a.86.86,0,0,1-.79-.54C182.67,11.26,183,11.36,183.11,11.75Z"/><path class="cls-6" d="M157.41,1.77a.86.86,0,0,1-.79.54C156.74,1.92,157.06,1.82,157.41,1.77Z"/><path class="cls-6" d="M172.76,2.31a.87.87,0,0,1-.8-.54C172.32,1.82,172.64,1.92,172.76,2.31Z"/><path class="cls-6" d="M107.06,21.12a.92.92,0,0,1-.87.48A.91.91,0,0,1,107.06,21.12Z"/><path class="cls-6" d="M223.18,21.6a.93.93,0,0,1-.87-.48A.89.89,0,0,1,223.18,21.6Z"/><path class="cls-6" d="M152,6.71a.84.84,0,0,1-.79.54A.84.84,0,0,1,152,6.71Z"/><path class="cls-6" d="M178.16,7.25a.84.84,0,0,1-.79-.54A.83.83,0,0,1,178.16,7.25Z"/><path class="cls-6" d="M328.47,30.6a.9.9,0,0,1-.42-.92A.91.91,0,0,1,328.47,30.6Z"/><path class="cls-6" d="M230.38,26.55a.94.94,0,0,1-.87-.48A.88.88,0,0,1,230.38,26.55Z"/><path class="cls-6" d="M99.87,26.07a.94.94,0,0,1-.88.48A.9.9,0,0,1,99.87,26.07Z"/><path class="cls-6" d="M225,22.93l-.5-.44Z"/><path class="cls-6" d="M104.38,22.93l-.43.4Z"/><path class="cls-6" d="M225.42,23.33l-.43-.4Z"/><path class="cls-6" d="M103.54,23.4l-.5.43Z"/><path class="cls-6" d="M226.34,23.83l-.51-.43Z"/><path class="cls-6" d="M103,23.83l-.44.41Z"/><path class="cls-6" d="M226.78,24.24l-.45-.41Z"/><path class="cls-6" d="M102.2,24.3l-.51.44Z"/><path class="cls-6" d="M227.68,24.74l-.5-.44Z"/><path class="cls-6" d="M101.69,24.73l-.44.42Z"/><path class="cls-6" d="M228.13,25.15l-.45-.42Z"/><path class="cls-6" d="M100.86,25.2l-.52.44Z"/><path class="cls-6" d="M149.41,9l-.47.44Z"/><path class="cls-6" d="M229,25.64l-.51-.44Z"/><path class="cls-6" d="M100.35,25.64l-.47.42Z"/><path class="cls-6" d="M229.49,26.06l-.47-.42Z"/><path class="cls-6" d="M104.88,22.49l-.49.44Z"/><path class="cls-6" d="M224.07,22.42l-.42-.39Z"/><path class="cls-6" d="M99,26.54l-.47.41Z"/><path class="cls-6" d="M230.83,27l-.46-.41Z"/><path class="cls-6" d="M2.28,27l-.49.44Z"/><path class="cls-6" d="M327.59,27.43l-.5-.44Z"/><path class="cls-6" d="M1.79,27.43c-.15.17-.29.34-.44.5C1.5,27.77,1.64,27.6,1.79,27.43Z"/><path class="cls-6" d="M328,27.94l-.44-.51Z"/><path class="cls-6" d="M180,9l-.48-.45Z"/><path class="cls-6" d="M105.72,22l-.42.39Z"/><path class="cls-6" d="M149.87,8.56,149.4,9Z"/><path class="cls-6" d="M179.52,8.58l-.47-.47Z"/><path class="cls-6" d="M150.33,8.11l-.48.46Z"/><path class="cls-6" d="M179.07,8.13a.64.64,0,0,1-.48-.47Z"/><path class="cls-6" d="M150.78,7.66a.64.64,0,0,1-.48.47Z"/><path class="cls-6" d="M178.62,7.69a.64.64,0,0,1-.48-.47A.67.67,0,0,1,178.62,7.69Z"/><path class="cls-6" d="M151.23,7.22a.61.61,0,0,1-.47.47A.64.64,0,0,1,151.23,7.22Z"/><path class="cls-6" d="M223.64,22l-.47-.43Z"/><path class="cls-6" d="M106.2,21.59l-.47.43Z"/><path class="cls-6" d="M177.3,6.65a.43.43,0,0,1-.39-.37Z"/><path class="cls-6" d="M181.34,10.31a.54.54,0,0,1-.44-.42Z"/><path class="cls-6" d="M176.85,6.23a.5.5,0,0,1-.42-.4Z"/><path class="cls-6" d="M152.94,5.83a.49.49,0,0,1-.42.4Z"/><path class="cls-6" d="M176.4,5.8a.56.56,0,0,1-.44-.41Z"/><path class="cls-6" d="M153.41,5.39a.53.53,0,0,1-.43.41C153.12,5.66,153.26,5.52,153.41,5.39Z"/><path class="cls-6" d="M175.94,5.37,175.49,5Z"/><path class="cls-6" d="M153.89,5l-.46.42Z"/><path class="cls-6" d="M175.49,5,175,4.5Z"/><path class="cls-6" d="M154.36,4.5l-.47.45Z"/><path class="cls-6" d="M175,4.52l-.47-.46Z"/><path class="cls-6" d="M154.81,4.06l-.46.46Z"/><path class="cls-6" d="M174.58,4.07l-.48-.46Z"/><path class="cls-6" d="M155.27,3.61l-.47.46Z"/><path class="cls-6" d="M174.12,3.63a.64.64,0,0,1-.47-.46Z"/><path class="cls-6" d="M155.73,3.17a.64.64,0,0,1-.48.46Z"/><path class="cls-6" d="M173.67,3.19a.64.64,0,0,1-.48-.47A.69.69,0,0,1,173.67,3.19Z"/><path class="cls-6" d="M156.18,2.72a.63.63,0,0,1-.47.47A.66.66,0,0,1,156.18,2.72Z"/><path class="cls-6" d="M173.21,2.74a.55.55,0,0,1-.47-.46A.63.63,0,0,1,173.21,2.74Z"/><path class="cls-6" d="M156.64,2.28a.56.56,0,0,1-.48.46A.63.63,0,0,1,156.64,2.28Z"/><path class="cls-6" d="M222.29,21.11l-.47-.42Z"/><path class="cls-6" d="M107.55,20.69l-.47.42Z"/><path class="cls-6" d="M171.9,1.72a.47.47,0,0,1-.4-.38Z"/><path class="cls-6" d="M157.88,1.34a.47.47,0,0,1-.41.38Z"/><path class="cls-6" d="M171.45,1.29a.49.49,0,0,1-.42-.4Z"/><path class="cls-6" d="M158.34.89a.49.49,0,0,1-.41.4Z"/><path class="cls-6" d="M171,.85l-.46-.4Z"/><path class="cls-6" d="M158.84.45l-.46.4Z"/><path class="cls-6" d="M221.83,20.7l-.51-.45Z"/><path class="cls-6" d="M108.05,20.25l-.51.45Z"/><path class="cls-6" d="M220.93,20.2l-.45-.41Z"/><path class="cls-6" d="M108.89,19.79l-.44.41Z"/><path class="cls-6" d="M220.48,19.79l-.51-.43Z"/><path class="cls-6" d="M180.44,9.44,180,9Z"/><path class="cls-6" d="M148.94,9.44l-.46.44Z"/><path class="cls-6" d="M180.89,9.88l-.45-.44Z"/><path class="cls-6" d="M109.4,19.36l-.51.43Z"/><path class="cls-6" d="M133.23,16.21a1.57,1.57,0,0,1,0,.43l-.43.07A.63.63,0,0,1,133.23,16.21Z"/><path class="cls-6" d="M196.17,16.23l-.53-.47A.67.67,0,0,1,196.17,16.23Z"/><path class="cls-6" d="M328,102.08a1,1,0,0,1-.33-.1c.11-.12.22-.25.32-.38C328,101.76,328,101.92,328,102.08Z"/><path class="cls-6" d="M133.73,15.76l-.53.47A.69.69,0,0,1,133.73,15.76Z"/><path class="cls-6" d="M195.26,15.63l-.41-.35Z"/><path class="cls-6" d="M134.52,15.28l-.41.35Z"/><path class="cls-6" d="M194.84,15.27a.61.61,0,0,1-.49-.41Z"/><path class="cls-6" d="M.87,122.3l-.43.47Z"/><path class="cls-6" d="M328.93,122.77l-.42-.47Z"/><path class="cls-6" d="M135,14.86a.64.64,0,0,1-.5.41Z"/><path class="cls-6" d="M193.49,14.37,193,14Z"/><path class="cls-6" d="M136.42,14l-.54.41Z"/><path class="cls-6" d="M.45,124.08l.44.48Z"/><path class="cls-6" d="M328.48,124.56l.44-.48Z"/><path class="cls-6" d="M1.25,125.87l-.35.07v-.53l.41.06h0A1.68,1.68,0,0,0,1.25,125.87Z"/><path class="cls-6" d="M328.47,125.94l-.35-.07a1,1,0,0,0-.07-.39h0a2.9,2.9,0,0,0,.41-.06Z"/><path class="cls-6" d="M192.56,13.83l-.43-.34Z"/><path class="cls-6" d="M137.24,13.49l-.43.34Z"/><path class="cls-6" d="M1.25,127.63a1.42,1.42,0,0,1-.35.11c0-.16,0-.32,0-.49Z"/><path class="cls-6" d="M328.47,127.74a1.35,1.35,0,0,1-.34-.11l.36-.38Z"/><path class="cls-6" d="M192.14,13.49l-.6-.41A.72.72,0,0,1,192.14,13.49Z"/><path class="cls-6" d="M137.83,13.08l-.59.41A.7.7,0,0,1,137.83,13.08Z"/><path class="cls-6" d="M184,12.58a.53.53,0,0,1-.49-.41Z"/><path class="cls-6" d="M.9,131.25a2.76,2.76,0,0,0,.4.06,2.75,2.75,0,0,1,.11.41A.66.66,0,0,1,.9,131.25Z"/><path class="cls-6" d="M328.07,131.31a2.57,2.57,0,0,0,.4-.06.65.65,0,0,1-.5.47A2.73,2.73,0,0,1,328.07,131.31Z"/><path class="cls-6" d="M145.83,12.17a.51.51,0,0,1-.49.41Z"/><path class="cls-6" d="M183.56,12.19a.6.6,0,0,1-.47-.47A.63.63,0,0,1,183.56,12.19Z"/><path class="cls-6" d="M146.29,11.72a.6.6,0,0,1-.48.47A.62.62,0,0,1,146.29,11.72Z"/><path class="cls-6" d="M148.47,9.89a.53.53,0,0,1-.44.42Z"/><path class="cls-6" d="M182.25,11.16a.47.47,0,0,1-.4-.38Z"/><path class="cls-6" d="M147.52,10.78a.47.47,0,0,1-.4.38Z"/><path class="cls-6" d="M97.65,136.21a.6.6,0,0,1,.4.49Z"/><path class="cls-6" d="M181.8,10.73a.51.51,0,0,1-.43-.4Z"/><path class="cls-6" d="M98.08,136.73l.49.4Z"/><path class="cls-6" d="M148,10.33a.54.54,0,0,1-.43.4Z"/><path class="cls-6" d="M152.47,6.28a.45.45,0,0,1-.4.37Z"/><path class="cls-4" d="M97.63,67.24v30.1c0,.6,0,1.2,0,1.8s-.33,1.12-1.08,1.11l-1.35,0H40.33c-.45,0-.9,0-1.35,0-.87,0-1.2-.44-1.18-1.26,0-.52,0-1,0-1.57q0-30.45,0-60.89c0-3-.22-2.81,2.78-2.81H95.66c1.94,0,2,0,2,2.05Q97.65,51.52,97.63,67.24Z"/><path class="cls-4" d="M180.42,62.6V96.55c0,.45,0,.9,0,1.35,0,1.89,0,1.91-1.86,1.93-2.18,0-4.35,0-6.53,0H151.11c-2.13,0-2.19,0-2.16-2.1.29-15.72-.64-31.43-.48-47.16,0-3.07.2-6.16,0-9.21-.39-4.93-.36-9.86-.39-14.79a15.41,15.41,0,0,1,0-1.8c.11-1,.45-1.07,1.31-.47s1.19.61,1.33-.43c0-.15,0-.3,0-.45.15-2.21.15-2.2,2.23-1.32a.56.56,0,0,0,.83-.46,9,9,0,0,0,.11-1.56c0-.68.21-1.17,1-1.2s1.22.17,1.21,1c0,1.18.7,1.3,1.63,1.26s1.53-.48,1.54-1.51c0-1.27,0-2.54,0-3.82a1.94,1.94,0,0,1,.93-1.88,33.06,33.06,0,0,0,2.85-2.18,1.59,1.59,0,0,1,2.39.1c1,1,2,2,3,3a2.35,2.35,0,0,1,.68,1.83c0,1.05,0,2.1,0,3.15,0,.63-.26,1.54.66,1.68s2,.64,2.51-.68a1.73,1.73,0,0,1,.32-.58,1,1,0,0,1,1.78.41,4.24,4.24,0,0,1,.11.88c.18,1.78.19,1.79,1.84,1,.74-.36,1.18-.13,1.28.63s0,1.35.07,2,.4,1,1.2.63c1.32-.67,1.44-.6,1.45.86,0,3.75,0,7.5,0,11.24Z"/><path class="cls-4" d="M33.27,67.23V97.12c0,.52,0,1,0,1.57.08,1.13-.37,1.63-1.55,1.59-1.87-.06-3.75,0-5.62,0H8.34c-.52,0-1,0-1.57,0-.92,0-1.42-.31-1.38-1.3,0-.52,0-1,0-1.57,0-9.66.34-19.34-.12-29-.49-10.55-.09-21.09-.34-31.63,0-.38,0-.75,0-1.13,0-1.88,0-1.91,1.86-1.93,3.3,0,6.6,0,9.89,0H31.07c2.18,0,2.2,0,2.2,2.27Q33.28,51.61,33.27,67.23Z"/><path class="cls-4" d="M323.37,99.9a2.58,2.58,0,0,1-1.87.36H298.33c-2.21,0-2.22,0-2.23-2.25V36c0-.37,0-.75,0-1.12a1,1,0,0,1,1.09-1.12h26.09c.71,0,1.17.29,1.14,1.06-.1,3.13.27,6.28-.26,9.41a8.07,8.07,0,0,0-.16,1.55c.27,12.13-.75,24.24-.45,36.36.11,4.65-.68,9.25-.46,13.89A16.57,16.57,0,0,0,323.37,99.9Z"/><path class="cls-4" d="M130.79,30c.82,4.83.58,9.55.59,14.25,0,11.52.42,23,.61,34.56.09,6.27.14,12.55.29,18.83.05,2.13,0,2.16-2.07,2.16q-6.29,0-12.59,0c-1.94,0-2,0-2-2,0-.9,0-1.8,0-2.7q0-31.23,0-62.48c0-2.41.45-2.83,2.91-2.6a1.64,1.64,0,0,0,1.25-.24,3.41,3.41,0,0,1,.55-.34c1.16,1.58,2.78-.28,4,.53,1.25-1.07,2.69.85,4.08-.29C128.81,29.38,130,30.28,130.79,30Z"/><path class="cls-4" d="M198.36,29.57c1.24,1.13,2-.37,2.77.17s1.52.3,2.22-.19c1,1,2.51-.62,3.51.59a.61.61,0,0,0,.62.14,14.4,14.4,0,0,1,5.39,0c.74.13.85.41.85,1,0,1,0,2,0,2.93V97.1c0,2.87.17,2.74-2.64,2.74-4,0-7.94,0-11.92,0-2,0-2.08,0-2.08-1.93,0-5.24-.31-10.51.09-15.72.6-7.78-.09-15.57.44-23.33.55-8,.17-16,.39-24C198.06,33.29,198.6,31.78,198.36,29.57Z"/><path class="cls-7" d="M292.94,67V36.69c0-.6,0-1.2,0-1.8s.12-1.06.83-1.1.94.55,1,1.19c0,.38,0,.75,0,1.13V97.87c0,.52,0,1,0,1.57a.78.78,0,0,1-.91.77.8.8,0,0,1-.82-.86c0-.6,0-1.2,0-1.8Z"/><path class="cls-7" d="M34.63,67q0-15.39,0-30.77c0-.6,0-1.2.06-1.79a.72.72,0,0,1,.76-.67.77.77,0,0,1,.92.74c0,.52,0,1,0,1.57V97.86c0,.52,0,1,0,1.57a.78.78,0,0,1-.89.78.8.8,0,0,1-.84-.85c0-.6,0-1.2,0-1.8Q34.63,82.29,34.63,67Z"/><path class="cls-8" d="M231.73,66.84q0-15.06,0-30.11c0-.6,0-1.2,0-1.8,0-.84.41-1.22,1.24-1.2.45,0,.9,0,1.35,0H289c.38,0,.75,0,1.13,0,1-.07,1.56.33,1.49,1.41,0,.45,0,.9,0,1.35V97.6c0,.23,0,.45,0,.68,0,2,0,2-2,2q-27.88,0-55.77,0c-2,0-2,0-2-2.19Q231.72,82.45,231.73,66.84Z"/><path class="cls-9" d="M1.31,125.47c.1-.45.21-.9.8-.91q1.13,0,2.25,0h89.3c1,0,2.09-.11,3.13-.13.3,0,.61.09.65.47s-.21.54-.52.56c-.68,0-1.35,0-2,0H5.82l-4.5,0Z"/><path class="cls-9" d="M328.05,125.48l-88.61,0c-1.88,0-3.75,0-5.63,0-.49,0-1,.1-1.41-.31.16-.72.68-.56,1.07-.57,1.65,0,3.3,0,4.95,0h86.82c.68,0,1.35,0,2,0s.69.46.79.91Z"/><path class="cls-10" d="M70.16,63.51c0,1.64,0,3.29,0,4.93,0,.81-.3,1.28-1.17,1.25h-.22c-4.86,0-3.9.35-4-3.64,0-2.46,0-4.93,0-7.39,0-1.12.34-1.63,1.53-1.61,4.61.06,3.76-.37,3.84,3.54,0,1,0,1.94,0,2.91Z"/><path class="cls-10" d="M55.76,63.4c0,1.64,0,3.29,0,4.93,0,.91-.32,1.31-1.29,1.39-4.09.33-4.09.36-4.09-3.77,0-2.47,0-4.93,0-7.39,0-1,.35-1.5,1.42-1.5,4.81,0,3.86-.41,3.95,3.65,0,.9,0,1.8,0,2.69Z"/><path class="cls-2" d="M50.37,88.22c0-1.57,0-3.14,0-4.71,0-.83.34-1.27,1.19-1.25h.23c4.82,0,3.9-.42,4,3.62,0,1.87,0,3.74,0,5.61,0,2.48.19,2.56-2.38,2.51-.45,0-.9,0-1.35,0-1.63.12-1.65.13-1.67-1.56,0-1.42,0-2.84,0-4.26Z"/><path class="cls-2" d="M65.17,94.23a1.38,1.38,0,0,1-.41-1.12c0-3.06,0-6.13,0-9.19,0-1.58.09-1.66,1.67-1.65,4.39,0,3.66-.45,3.72,3.65,0,2.24,0,4.49,0,6.73,0,.93-.34,1.38-1.31,1.36A13.64,13.64,0,0,0,65.17,94.23Z"/><path class="cls-2" d="M79.21,88.17c0-1.5,0-3,0-4.49,0-1.08.45-1.45,1.49-1.43,4.73,0,3.84-.42,3.92,3.7,0,2.18,0,4.35,0,6.52,0,1.19-.47,1.52-1.6,1.56-3.82.12-3.82.16-3.82-3.61V88.17Z"/><path class="cls-2" d="M84.61,63.36c0,1.64,0,3.29,0,4.93,0,1.07-.45,1.43-1.47,1.42-4.27,0-3.5.21-3.55-3.39,0-2.46,0-4.93,0-7.39,0-1.78.06-1.84,1.7-1.85,3.81,0,3.26-.29,3.3,3.15,0,1,0,2.09,0,3.13Z"/><path class="cls-11" d="M50.87,40.23V36.65a1,1,0,0,1,1.07-1.13c.52,0,1.05,0,1.56,0a1.45,1.45,0,0,1,1.75,1.56c.08,2.31,0,4.62,0,6.94,0,.48-.19.91-.73.94a25.68,25.68,0,0,1-2.91,0c-.66,0-.8-.58-.8-1.14V40.23Z"/><path class="cls-11" d="M65.25,40.14c0-.89,0-1.79,0-2.68,0-1.84.08-1.88,1.62-2,2.19-.11,2.72.18,2.8,1.87.1,2.16,0,4.33,0,6.49,0,.73-.32,1.12-1.07,1.13L68,45c-2.72.1-2.72.1-2.73-2.63V40.14Z"/><path class="cls-2" d="M84.16,44.84c-4.11.44-4.11.44-4.11-3.4,0-1.49,0-3,0-4.48,0-1,.39-1.53,1.45-1.46.3,0,.6,0,.9,0,1.66,0,1.73.08,1.75,1.83C84.18,39.78,84.16,42.24,84.16,44.84Z"/><path class="cls-10" d="M158.81,63.43c0,1.65,0,3.29,0,4.93,0,1-.38,1.28-1.33,1.36-4.05.31-4.05.34-4.05-3.81,0-2.46,0-4.92,0-7.39,0-1,.4-1.47,1.46-1.46,4.75,0,3.82-.41,3.91,3.69,0,.89,0,1.79,0,2.68Z"/><path class="cls-2" d="M158.81,88.26c0,1.42,0,2.84,0,4.26,0,1-.32,1.53-1.41,1.5-1.25,0-2.85.51-3.65-.07s-.3-2.38-.33-3.63c-.06-2.16,0-4.34,0-6.5,0-1.15.41-1.59,1.57-1.58,4.57.06,3.77-.37,3.84,3.55C158.83,86.62,158.82,87.44,158.81,88.26Z"/><path class="cls-2" d="M167.86,88.35c0-1.57,0-3.15,0-4.72,0-.92.33-1.31,1.3-1.39,4.11-.34,4.1-.37,4.1,3.76,0,2.17,0,4.35,0,6.52,0,1-.32,1.54-1.41,1.49a13.38,13.38,0,0,0-2.69.09c-1.12.19-1.31-.39-1.31-1.25Z"/><path class="cls-2" d="M173.26,63.5c0,1.49,0,3,0,4.48s-.07,1.7-1.6,1.71c-4.06,0-3.37.2-3.41-3.29,0-2.61,0-5.22,0-7.83,0-1,.31-1.51,1.41-1.51,4.39,0,3.53-.23,3.61,3.31C173.28,61.41,173.26,62.46,173.26,63.5Z"/><path class="cls-11" d="M153.9,40.13c0-.89,0-1.79,0-2.69,0-1.82.08-1.86,1.63-1.94,2.19-.1,2.72.19,2.79,1.89.1,2.16,0,4.32,0,6.49A1,1,0,0,1,157.3,45l-.9,0c-2.49,0-2.49,0-2.5-2.42V40.13Z"/><path class="cls-2" d="M172.81,44.84c-4.11.44-4.11.44-4.11-3.39,0-1.5,0-3,0-4.48,0-1,.39-1.54,1.45-1.47.29,0,.59,0,.89,0,1.67,0,1.73.08,1.76,1.82C172.83,39.78,172.81,42.24,172.81,44.84Z"/><path class="cls-10" d="M23.4,63.4c0-1.65,0-3.29,0-4.93,0-.9.3-1.33,1.27-1.41,4.1-.37,4.1-.4,4.1,3.74,0,2.39,0,4.78,0,7.17,0,1.64-.07,1.72-1.59,1.72-4.52,0-3.69.37-3.78-3.61,0-.89,0-1.79,0-2.68Z"/><path class="cls-10" d="M9,63.39c0-1.64,0-3.28,0-4.92,0-.9.3-1.33,1.28-1.41,4.09-.37,4.09-.4,4.09,3.74,0,2.39,0,4.78,0,7.17,0,1.64-.07,1.72-1.6,1.72-4.51,0-3.68.37-3.77-3.61,0-.89,0-1.79,0-2.69Z"/><path class="cls-2" d="M23.37,94.4c0-3.9,0-7.41,0-10.91,0-.83.36-1.24,1.21-1.23s1.94,0,2.91,0,1.29.5,1.29,1.4c0,3,0,6,0,9,0,1.11-.51,1.43-1.51,1.39A11,11,0,0,0,23.37,94.4Z"/><path class="cls-2" d="M9,88.27c0-1.5,0-3,0-4.49,0-1,.25-1.54,1.37-1.53,5,0,3.95-.42,4,3.8,0,2.17,0,4.34,0,6.51,0,1-.38,1.49-1.44,1.46a9.48,9.48,0,0,0-2.91.13c-.86.24-1-.24-1-1Z"/><path class="cls-11" d="M9.47,40.23V36.65a1,1,0,0,1,1.07-1.13c.52,0,1.05,0,1.57,0a1.45,1.45,0,0,1,1.74,1.56c.08,2.31.05,4.63.05,6.94,0,.49-.2.92-.74.94a25.68,25.68,0,0,1-2.91,0c-.66,0-.79-.58-.79-1.14V40.23Z"/><path class="cls-11" d="M23.87,40.24V36.66c0-.72.32-1.13,1.06-1.14.52,0,1.05,0,1.57,0a1.45,1.45,0,0,1,1.75,1.55c.08,2.31.05,4.63.06,6.94a.88.88,0,0,1-1,1c-.82,0-1.64,0-2.46,0s-1-.48-1-1.17V40.24Z"/><path class="cls-2" d="M319.51,88.35c0,1.27,0,2.54,0,3.82,0,1.79-.05,1.79-1.95,1.83-.3,0-.6,0-.9,0-2.54.06-2.55.06-2.55-2.37s0-5.1,0-7.65c0-1.62.08-1.71,1.61-1.71,4.48,0,3.7-.45,3.78,3.6C319.53,86.7,319.51,87.52,319.51,88.35Z"/><path class="cls-2" d="M305.11,88.17c0,1.5,0,3,0,4.5,0,1-.39,1.28-1.33,1.35-4.08.3-4.08.33-4.08-3.8,0-2.17,0-4.34,0-6.51,0-1.06.4-1.47,1.46-1.46,4.77,0,3.86-.42,3.95,3.67,0,.75,0,1.5,0,2.25Z"/><path class="cls-2" d="M319.51,63.62c0,1.57,0,3.14,0,4.7,0,.91-.31,1.32-1.28,1.4-3.64.29-3.75.23-3.75-3.44,0-2.54,0-5.07,0-7.61,0-1.1.33-1.62,1.53-1.61,4.11,0,3.43-.25,3.49,3.21,0,1.12,0,2.23,0,3.35Z"/><path class="cls-2" d="M305.11,63.57c0,1.64,0,3.28,0,4.92,0,.84-.39,1.14-1.22,1.22-3.59.36-3.8.2-3.8-3.37,0-2.54,0-5.07,0-7.61,0-1.56.1-1.64,1.67-1.65,3.86,0,3.29-.28,3.33,3.13,0,1.12,0,2.24,0,3.36Z"/><path class="cls-2" d="M304.65,44.88c-4.1.32-4.1.32-4.1-3.51,0-1.49,0-3,0-4.48,0-.9.3-1.42,1.28-1.38a12.16,12.16,0,0,0,1.35,0c1.05-.07,1.48.41,1.47,1.45C304.64,39.55,304.65,42.15,304.65,44.88Z"/><path class="cls-2" d="M319.06,44.84c-4.11.45-4.11.45-4.11-3.4,0-1.49,0-3,0-4.47,0-1,.39-1.54,1.45-1.47.29,0,.59,0,.89,0,1.67,0,1.73.08,1.76,1.82C319.08,39.78,319.06,42.24,319.06,44.84Z"/><path class="cls-2" d="M122,88.16c0-1.56,0-3.12,0-4.69,0-.83.38-1.22,1.22-1.21h2.9c.8,0,1.27.28,1.27,1.15,0,3.13,0,6.25,0,9.38,0,.83-.37,1.21-1.21,1.22-1,0-2.08,0-3.12.12-.84.08-1-.39-1.06-1.06C122,91.44,122,89.8,122,88.16Z"/><path class="cls-2" d="M127.36,63.37c0,1.57,0,3.14,0,4.7,0,1.07-.25,1.66-1.48,1.64-4.26,0-3.49.21-3.54-3.4,0-2.46,0-4.92,0-7.38,0-1.78.06-1.84,1.7-1.85,3.81,0,3.26-.29,3.3,3.16C127.37,61.28,127.36,62.33,127.36,63.37Z"/><path class="cls-2" d="M126.91,44.85c-4.11.4-4.11.4-4.11-3.43,0-1.5,0-3,0-4.48,0-1.06.44-1.51,1.48-1.44.22,0,.44,0,.67,0,1.85,0,1.92,0,2,1.85C126.93,39.81,126.91,42.26,126.91,44.85Z"/><path class="cls-10" d="M207.42,63.49c0,1.49,0,3,0,4.48s-.07,1.72-1.59,1.72c-4.53,0-3.71.38-3.77-3.6,0-2.39,0-4.78,0-7.17,0-1.78.05-1.84,1.71-1.84,4.28,0,3.58-.4,3.64,3.49C207.43,61.54,207.42,62.51,207.42,63.49Z"/><path class="cls-2" d="M202,94.36c0-3.86,0-7.36,0-10.86,0-.83.35-1.25,1.2-1.24s1.95,0,2.92,0,1.29.49,1.29,1.4c0,3,0,6,0,9,0,1.11-.5,1.43-1.51,1.39A12.17,12.17,0,0,0,202,94.36Z"/><path class="cls-11" d="M202.5,40.12c0-.82,0-1.64,0-2.46,0-2.11,0-2.12,1.86-2.16,2.12,0,2.51.22,2.57,2.11s0,4,0,6c0,.94-.37,1.39-1.32,1.34-.22,0-.44,0-.67,0-2.48,0-2.48,0-2.49-2.42V40.12Z"/><path class="cls-4" d="M291.14,67V96.87c0,.52,0,1,0,1.57,0,.92-.32,1.42-1.31,1.38-.52,0-1,0-1.57,0H235c-3,0-2.78.16-2.78-2.82V37c0-3-.23-2.84,2.76-2.84h54.19c2,0,2,0,2,2Q291.15,51.6,291.14,67Z"/><path class="cls-10" d="M279.41,63.57c0,1.57,0,3.14,0,4.7,0,1.07-.42,1.45-1.46,1.44-4.78,0-3.84.34-3.91-3.71,0-2.39,0-4.78,0-7.17,0-1.65.08-1.74,1.57-1.74,4.54,0,3.7-.42,3.78,3.57,0,1,0,1.94,0,2.91Z"/><path class="cls-2" d="M274,88.32c0-1.57,0-3.14,0-4.71,0-.93.35-1.36,1.31-1.36,5,0,4-.41,4.09,3.75,0,2,0,4,0,6.06s0,1.9-1.83,1.94c-.23,0-.45,0-.68,0-.87,0-2.06.42-2.55,0-.79-.67-.26-2-.33-3s0-1.79,0-2.69Z"/><path class="cls-2" d="M259.22,88.16c0-1.56,0-3.12,0-4.69,0-.83.38-1.22,1.22-1.21h2.9c.8,0,1.27.28,1.27,1.15,0,3.13,0,6.25,0,9.38,0,.83-.37,1.21-1.21,1.22-1,0-2.08,0-3.12.12-.84.08-1-.39-1.06-1.06C259.21,91.44,259.22,89.8,259.22,88.16Z"/><path class="cls-2" d="M244.81,88.27c0-1.43,0-2.85,0-4.27,0-1.64.07-1.73,1.6-1.73,4.5,0,3.72-.44,3.79,3.59,0,2.1,0,4.2,0,6.29,0,1.81-.05,1.81-1.94,1.85-.37,0-.75,0-1.12,0-2.33.07-2.34.07-2.34-2.37Z"/><path class="cls-2" d="M250.21,63.39c0,1.64,0,3.28,0,4.92,0,.9-.3,1.32-1.28,1.41-3.63.3-3.75.22-3.75-3.43,0-2.46,0-4.92,0-7.39,0-1.76,0-1.81,1.73-1.82,3.77,0,3.23-.29,3.27,3.18,0,1,0,2.09,0,3.13Z"/><path class="cls-2" d="M264.61,63.62c0,1.57,0,3.14,0,4.7,0,.91-.31,1.32-1.28,1.4-3.64.29-3.75.23-3.75-3.44,0-2.54,0-5.07,0-7.61,0-1.1.33-1.62,1.53-1.61,4.11,0,3.43-.25,3.49,3.21,0,1.12,0,2.23,0,3.35Z"/><path class="cls-11" d="M274.51,40.16c0-1,0-2.09,0-3.13-.06-1.2.51-1.52,1.62-1.55,2.46-.06,2.82.23,2.85,2.77,0,1.71,0,3.43,0,5.15,0,1.1-.32,1.72-1.51,1.6h-.23c-2.74.1-2.74.1-2.75-2.61V40.16Z"/><path class="cls-2" d="M249.77,44.76c-.13.09-.19.16-.25.16-3.87.37-3.87.37-3.87-3.42,0-1.41,0-2.83,0-4.25,0-1.68.09-1.71,1.82-1.75h.45c1.71,0,1.77.08,1.82,1.76,0,1.27,0,2.54,0,3.81Z"/><path class="cls-2" d="M264.15,44.76a1.13,1.13,0,0,1-.38.19c-4.63.18-3.62.15-3.71-3.38,0-1.49,0-3,0-4.48,0-1.12.37-1.69,1.54-1.59a7,7,0,0,0,1.12,0c1.07-.07,1.46.45,1.45,1.47C264.14,39.57,264.15,42.17,264.15,44.76Z"/></g></g></svg>